<?xml version="1.0" encoding="UTF-8" standalone="no"?>
<!DOCTYPE svg PUBLIC "-//W3C//DTD SVG 1.1//EN" "http://www.w3.org/Graphics/SVG/1.1/DTD/svg11.dtd">
<svg width="100%" height="100%" viewBox="0 0 5000 5000" version="1.1" xmlns="http://www.w3.org/2000/svg" xmlns:xlink="http://www.w3.org/1999/xlink" xml:space="preserve" xmlns:serif="http://www.serif.com/" style="fill-rule:evenodd;clip-rule:evenodd;">
    <g transform="matrix(1.67726,0,0,1.67726,-86.6292,-220.424)">
        <path d="M1361.38,508.877C1423.22,498.144 1486.78,492.552 1551.63,492.552C1567.7,492.552 1583.69,492.895 1599.59,493.575C1600.87,487.176 1601.76,480.865 1602.17,474.684C1607.23,399.485 1526.68,377.696 1530.91,314.847C1531.97,299.128 1538.67,286.788 1548.66,277.152C1569.39,255.678 1606.66,244.684 1649.53,245.189C1654.96,245.084 1659.8,245.201 1663.82,245.471C1668.15,245.762 1673.39,246.335 1679.23,247.237C1721.99,252.49 1754.21,266.832 1771.26,288.444C1780.73,299.274 1786.34,312.551 1785.25,328.71C1785.11,330.77 1784.87,332.811 1784.53,334.835C1783.76,341.736 1781.55,348.316 1778.1,354.473C1754.99,402.509 1684.71,440.038 1682.01,480.219C1681.65,485.639 1682.27,492.488 1683.67,500.365C1735.12,506.494 1785.49,516.159 1834.53,529.109C1846.46,520.97 1861.13,511.817 1878.72,501.396C1929.6,471.251 2017.08,300.898 2000.47,269.112C1948.11,168.906 1966.92,118.707 2097.78,170.443C2227.64,221.785 2208.25,267.904 2101.28,307.942C2067.35,320.638 1992.59,462.105 2025.24,561.061C2030.81,577.943 2035.24,592.63 2038.56,605.337C2101.91,636.458 2161.85,673.463 2217.67,715.635C2266.33,682.302 2337.07,604.635 2334.45,582.99C2324.5,500.517 2350.36,467.421 2426.63,528.95C2502.31,590.01 2477.1,620.03 2393.46,629.642C2370.55,632.274 2301.91,699.276 2281.57,767.73C2287.01,772.517 2292.41,777.357 2297.78,782.267C2306.26,744.55 2308.49,707.047 2342.2,680.614C2357.11,668.926 2373.07,664.411 2388.98,664.668C2423.33,664.01 2460.26,684.852 2490.9,719.307C2494.93,723.533 2498.34,727.476 2501.01,730.884C2503.89,734.554 2507.17,739.17 2510.6,744.53C2536.88,782.675 2547.35,819.701 2540.27,850.466C2537.4,866.615 2529.52,881.654 2514.2,893.669C2512.25,895.197 2510.24,896.626 2508.18,897.965C2501.41,902.859 2493.88,906.356 2485.83,908.524C2466.54,914.935 2444.68,916.603 2422.65,916.911C2453.47,956.201 2481.69,997.626 2507.04,1040.89C2513.92,1040.95 2521.23,1041.07 2528.97,1041.25C2589.39,1042.68 2776.88,950.08 2786.51,916.228C2816.86,809.51 2866.74,778.715 2931,886.063C2994.78,992.595 2947.32,1019.82 2836.73,998.1C2801.66,991.209 2644.34,1067.05 2599.69,1162.84C2593.67,1175.77 2588.06,1187.24 2582.81,1197.33C2618.7,1289.28 2642.63,1387.19 2652.7,1489.14C2683.03,1500.57 2714.23,1508.4 2742.46,1508.07C2829.61,1507.03 2847.38,1412.19 2920.22,1411.33C2938.44,1411.11 2953.27,1417.71 2965.29,1428.34C2991.94,1450.27 3008.02,1492.24 3011.35,1541.71C3011.97,1547.96 3012.27,1553.56 3012.33,1558.22C3012.39,1563.23 3012.21,1569.32 3011.7,1576.14C3009.55,1625.91 2995.95,1664.37 2972.59,1685.99C2960.98,1697.9 2946.18,1705.58 2927.45,1705.8C2925.07,1705.83 2922.7,1705.73 2920.35,1705.52C2912.31,1705.27 2904.52,1703.33 2897.1,1699.9C2839.61,1677.65 2789.93,1600.06 2743.37,1600.61C2724.71,1600.83 2692.31,1612.3 2657.74,1627.29C2654.88,1741.2 2634.76,1850.86 2599.9,1953.8C2654.35,1983.86 2726.26,2009.82 2743.36,2000.54C2824.1,1956.72 2867.45,1970.41 2832.47,2075.2C2797.75,2179.19 2757.78,2164.94 2717.27,2081.24C2708.03,2062.15 2641.53,2027.93 2574.79,2020.69C2536.32,2113.86 2485.48,2200.64 2424.29,2279.01C2451.63,2308.46 2479.32,2331.64 2491.41,2331.05C2574.39,2327 2605.55,2355.16 2538.75,2426.85C2472.45,2497.99 2444.3,2470.7 2440.67,2386.59C2440.12,2373.77 2420.69,2345.39 2392.05,2318.42C2372,2341.82 2350.98,2364.38 2329.09,2386.01C2364.93,2391.93 2400.16,2394.56 2423.49,2425.2C2434.52,2439.7 2438.07,2455.55 2436.69,2471.54C2434.97,2506 2410.86,2543.93 2373.12,2576.1C2368.47,2580.32 2364.16,2583.9 2360.45,2586.72C2358.64,2588.1 2356.62,2589.57 2354.42,2591.1C2380.53,2641.84 2414.76,2689.52 2432.59,2691.34C2532.6,2701.54 2560.65,2740.08 2458.18,2811.87C2356.49,2883.11 2331.76,2846.14 2354.42,2747.14C2358.96,2727.34 2333.4,2670.36 2291.45,2624.91C2270.66,2632.06 2251.27,2634.19 2234.17,2630.99C2217.69,2628.75 2202.71,2621.45 2191.37,2606.55C2189.92,2604.65 2188.59,2602.7 2187.35,2600.68C2182.76,2594.08 2179.68,2586.66 2178,2578.66C2176.2,2572.13 2174.99,2565.28 2174.23,2558.2C2155.33,2552.24 2141.39,2546.68 2131.76,2541.18C2076.95,2575.03 2018.95,2604.24 1958.31,2628.24C1954.27,2641.17 1949.08,2656.09 1942.74,2673.21C1921.81,2729.74 1960.78,2922.39 1993.94,2937.44C2098.48,2984.93 2115.44,3037.27 1979.85,3078.59C1845.3,3119.6 1831.37,3070.17 1890.14,2970.1C1908.78,2938.37 1878.08,2777.05 1789.82,2718.08C1773.05,2706.86 1759.1,2696.95 1747.79,2688.12C1707.28,2695.38 1666.02,2700.43 1624.12,2703.15C1618.79,2715.2 1606.47,2732.31 1586.48,2756.7C1559.65,2789.42 1542.16,2925.65 1560.98,2943.05C1620.29,2997.91 1619.81,3036.36 1519.58,3033.31C1420.11,3030.29 1421.97,2994.46 1484.01,2941.4C1503.69,2924.58 1519.63,2810.93 1473.83,2752.12C1455.64,2728.76 1444.46,2711.93 1439.46,2699.86C1408.66,2696.76 1378.22,2692.38 1348.27,2686.81C1337.77,2699.22 1323.02,2714.3 1303.64,2732.81C1263.46,2771.2 1212.34,2949.3 1231.76,2976.14C1293.01,3060.74 1284.07,3111.87 1161.14,3088.34C1039.14,3064.99 1049.2,3017.61 1137.22,2958.98C1150.51,2950.12 1167.52,2911.86 1176.97,2864.78C1160.81,2869.55 1142.2,2869.2 1123.31,2864C1119.61,2863.15 1116.36,2862.2 1113.72,2861.25C1110.87,2860.24 1107.48,2858.81 1103.78,2856.98C1076.29,2844.81 1058.37,2826.32 1052.69,2803.95C1049.21,2792.58 1049.01,2779.7 1054.12,2765.4C1054.76,2763.58 1055.48,2761.81 1056.25,2760.05C1058.64,2753.99 1061.92,2748.46 1065.93,2743.53C1087.83,2713.64 1126.75,2694.09 1149.5,2670.62C1140.64,2650.46 1135.5,2635.16 1133.84,2623.78C1084.58,2603.65 1037.08,2580.07 991.671,2553.35C981.26,2563.13 960.951,2574.77 928.444,2590.64C888.273,2610.25 798.937,2734.77 804.939,2760.26C823.854,2840.63 802.328,2877.8 721.097,2829.19C640.484,2780.95 661.715,2746.95 742.191,2723.6C767.71,2716.2 843.349,2612.94 837.79,2534.89C834.238,2485.01 836.402,2459.82 845.503,2450.64C788.185,2403.05 735.741,2349.79 689.009,2291.69C680.727,2296.29 673.082,2301.38 666.335,2307.01C612.056,2352.28 649.991,2421.68 604.625,2459.51C593.279,2468.98 580.531,2472.38 567.467,2471.77C539.352,2471.47 507.507,2453.01 479.794,2423.26C476.173,2419.61 473.08,2416.2 470.634,2413.27C467.999,2410.11 464.96,2406.15 461.752,2401.56C437.334,2368.81 425.967,2337.39 429.463,2311.68C430.611,2298.16 435.94,2285.71 447.599,2275.99C449.082,2274.75 450.62,2273.6 452.212,2272.52C457.398,2268.57 463.309,2265.81 469.752,2264.19C517.423,2248.92 588.844,2272.82 617.847,2248.63C623.965,2243.53 630.865,2234.49 638.065,2223.11C616.696,2191.91 596.883,2159.55 578.755,2126.19C568.223,2135.88 539.342,2131 480.895,2112.47C431.26,2096.74 268.944,2139.73 258.117,2169.47C223.981,2263.22 180.269,2280.49 136.552,2163.62C93.167,2047.63 134.575,2033.16 223.778,2080.04C252.064,2094.91 388.102,2060.6 433.075,1980.58C458.263,1935.77 475.332,1913.01 488.776,1907.4C467.959,1835.62 454.224,1760.87 448.374,1683.92C389.145,1675.01 294.574,1679.84 281.772,1696C230.195,1761.12 188.479,1766.04 178.508,1668.56C168.614,1571.82 207.684,1568.6 273.377,1621.24C290.898,1635.29 382.275,1637.18 445.18,1606.13C445.166,1603.78 445.158,1601.4 445.158,1599.02C445.158,1540.46 449.718,1482.95 458.512,1426.77C448.654,1416.5 437.279,1403.52 424.035,1387.64C412.738,1374.09 387.393,1358.53 357.213,1344.18C314.165,1352.88 280.191,1383.76 235.975,1368.22C220.654,1362.84 210.083,1353.24 203.013,1341.39C195.515,1329.79 191.144,1315.54 189.729,1299.7C189.047,1299.99 188.425,1300.32 187.862,1300.67C100.063,1356.2 50.03,1344.06 81.419,1223.29C112.261,1104.62 157.905,1116.22 209.529,1205.06C225.028,1172.05 245.785,1149.68 269.476,1140.89C282.567,1135.27 297.118,1133.88 312.861,1139.41C314.864,1140.11 316.821,1140.91 318.739,1141.79C325.399,1144.43 331.383,1148.3 336.637,1153.2C370.913,1181.55 390.372,1236.84 417.778,1263.52C432.933,1261.55 447.489,1257.93 460.826,1252.26C478.661,1244.68 493.858,1238.76 506.727,1234.44C528.215,1172.91 554.99,1113.86 586.507,1057.83C550.691,1032.27 514.255,1012.66 501.654,1016.14C421.576,1038.24 385.004,1017.58 434.519,933.019C483.657,849.103 517.09,869.574 539.021,950.854C542.734,964.62 573.376,992.016 612.951,1013.28C649.956,954.136 692.397,898.731 739.569,847.776C738.605,841.619 737.645,835.098 736.679,828.183C734.71,814.086 725.668,794.044 712.771,772.07C698.058,770.083 684.279,765.286 672.218,753.692C661.452,743.344 656.578,730.96 655.674,717.838C654.867,710.165 655.376,702.073 657.083,693.733C627.023,657.617 596.604,629.508 582.036,629.62C478.155,630.415 442.076,593.688 532.502,507.699C622.241,422.365 654.639,457.848 650.822,562.95C650.342,576.148 664.788,603.163 688.358,631.9C690.158,629.63 692.024,627.372 693.953,625.129C697.184,621.126 700.223,617.679 702.869,614.926C705.718,611.962 709.326,608.509 713.538,604.822C743.414,576.985 773.469,562.332 799.554,563.131C813.189,562.861 826.241,566.883 837.304,577.516C838.711,578.869 840.041,580.285 841.299,581.764C845.847,586.533 849.284,592.152 851.652,598.421C868.528,635.818 861.413,691.583 872.89,725.381C935.908,676.34 1004.35,633.963 1077.17,599.306C1056.94,553.449 1030.11,509.357 1015.72,505.911C934.935,486.56 912.903,450.796 997.116,400.695C1080.69,350.975 1100.07,385.055 1079.99,466.811C1075.99,483.061 1095.4,533.668 1128.17,576.606C1157.69,564.346 1187.87,553.33 1218.62,543.628C1220.59,539.923 1222.66,536.084 1224.83,532.102C1250.02,485.95 1239.51,316.004 1212.38,299.256C1126.84,246.451 1118.41,199.539 1241.93,179.639C1364.51,159.891 1370.64,203.95 1307.06,283.145C1287.15,307.949 1293.85,446.867 1361.38,508.877Z" style="fill:url(#_Radial1);"/>
        <clipPath id="_clip2">
            <path d="M1361.38,508.877C1423.22,498.144 1486.78,492.552 1551.63,492.552C1567.7,492.552 1583.69,492.895 1599.59,493.575C1600.87,487.176 1601.76,480.865 1602.17,474.684C1607.23,399.485 1526.68,377.696 1530.91,314.847C1531.97,299.128 1538.67,286.788 1548.66,277.152C1569.39,255.678 1606.66,244.684 1649.53,245.189C1654.96,245.084 1659.8,245.201 1663.82,245.471C1668.15,245.762 1673.39,246.335 1679.23,247.237C1721.99,252.49 1754.21,266.832 1771.26,288.444C1780.73,299.274 1786.34,312.551 1785.25,328.71C1785.11,330.77 1784.87,332.811 1784.53,334.835C1783.76,341.736 1781.55,348.316 1778.1,354.473C1754.99,402.509 1684.71,440.038 1682.01,480.219C1681.65,485.639 1682.27,492.488 1683.67,500.365C1735.12,506.494 1785.49,516.159 1834.53,529.109C1846.46,520.97 1861.13,511.817 1878.72,501.396C1929.6,471.251 2017.08,300.898 2000.47,269.112C1948.11,168.906 1966.92,118.707 2097.78,170.443C2227.64,221.785 2208.25,267.904 2101.28,307.942C2067.35,320.638 1992.59,462.105 2025.24,561.061C2030.81,577.943 2035.24,592.63 2038.56,605.337C2101.91,636.458 2161.85,673.463 2217.67,715.635C2266.33,682.302 2337.07,604.635 2334.45,582.99C2324.5,500.517 2350.36,467.421 2426.63,528.95C2502.31,590.01 2477.1,620.03 2393.46,629.642C2370.55,632.274 2301.91,699.276 2281.57,767.73C2287.01,772.517 2292.41,777.357 2297.78,782.267C2306.26,744.55 2308.49,707.047 2342.2,680.614C2357.11,668.926 2373.07,664.411 2388.98,664.668C2423.33,664.01 2460.26,684.852 2490.9,719.307C2494.93,723.533 2498.34,727.476 2501.01,730.884C2503.89,734.554 2507.17,739.17 2510.6,744.53C2536.88,782.675 2547.35,819.701 2540.27,850.466C2537.4,866.615 2529.52,881.654 2514.2,893.669C2512.25,895.197 2510.24,896.626 2508.18,897.965C2501.41,902.859 2493.88,906.356 2485.83,908.524C2466.54,914.935 2444.68,916.603 2422.65,916.911C2453.47,956.201 2481.69,997.626 2507.04,1040.89C2513.92,1040.95 2521.23,1041.07 2528.97,1041.25C2589.39,1042.68 2776.88,950.08 2786.51,916.228C2816.86,809.51 2866.74,778.715 2931,886.063C2994.78,992.595 2947.32,1019.82 2836.73,998.1C2801.66,991.209 2644.34,1067.05 2599.69,1162.84C2593.67,1175.77 2588.06,1187.24 2582.81,1197.33C2618.7,1289.28 2642.63,1387.19 2652.7,1489.14C2683.03,1500.57 2714.23,1508.4 2742.46,1508.07C2829.61,1507.03 2847.38,1412.19 2920.22,1411.33C2938.44,1411.11 2953.27,1417.71 2965.29,1428.34C2991.94,1450.27 3008.02,1492.24 3011.35,1541.71C3011.97,1547.96 3012.27,1553.56 3012.33,1558.22C3012.39,1563.23 3012.21,1569.32 3011.7,1576.14C3009.55,1625.91 2995.95,1664.37 2972.59,1685.99C2960.98,1697.9 2946.18,1705.58 2927.45,1705.8C2925.07,1705.83 2922.7,1705.73 2920.35,1705.52C2912.31,1705.27 2904.52,1703.33 2897.1,1699.9C2839.61,1677.65 2789.93,1600.06 2743.37,1600.61C2724.71,1600.83 2692.31,1612.3 2657.74,1627.29C2654.88,1741.2 2634.76,1850.86 2599.9,1953.8C2654.35,1983.86 2726.26,2009.82 2743.36,2000.54C2824.1,1956.72 2867.45,1970.41 2832.47,2075.2C2797.75,2179.19 2757.78,2164.94 2717.27,2081.24C2708.03,2062.15 2641.53,2027.93 2574.79,2020.69C2536.32,2113.86 2485.48,2200.64 2424.29,2279.01C2451.63,2308.46 2479.32,2331.64 2491.41,2331.05C2574.39,2327 2605.55,2355.16 2538.75,2426.85C2472.45,2497.99 2444.3,2470.7 2440.67,2386.59C2440.12,2373.77 2420.69,2345.39 2392.05,2318.42C2372,2341.82 2350.98,2364.38 2329.09,2386.01C2364.93,2391.93 2400.16,2394.56 2423.49,2425.2C2434.52,2439.7 2438.07,2455.55 2436.69,2471.54C2434.97,2506 2410.86,2543.93 2373.12,2576.1C2368.47,2580.32 2364.16,2583.9 2360.45,2586.72C2358.64,2588.1 2356.62,2589.57 2354.42,2591.1C2380.53,2641.84 2414.76,2689.52 2432.59,2691.34C2532.6,2701.54 2560.65,2740.08 2458.18,2811.87C2356.49,2883.11 2331.76,2846.14 2354.42,2747.14C2358.96,2727.34 2333.4,2670.36 2291.45,2624.91C2270.66,2632.06 2251.27,2634.19 2234.17,2630.99C2217.69,2628.75 2202.71,2621.45 2191.37,2606.55C2189.92,2604.65 2188.59,2602.7 2187.35,2600.68C2182.76,2594.08 2179.68,2586.66 2178,2578.66C2176.2,2572.13 2174.99,2565.28 2174.23,2558.2C2155.33,2552.24 2141.39,2546.68 2131.76,2541.18C2076.95,2575.03 2018.95,2604.24 1958.31,2628.24C1954.27,2641.17 1949.08,2656.09 1942.74,2673.21C1921.81,2729.74 1960.78,2922.39 1993.94,2937.44C2098.48,2984.93 2115.44,3037.27 1979.85,3078.59C1845.3,3119.6 1831.37,3070.17 1890.14,2970.1C1908.78,2938.37 1878.08,2777.05 1789.82,2718.08C1773.05,2706.86 1759.1,2696.95 1747.79,2688.12C1707.28,2695.38 1666.02,2700.43 1624.12,2703.15C1618.79,2715.2 1606.47,2732.31 1586.48,2756.7C1559.65,2789.42 1542.16,2925.65 1560.98,2943.05C1620.29,2997.91 1619.81,3036.36 1519.58,3033.31C1420.11,3030.29 1421.97,2994.46 1484.01,2941.4C1503.69,2924.58 1519.63,2810.93 1473.83,2752.12C1455.64,2728.76 1444.46,2711.93 1439.46,2699.86C1408.66,2696.76 1378.22,2692.38 1348.27,2686.81C1337.77,2699.22 1323.02,2714.3 1303.64,2732.81C1263.46,2771.2 1212.34,2949.3 1231.76,2976.14C1293.01,3060.74 1284.07,3111.87 1161.14,3088.34C1039.14,3064.99 1049.2,3017.61 1137.22,2958.98C1150.51,2950.12 1167.52,2911.86 1176.97,2864.78C1160.81,2869.55 1142.2,2869.2 1123.31,2864C1119.61,2863.15 1116.36,2862.2 1113.72,2861.25C1110.87,2860.24 1107.48,2858.81 1103.78,2856.98C1076.29,2844.81 1058.37,2826.32 1052.69,2803.95C1049.21,2792.58 1049.01,2779.7 1054.12,2765.4C1054.76,2763.58 1055.48,2761.81 1056.25,2760.05C1058.64,2753.99 1061.92,2748.46 1065.93,2743.53C1087.83,2713.64 1126.75,2694.09 1149.5,2670.62C1140.64,2650.46 1135.5,2635.16 1133.84,2623.78C1084.58,2603.65 1037.08,2580.07 991.671,2553.35C981.26,2563.13 960.951,2574.77 928.444,2590.64C888.273,2610.25 798.937,2734.77 804.939,2760.26C823.854,2840.63 802.328,2877.8 721.097,2829.19C640.484,2780.95 661.715,2746.95 742.191,2723.6C767.71,2716.2 843.349,2612.94 837.79,2534.89C834.238,2485.01 836.402,2459.82 845.503,2450.64C788.185,2403.05 735.741,2349.79 689.009,2291.69C680.727,2296.29 673.082,2301.38 666.335,2307.01C612.056,2352.28 649.991,2421.68 604.625,2459.51C593.279,2468.98 580.531,2472.38 567.467,2471.77C539.352,2471.47 507.507,2453.01 479.794,2423.26C476.173,2419.61 473.08,2416.2 470.634,2413.27C467.999,2410.11 464.96,2406.15 461.752,2401.56C437.334,2368.81 425.967,2337.39 429.463,2311.68C430.611,2298.16 435.94,2285.71 447.599,2275.99C449.082,2274.75 450.62,2273.6 452.212,2272.52C457.398,2268.57 463.309,2265.81 469.752,2264.19C517.423,2248.92 588.844,2272.82 617.847,2248.63C623.965,2243.53 630.865,2234.49 638.065,2223.11C616.696,2191.91 596.883,2159.55 578.755,2126.19C568.223,2135.88 539.342,2131 480.895,2112.47C431.26,2096.74 268.944,2139.73 258.117,2169.47C223.981,2263.22 180.269,2280.49 136.552,2163.62C93.167,2047.63 134.575,2033.16 223.778,2080.04C252.064,2094.91 388.102,2060.6 433.075,1980.58C458.263,1935.77 475.332,1913.01 488.776,1907.4C467.959,1835.62 454.224,1760.87 448.374,1683.92C389.145,1675.01 294.574,1679.84 281.772,1696C230.195,1761.12 188.479,1766.04 178.508,1668.56C168.614,1571.82 207.684,1568.6 273.377,1621.24C290.898,1635.29 382.275,1637.18 445.18,1606.13C445.166,1603.78 445.158,1601.4 445.158,1599.02C445.158,1540.46 449.718,1482.95 458.512,1426.77C448.654,1416.5 437.279,1403.52 424.035,1387.64C412.738,1374.09 387.393,1358.53 357.213,1344.18C314.165,1352.88 280.191,1383.76 235.975,1368.22C220.654,1362.84 210.083,1353.24 203.013,1341.39C195.515,1329.79 191.144,1315.54 189.729,1299.7C189.047,1299.99 188.425,1300.32 187.862,1300.67C100.063,1356.2 50.03,1344.06 81.419,1223.29C112.261,1104.62 157.905,1116.22 209.529,1205.06C225.028,1172.05 245.785,1149.68 269.476,1140.89C282.567,1135.27 297.118,1133.88 312.861,1139.41C314.864,1140.11 316.821,1140.91 318.739,1141.79C325.399,1144.43 331.383,1148.3 336.637,1153.2C370.913,1181.55 390.372,1236.84 417.778,1263.52C432.933,1261.55 447.489,1257.93 460.826,1252.26C478.661,1244.68 493.858,1238.76 506.727,1234.44C528.215,1172.91 554.99,1113.86 586.507,1057.83C550.691,1032.27 514.255,1012.66 501.654,1016.14C421.576,1038.24 385.004,1017.58 434.519,933.019C483.657,849.103 517.09,869.574 539.021,950.854C542.734,964.62 573.376,992.016 612.951,1013.28C649.956,954.136 692.397,898.731 739.569,847.776C738.605,841.619 737.645,835.098 736.679,828.183C734.71,814.086 725.668,794.044 712.771,772.07C698.058,770.083 684.279,765.286 672.218,753.692C661.452,743.344 656.578,730.96 655.674,717.838C654.867,710.165 655.376,702.073 657.083,693.733C627.023,657.617 596.604,629.508 582.036,629.62C478.155,630.415 442.076,593.688 532.502,507.699C622.241,422.365 654.639,457.848 650.822,562.95C650.342,576.148 664.788,603.163 688.358,631.9C690.158,629.63 692.024,627.372 693.953,625.129C697.184,621.126 700.223,617.679 702.869,614.926C705.718,611.962 709.326,608.509 713.538,604.822C743.414,576.985 773.469,562.332 799.554,563.131C813.189,562.861 826.241,566.883 837.304,577.516C838.711,578.869 840.041,580.285 841.299,581.764C845.847,586.533 849.284,592.152 851.652,598.421C868.528,635.818 861.413,691.583 872.89,725.381C935.908,676.34 1004.35,633.963 1077.17,599.306C1056.94,553.449 1030.11,509.357 1015.72,505.911C934.935,486.56 912.903,450.796 997.116,400.695C1080.69,350.975 1100.07,385.055 1079.99,466.811C1075.99,483.061 1095.4,533.668 1128.17,576.606C1157.69,564.346 1187.87,553.33 1218.62,543.628C1220.59,539.923 1222.66,536.084 1224.83,532.102C1250.02,485.95 1239.51,316.004 1212.38,299.256C1126.84,246.451 1118.41,199.539 1241.93,179.639C1364.51,159.891 1370.64,203.95 1307.06,283.145C1287.15,307.949 1293.85,446.867 1361.38,508.877Z"/>
        </clipPath>
        <g clip-path="url(#_clip2)">
            <g transform="matrix(2.51889,0,0,2.51889,1510.5,1621.94)">
                <g transform="matrix(1,0,0,1,-650,-650)">
                    <g transform="matrix(0,-4.16667,-4.16667,0,650,19.3637)">
                        <path d="M-152.75,-152.75C-237.111,-152.75 -305.5,-84.362 -305.5,0C-305.5,84.361 -237.111,152.75 -152.75,152.75C-68.389,152.75 0,84.361 0,0C0,-84.362 -68.389,-152.75 -152.75,-152.75" style="fill:white;fill-rule:nonzero;"/>
                    </g>
                    <g transform="matrix(4.16667,0,0,4.16667,13.0912,18.322)">
                        <g>
                            <g>
                                <clipPath id="_clip3">
                                    <path d="M152.858,0C68.496,0 0.108,68.388 0.108,152.75C0.108,237.111 68.496,305.5 152.858,305.5C237.219,305.5 305.608,237.111 305.608,152.75C305.608,68.388 237.219,0 152.858,0Z"/>
                                </clipPath>
                                <g clip-path="url(#_clip3)">
                                    <g transform="matrix(1,0,0,1,0,-282)">
                                        <rect x="-62" y="282" width="468" height="24" style="fill:rgb(199,0,0);"/>
                                    </g>
                                    <g transform="matrix(1,0,0,1,0,-188)">
                                        <rect x="-62" y="235" width="468" height="24" style="fill:rgb(199,0,0);"/>
                                    </g>
                                    <g transform="matrix(1,0,0,1,0,-94)">
                                        <rect x="-62" y="188" width="468" height="24" style="fill:rgb(199,0,0);"/>
                                    </g>
                                    <rect x="-62" y="141" width="468" height="24" style="fill:rgb(199,0,0);"/>
                                    <g transform="matrix(1,0,0,1,0,94)">
                                        <rect x="-62" y="94" width="468" height="24" style="fill:rgb(199,0,0);"/>
                                    </g>
                                    <g transform="matrix(1,0,0,1,0,188)">
                                        <rect x="-62" y="47" width="468" height="24" style="fill:rgb(199,0,0);"/>
                                    </g>
                                    <g transform="matrix(1,0,0,1,0,282)">
                                        <rect x="-62" y="0" width="468" height="24" style="fill:rgb(199,0,0);"/>
                                    </g>
                                    <g transform="matrix(-1,0,0,1,94.258,-141)">
                                        <rect x="-62" y="141" width="218.258" height="165" style="fill:rgb(29,61,125);"/>
                                    </g>
                                    <g transform="matrix(1,0,0,1,28.5,14.364)">
                                        <path d="M0,7.242L-4.702,10.857L-2.717,5.268L-7.608,1.913L-1.679,2.074L0,-3.615L1.679,2.074L7.608,1.913L2.717,5.268L4.702,10.857L0,7.242Z" style="fill:white;fill-rule:nonzero;stroke:white;stroke-width:0.5px;"/>
                                    </g>
                                    <g transform="matrix(1,0,0,1,64.5,14.364)">
                                        <path d="M0,7.242L-4.702,10.857L-2.717,5.268L-7.608,1.913L-1.679,2.074L0,-3.615L1.679,2.074L7.608,1.913L2.717,5.268L4.702,10.857L0,7.242Z" style="fill:rgb(29,61,125);fill-rule:nonzero;"/>
                                    </g>
                                    <g transform="matrix(1,0,0,1,100.5,14.364)">
                                        <path d="M0,7.242L-4.702,10.857L-2.717,5.268L-7.608,1.913L-1.679,2.074L0,-3.615L1.679,2.074L7.608,1.913L2.717,5.268L4.702,10.857L0,7.242Z" style="fill:white;fill-rule:nonzero;stroke:white;stroke-width:0.5px;"/>
                                    </g>
                                    <g transform="matrix(1,0,0,1,136.5,14.364)">
                                        <path d="M0,7.242L-4.702,10.857L-2.717,5.268L-7.608,1.913L-1.679,2.074L0,-3.615L1.679,2.074L7.608,1.913L2.717,5.268L4.702,10.857L0,7.242Z" style="fill:white;fill-rule:nonzero;stroke:white;stroke-width:0.5px;"/>
                                    </g>
                                    <g transform="matrix(1,0,0,1,10.5,29.364)">
                                        <path d="M0,7.242L-4.702,10.857L-2.717,5.268L-7.608,1.913L-1.679,2.074L0,-3.615L1.679,2.074L7.608,1.913L2.717,5.268L4.702,10.857L0,7.242Z" style="fill:white;fill-rule:nonzero;stroke:white;stroke-width:0.5px;"/>
                                    </g>
                                    <g transform="matrix(1,0,0,1,46.5,29.364)">
                                        <path d="M0,7.242L-4.702,10.857L-2.717,5.268L-7.608,1.913L-1.679,2.074L0,-3.615L1.679,2.074L7.608,1.913L2.717,5.268L4.702,10.857L0,7.242Z" style="fill:rgb(29,61,125);fill-rule:nonzero;"/>
                                    </g>
                                    <g transform="matrix(1,0,0,1,82.5,29.364)">
                                        <path d="M0,7.242L-4.702,10.857L-2.717,5.268L-7.608,1.913L-1.679,2.074L0,-3.615L1.679,2.074L7.608,1.913L2.717,5.268L4.702,10.857L0,7.242Z" style="fill:white;fill-rule:nonzero;stroke:white;stroke-width:0.5px;"/>
                                    </g>
                                    <g transform="matrix(1,0,0,1,118.5,29.364)">
                                        <path d="M0,7.242L-4.702,10.857L-2.717,5.268L-7.608,1.913L-1.679,2.074L0,-3.615L1.679,2.074L7.608,1.913L2.717,5.268L4.702,10.857L0,7.242Z" style="fill:white;fill-rule:nonzero;stroke:white;stroke-width:0.5px;"/>
                                    </g>
                                    <g transform="matrix(1,0,0,1,28.5,46.364)">
                                        <path d="M0,7.242L-4.702,10.857L-2.717,5.268L-7.608,1.913L-1.679,2.074L0,-3.615L1.679,2.074L7.608,1.913L2.717,5.268L4.702,10.857L0,7.242Z" style="fill:white;fill-rule:nonzero;stroke:white;stroke-width:0.5px;"/>
                                    </g>
                                    <g transform="matrix(1,0,0,1,64.5,46.364)">
                                        <path d="M0,7.242L-4.702,10.857L-2.717,5.268L-7.608,1.913L-1.679,2.074L0,-3.615L1.679,2.074L7.608,1.913L2.717,5.268L4.702,10.857L0,7.242Z" style="fill:white;fill-rule:nonzero;stroke:white;stroke-width:0.5px;"/>
                                    </g>
                                    <g transform="matrix(1,0,0,1,100.5,46.364)">
                                        <path d="M0,7.242L-4.702,10.857L-2.717,5.268L-7.608,1.913L-1.679,2.074L0,-3.615L1.679,2.074L7.608,1.913L2.717,5.268L4.702,10.857L0,7.242Z" style="fill:white;fill-rule:nonzero;stroke:white;stroke-width:0.5px;"/>
                                    </g>
                                    <g transform="matrix(1,0,0,1,136.5,46.364)">
                                        <path d="M0,7.242L-4.702,10.857L-2.717,5.268L-7.608,1.913L-1.679,2.074L0,-3.615L1.679,2.074L7.608,1.913L2.717,5.268L4.702,10.857L0,7.242Z" style="fill:white;fill-rule:nonzero;stroke:white;stroke-width:0.5px;"/>
                                    </g>
                                    <g transform="matrix(1,0,0,1,10.5,61.364)">
                                        <path d="M0,7.242L-4.702,10.857L-2.717,5.268L-7.608,1.913L-1.679,2.074L0,-3.615L1.679,2.074L7.608,1.913L2.717,5.268L4.702,10.857L0,7.242Z" style="fill:white;fill-rule:nonzero;stroke:white;stroke-width:0.5px;"/>
                                    </g>
                                    <g transform="matrix(1,0,0,1,46.5,61.364)">
                                        <path d="M0,7.242L-4.702,10.857L-2.717,5.268L-7.608,1.913L-1.679,2.074L0,-3.615L1.679,2.074L7.608,1.913L2.717,5.268L4.702,10.857L0,7.242Z" style="fill:white;fill-rule:nonzero;stroke:white;stroke-width:0.5px;"/>
                                    </g>
                                    <g transform="matrix(1,0,0,1,82.5,61.364)">
                                        <path d="M0,7.242L-4.702,10.857L-2.717,5.268L-7.608,1.913L-1.679,2.074L0,-3.615L1.679,2.074L7.608,1.913L2.717,5.268L4.702,10.857L0,7.242Z" style="fill:white;fill-rule:nonzero;stroke:white;stroke-width:0.5px;"/>
                                    </g>
                                    <g transform="matrix(1,0,0,1,118.5,61.364)">
                                        <path d="M0,7.242L-4.702,10.857L-2.717,5.268L-7.608,1.913L-1.679,2.074L0,-3.615L1.679,2.074L7.608,1.913L2.717,5.268L4.702,10.857L0,7.242Z" style="fill:white;fill-rule:nonzero;stroke:white;stroke-width:0.5px;"/>
                                    </g>
                                    <g transform="matrix(1,0,0,1,28.5,78.364)">
                                        <path d="M0,7.242L-4.702,10.857L-2.717,5.268L-7.608,1.913L-1.679,2.074L0,-3.615L1.679,2.074L7.608,1.913L2.717,5.268L4.702,10.857L0,7.242Z" style="fill:white;fill-rule:nonzero;stroke:white;stroke-width:0.5px;"/>
                                    </g>
                                    <g transform="matrix(1,0,0,1,64.5,78.364)">
                                        <path d="M0,7.242L-4.702,10.857L-2.717,5.268L-7.608,1.913L-1.679,2.074L0,-3.615L1.679,2.074L7.608,1.913L2.717,5.268L4.702,10.857L0,7.242Z" style="fill:white;fill-rule:nonzero;stroke:white;stroke-width:0.5px;"/>
                                    </g>
                                    <g transform="matrix(1,0,0,1,100.5,78.364)">
                                        <path d="M0,7.242L-4.702,10.857L-2.717,5.268L-7.608,1.913L-1.679,2.074L0,-3.615L1.679,2.074L7.608,1.913L2.717,5.268L4.702,10.857L0,7.242Z" style="fill:white;fill-rule:nonzero;stroke:white;stroke-width:0.5px;"/>
                                    </g>
                                    <g transform="matrix(1,0,0,1,136.5,78.364)">
                                        <path d="M0,7.242L-4.702,10.857L-2.717,5.268L-7.608,1.913L-1.679,2.074L0,-3.615L1.679,2.074L7.608,1.913L2.717,5.268L4.702,10.857L0,7.242Z" style="fill:white;fill-rule:nonzero;stroke:white;stroke-width:0.5px;"/>
                                    </g>
                                    <g transform="matrix(1,0,0,1,10.5,93.364)">
                                        <path d="M0,7.242L-4.702,10.857L-2.717,5.268L-7.608,1.913L-1.679,2.074L0,-3.615L1.679,2.074L7.608,1.913L2.717,5.268L4.702,10.857L0,7.242Z" style="fill:white;fill-rule:nonzero;stroke:white;stroke-width:0.5px;"/>
                                    </g>
                                    <g transform="matrix(1,0,0,1,46.5,93.364)">
                                        <path d="M0,7.242L-4.702,10.857L-2.717,5.268L-7.608,1.913L-1.679,2.074L0,-3.615L1.679,2.074L7.608,1.913L2.717,5.268L4.702,10.857L0,7.242Z" style="fill:white;fill-rule:nonzero;stroke:white;stroke-width:0.5px;"/>
                                    </g>
                                    <g transform="matrix(1,0,0,1,82.5,93.364)">
                                        <path d="M0,7.242L-4.702,10.857L-2.717,5.268L-7.608,1.913L-1.679,2.074L0,-3.615L1.679,2.074L7.608,1.913L2.717,5.268L4.702,10.857L0,7.242Z" style="fill:white;fill-rule:nonzero;stroke:white;stroke-width:0.5px;"/>
                                    </g>
                                    <g transform="matrix(1,0,0,1,118.5,93.364)">
                                        <path d="M0,7.242L-4.702,10.857L-2.717,5.268L-7.608,1.913L-1.679,2.074L0,-3.615L1.679,2.074L7.608,1.913L2.717,5.268L4.702,10.857L0,7.242Z" style="fill:white;fill-rule:nonzero;stroke:white;stroke-width:0.5px;"/>
                                    </g>
                                    <g transform="matrix(1,0,0,1,28.5,110.364)">
                                        <path d="M0,7.242L-4.702,10.857L-2.717,5.268L-7.608,1.913L-1.679,2.074L0,-3.615L1.679,2.074L7.608,1.913L2.717,5.268L4.702,10.857L0,7.242Z" style="fill:white;fill-rule:nonzero;stroke:white;stroke-width:0.5px;"/>
                                    </g>
                                    <g transform="matrix(1,0,0,1,64.5,110.364)">
                                        <path d="M0,7.242L-4.702,10.857L-2.717,5.268L-7.608,1.913L-1.679,2.074L0,-3.615L1.679,2.074L7.608,1.913L2.717,5.268L4.702,10.857L0,7.242Z" style="fill:white;fill-rule:nonzero;stroke:white;stroke-width:0.5px;"/>
                                    </g>
                                    <g transform="matrix(1,0,0,1,100.5,110.364)">
                                        <path d="M0,7.242L-4.702,10.857L-2.717,5.268L-7.608,1.913L-1.679,2.074L0,-3.615L1.679,2.074L7.608,1.913L2.717,5.268L4.702,10.857L0,7.242Z" style="fill:white;fill-rule:nonzero;stroke:white;stroke-width:0.5px;"/>
                                    </g>
                                    <g transform="matrix(1,0,0,1,136.5,110.364)">
                                        <path d="M0,7.242L-4.702,10.857L-2.717,5.268L-7.608,1.913L-1.679,2.074L0,-3.615L1.679,2.074L7.608,1.913L2.717,5.268L4.702,10.857L0,7.242Z" style="fill:white;fill-rule:nonzero;stroke:white;stroke-width:0.5px;"/>
                                    </g>
                                    <g transform="matrix(1,0,0,1,10.5,125.364)">
                                        <path d="M0,7.242L-4.702,10.857L-2.717,5.268L-7.608,1.913L-1.679,2.074L0,-3.615L1.679,2.074L7.608,1.913L2.717,5.268L4.702,10.857L0,7.242Z" style="fill:white;fill-rule:nonzero;stroke:white;stroke-width:0.5px;"/>
                                    </g>
                                    <g transform="matrix(1,0,0,1,46.5,125.364)">
                                        <path d="M0,7.242L-4.702,10.857L-2.717,5.268L-7.608,1.913L-1.679,2.074L0,-3.615L1.679,2.074L7.608,1.913L2.717,5.268L4.702,10.857L0,7.242Z" style="fill:white;fill-rule:nonzero;stroke:white;stroke-width:0.5px;"/>
                                    </g>
                                    <g transform="matrix(1,0,0,1,82.5,125.364)">
                                        <path d="M0,7.242L-4.702,10.857L-2.717,5.268L-7.608,1.913L-1.679,2.074L0,-3.615L1.679,2.074L7.608,1.913L2.717,5.268L4.702,10.857L0,7.242Z" style="fill:white;fill-rule:nonzero;stroke:white;stroke-width:0.5px;"/>
                                    </g>
                                    <g transform="matrix(1,0,0,1,118.5,125.364)">
                                        <path d="M0,7.242L-4.702,10.857L-2.717,5.268L-7.608,1.913L-1.679,2.074L0,-3.615L1.679,2.074L7.608,1.913L2.717,5.268L4.702,10.857L0,7.242Z" style="fill:white;fill-rule:nonzero;stroke:white;stroke-width:0.5px;"/>
                                    </g>
                                    <g transform="matrix(1,0,0,1,28.5,142.364)">
                                        <path d="M0,7.242L-4.702,10.857L-2.717,5.268L-7.608,1.913L-1.679,2.074L0,-3.615L1.679,2.074L7.608,1.913L2.717,5.268L4.702,10.857L0,7.242Z" style="fill:white;fill-rule:nonzero;stroke:white;stroke-width:0.5px;"/>
                                    </g>
                                    <g transform="matrix(1,0,0,1,64.5,142.364)">
                                        <path d="M0,7.242L-4.702,10.857L-2.717,5.268L-7.608,1.913L-1.679,2.074L0,-3.615L1.679,2.074L7.608,1.913L2.717,5.268L4.702,10.857L0,7.242Z" style="fill:white;fill-rule:nonzero;stroke:white;stroke-width:0.5px;"/>
                                    </g>
                                    <g transform="matrix(1,0,0,1,100.5,142.364)">
                                        <path d="M0,7.242L-4.702,10.857L-2.717,5.268L-7.608,1.913L-1.679,2.074L0,-3.615L1.679,2.074L7.608,1.913L2.717,5.268L4.702,10.857L0,7.242Z" style="fill:white;fill-rule:nonzero;stroke:white;stroke-width:0.5px;"/>
                                    </g>
                                    <g transform="matrix(1,0,0,1,136.5,142.364)">
                                        <path d="M0,7.242L-4.702,10.857L-2.717,5.268L-7.608,1.913L-1.679,2.074L0,-3.615L1.679,2.074L7.608,1.913L2.717,5.268L4.702,10.857L0,7.242Z" style="fill:white;fill-rule:nonzero;stroke:white;stroke-width:0.5px;"/>
                                    </g>
                                </g>
                            </g>
                        </g>
                    </g>
                </g>
            </g>
        </g>
        <path d="M1832.02,514.335C1843.14,506.949 1856.34,498.772 1871.76,489.641C1884.84,481.888 1900.24,463.743 1915.76,441.418C1940.47,405.876 1964.71,359.654 1978.3,322.872C1983.8,307.983 1987.55,294.761 1988.61,284.646C1989.02,280.687 1989.44,277.502 1988.36,275.44C1971.61,243.386 1961.97,216.033 1960.06,195.072C1958.49,177.826 1962,164.191 1969.64,154.396C1977.5,144.327 1989.98,137.657 2008.19,136.372C2029.73,134.852 2060.94,141.185 2102.8,157.737C2144.29,174.14 2171.26,190.415 2185.91,205.792C2198.43,218.925 2203.04,232.084 2201.95,244.609C2200.9,256.741 2194.25,268.959 2181.34,280.484C2165.76,294.385 2140.17,307.975 2106.07,320.739C2103.37,321.747 2100.47,324.227 2097.16,327.494C2090.31,334.271 2082.84,344.303 2075.41,356.583C2045.53,405.998 2016.57,491.182 2038.22,556.78C2043.03,571.358 2047,584.33 2050.15,595.83C2109.2,625.247 2165.29,659.727 2217.84,698.701C2249.52,675.074 2287.97,635.808 2308.43,606.979C2312.83,600.79 2316.36,595.142 2318.67,590.296C2319.74,588.05 2320.7,584.727 2320.84,584.221C2317.65,557.541 2318.18,535.646 2322.35,519.837C2325.86,506.518 2332.03,496.925 2340.09,490.977C2348.75,484.589 2359.83,481.881 2373.71,484.469C2389.4,487.395 2409.93,497.92 2435.21,518.316C2460.25,538.518 2474.89,555.981 2481.17,570.338C2486.8,583.215 2486.6,594.463 2482.27,604.161C2478.26,613.124 2470.3,621.109 2458.02,627.367C2443.51,634.763 2422.14,640.1 2395.02,643.216C2391.29,643.644 2386.26,646.679 2380.24,651.298C2383.15,651.058 2386.06,650.963 2388.96,651.005C2426.57,650.378 2467.4,672.39 2500.95,710.055C2505.26,714.577 2508.9,718.8 2511.76,722.454C2514.83,726.365 2518.33,731.269 2521.98,736.964C2550.69,778.717 2561.29,819.485 2553.66,853.207C2550.18,872.345 2540.8,890.17 2522.63,904.421C2520.45,906.131 2518.2,907.736 2515.89,909.241C2507.97,914.925 2499.18,919.028 2489.79,921.603C2477.14,925.769 2463.46,928.088 2449.35,929.325C2472.86,960.766 2494.75,993.477 2514.88,1027.32C2519.51,1027.38 2524.31,1027.47 2529.29,1027.59C2570.13,1028.56 2670.75,984.239 2730.83,946.833C2745.88,937.464 2758.34,928.55 2766.45,920.806C2769.92,917.497 2772.67,914.94 2773.37,912.491C2783.03,878.506 2794.77,851.866 2808.02,834.172C2818.36,820.365 2829.88,811.621 2841.95,807.834C2854.97,803.751 2868.95,805.017 2883.73,813.071C2901.74,822.884 2921.75,844.003 2942.73,879.045C2963.51,913.769 2972.88,940.942 2973.33,961.047C2973.7,977.746 2968.42,990.497 2958.83,999.923C2950,1008.6 2937.01,1014.53 2919.97,1017.12C2898.27,1020.42 2869.18,1018.4 2834.1,1011.51C2831.15,1010.93 2827,1011.48 2821.88,1012.49C2811.62,1014.52 2798.53,1018.88 2783.85,1025.11C2725.31,1050 2642.03,1104.36 2612.08,1168.61C2607.03,1179.44 2602.27,1189.27 2597.76,1198.12C2631.87,1286.96 2654.98,1381.22 2665.42,1479.24C2691.56,1488.47 2718.07,1494.69 2742.3,1494.4C2781.71,1493.94 2805.04,1471.53 2827.15,1449.87C2854.14,1423.42 2879.83,1398.14 2920.06,1397.66C2941.9,1397.4 2959.73,1405.24 2974.16,1417.95C3003.01,1441.82 3021.32,1486.96 3024.97,1540.59C3025.62,1547.19 3025.93,1553.12 3025.99,1558.05C3026.05,1563.36 3025.87,1569.78 3025.34,1576.98C3022.97,1630.87 3007.37,1672.25 2982.12,1695.79C2968.08,1710.07 2950.18,1719.19 2927.62,1719.46C2924.9,1719.49 2922.21,1719.39 2919.52,1719.16C2909.95,1718.81 2900.66,1716.53 2891.8,1712.5C2856.22,1698.58 2823.25,1664.65 2792.41,1639.5C2775.35,1625.6 2759.48,1614.08 2743.53,1614.27C2727.43,1614.46 2700.58,1623.95 2671.15,1636.42C2667.59,1744.55 2648.67,1848.84 2616.49,1947.2C2651.25,1965.38 2691.08,1981.25 2717.91,1986.84C2723.47,1988 2728.38,1988.7 2732.46,1988.78C2734.32,1988.81 2735.85,1989.07 2736.84,1988.53C2762.98,1974.34 2785.58,1966 2803.26,1963.96C2818,1962.26 2829.95,1964.81 2838.89,1970.77C2848.34,1977.07 2855.03,1987.3 2857.41,2002.46C2860.13,2019.84 2856.87,2045.25 2845.43,2079.53C2834.09,2113.48 2821.82,2135.62 2809.59,2147.85C2798.8,2158.64 2787.5,2162.84 2776.32,2162.25C2765.8,2161.69 2754.84,2156.63 2744.06,2146.42C2731.25,2134.29 2718.03,2114.17 2704.97,2087.19C2702.89,2082.88 2696.4,2078.15 2687.72,2072.65C2664.04,2057.64 2624.35,2041.71 2583.37,2035.59C2546.48,2122.58 2498.91,2203.95 2442.26,2278.09C2455.22,2291.43 2467.86,2302.89 2478.34,2310.33C2481.97,2312.9 2485.26,2314.95 2488.17,2316.3C2489.19,2316.78 2490.8,2317.28 2491.14,2317.39C2517.99,2316.11 2539.79,2318.2 2555.27,2323.48C2568.3,2327.93 2577.43,2334.78 2582.79,2343.24C2588.54,2352.32 2590.46,2363.57 2586.89,2377.23C2582.85,2392.67 2570.89,2412.4 2548.74,2436.16C2526.81,2459.7 2508.35,2473.06 2493.58,2478.3C2480.33,2482.99 2469.13,2481.99 2459.76,2476.98C2456.48,2475.22 2453.37,2472.91 2450.49,2470.01L2450.44,2470.9L2450.32,2472.46C2448.35,2509.86 2423.02,2551.46 2382.14,2586.36C2378.52,2589.64 2375.09,2592.56 2371.96,2595.06C2385.85,2620.74 2401.44,2644.8 2415.28,2661.01C2420.01,2666.56 2424.48,2671.13 2428.58,2674.36C2430.72,2676.05 2432.35,2677.58 2433.98,2677.75C2466.22,2681.04 2491.43,2687.35 2508.05,2696.26C2522.02,2703.76 2530.63,2713.37 2534.26,2724.14C2538.01,2735.25 2536.87,2748.2 2528.65,2762.81C2519.16,2779.66 2499.06,2799.91 2466.02,2823.06C2433.28,2845.99 2407.79,2858.09 2389.06,2861.46C2372.66,2864.42 2360.25,2861.23 2351.19,2854.06C2342.44,2847.14 2336.4,2835.92 2334.1,2820.22C2331.39,2801.72 2333.83,2775.88 2341.1,2744.09C2342.54,2737.83 2339.16,2727.09 2333.68,2713.89C2324.57,2691.97 2308.31,2664.96 2287.14,2640.59C2267.26,2646.26 2248.65,2647.54 2231.99,2644.47C2212.15,2641.71 2194.16,2632.78 2180.49,2614.82C2178.85,2612.66 2177.32,2610.44 2175.9,2608.14C2170.48,2600.24 2166.77,2591.41 2164.72,2581.88C2163.54,2577.55 2162.59,2573.1 2161.84,2568.53C2149.93,2564.54 2140.15,2560.67 2132.3,2556.87C2080.59,2588.31 2026.13,2615.68 1969.36,2638.54C1965.6,2650.17 1960.99,2663.26 1955.55,2677.95C1950.15,2692.54 1949.51,2716.98 1951.43,2744.88C1954.49,2789.22 1964.68,2841.87 1977.28,2880.14C1982.39,2895.67 1987.82,2908.75 1993.41,2917.59C1995.65,2921.13 1997.38,2924 1999.59,2925C2032.98,2940.17 2057.83,2956.05 2072.57,2971.69C2084.6,2984.45 2090.42,2997.52 2090.61,3010.13C2090.8,3023.15 2085.2,3036.33 2071.76,3048.85C2055.79,3063.74 2027.24,3078.44 1983.84,3091.66C1940.82,3104.77 1909.32,3108.77 1888.06,3105.68C1870.01,3103.05 1858.11,3095.47 1851.08,3084.75C1844.3,3074.42 1841.85,3060.5 1844.69,3043.2C1848.14,3022.16 1859.65,2995.03 1878.36,2963.18C1879.86,2960.62 1880.59,2956.74 1881.13,2951.95C1882.23,2942.12 1881.76,2929.25 1879.83,2914.6C1872.05,2855.74 1840.86,2768.61 1782.23,2729.43C1767.45,2719.56 1754.83,2710.66 1744.23,2702.62C1707.65,2708.97 1670.48,2713.55 1632.78,2716.25C1626,2728.34 1614.28,2744.33 1597.04,2765.36C1590.38,2773.49 1584.77,2788.97 1579.93,2807.16C1572.04,2836.86 1567,2873.58 1566.78,2901.42C1566.7,2910.76 1567.16,2919.03 1568.32,2925.56C1568.88,2928.69 1570.38,2932.74 1570.62,2933.37C1589.86,2951.21 1603.07,2967.64 1609.53,2981.56C1615.24,2993.86 1616.11,3004.87 1613.1,3014.12C1609.98,3023.73 1602.63,3032.16 1589.5,3038.01C1575.07,3044.44 1552.05,3047.97 1519.16,3046.97C1486.59,3045.98 1464.05,3041.34 1450.17,3034.36C1437.38,3027.93 1430.56,3019.25 1428.02,3009.61C1425.58,3000.37 1427.07,2989.55 1433.5,2977.61C1440.75,2964.13 1454.89,2948.32 1475.13,2931.01C1476.38,2929.95 1477.35,2927.98 1478.49,2925.57C1481.34,2919.56 1483.81,2911.27 1485.75,2901.54C1493.67,2861.81 1492.75,2798.65 1463.05,2760.51C1447.33,2740.33 1436.66,2724.67 1430.4,2712.65C1404.47,2709.86 1378.8,2706.18 1353.47,2701.64C1343.25,2713.12 1329.86,2726.65 1313.07,2742.69C1302.73,2752.58 1291.95,2772.73 1281.67,2796.88C1265.31,2835.34 1250.98,2883.82 1244.6,2921.29C1242.01,2936.5 1240.7,2949.78 1241.31,2959.59C1241.55,2963.37 1241.59,2966.4 1242.83,2968.12C1262.48,2995.27 1275.13,3019.31 1280.01,3038.82C1283.97,3054.68 1282.99,3068.12 1277.8,3078.77C1272.34,3090 1262.18,3098.73 1246.11,3103.56C1227.16,3109.25 1198.4,3109.39 1158.57,3101.76C1119.1,3094.21 1092.62,3083.86 1077.21,3072.01C1063.99,3061.85 1057.76,3050.22 1056.8,3037.96C1055.9,3026.39 1059.89,3013.68 1069.41,3000.4C1081.03,2984.19 1101.52,2966.34 1129.65,2947.6C1133.68,2944.92 1137.62,2938.29 1142,2929.47C1148.19,2917.01 1154.2,2900.45 1159.09,2881.61C1146.58,2882.35 1133.34,2880.9 1119.97,2877.25C1115.79,2876.28 1112.13,2875.19 1109.13,2874.12C1105.92,2872.97 1102.11,2871.38 1097.95,2869.34C1066.3,2855.25 1046.19,2833.39 1039.53,2807.62C1035.37,2793.8 1035.06,2778.15 1041.25,2760.8C1041.98,2758.76 1042.78,2756.75 1043.65,2754.78C1046.5,2747.6 1050.38,2741.05 1055.1,2735.18C1075.44,2707.61 1109.85,2688.52 1133.24,2667.32C1127.71,2653.97 1123.96,2642.82 1121.83,2633.6C1077.36,2615.09 1034.33,2593.78 992.981,2569.92C980.802,2578.93 961.744,2589.59 934.438,2602.92C924.231,2607.9 910.769,2620.62 896.445,2636.47C873.396,2661.97 848.844,2695.68 833.227,2722.89C826.929,2733.86 822.102,2743.68 819.662,2751.32C818.917,2753.65 818.399,2757.01 818.325,2757.51C824.409,2783.48 826.347,2805.29 824.055,2821.67C822.156,2835.24 817.328,2845.61 810.267,2852.72C802.57,2860.47 792.099,2864.87 778.323,2864.59C762.573,2864.26 741.22,2857.16 714.082,2840.92C687.202,2824.83 670.873,2809.75 663.091,2796.41C656.184,2784.57 655.029,2773.43 658.161,2763.1C661.009,2753.7 667.78,2744.65 678.842,2736.56C692.141,2726.83 712.342,2718.04 738.385,2710.48C740.182,2709.96 742.245,2708.38 744.756,2706.36C750.583,2701.68 757.376,2694.56 764.529,2685.73C793.38,2650.12 827.825,2587.3 824.162,2535.86C821.928,2504.49 821.986,2482.43 824.342,2467.73C825.212,2462.31 826.449,2457.68 827.97,2453.76C776.411,2410.06 728.851,2361.78 685.906,2309.52C682.074,2312.03 678.455,2314.69 675.086,2317.5C645.68,2342.03 647.557,2374.88 643.869,2404.23C640.711,2429.36 634.423,2452.45 613.376,2470.01C599.228,2481.81 583.36,2486.14 567.076,2485.43C536.068,2485 500.532,2465.5 469.975,2432.76C466.09,2428.84 462.773,2425.18 460.141,2422.02C457.325,2418.65 454.078,2414.42 450.653,2409.53C423.811,2373.46 412.15,2338.55 415.883,2310.17C417.394,2293.23 424.227,2277.69 438.848,2265.49C440.588,2264.04 442.388,2262.68 444.251,2261.42C450.7,2256.56 458.003,2253.12 465.96,2251.06C495.769,2241.65 534.347,2246.29 567.001,2246.49C584.211,2246.6 599.561,2246.09 609.095,2238.14C613.01,2234.87 617.203,2229.68 621.637,2223.23C604.266,2197.42 587.943,2170.85 572.742,2143.59C567.963,2144.59 562.314,2144.96 555.672,2144.52C538.789,2143.38 513.303,2137.07 476.766,2125.49C464.167,2121.5 443.553,2122.12 420.194,2125.04C382.663,2129.74 338.498,2141.02 306.71,2153.75C293.962,2158.86 283.29,2164.11 276.195,2169.32C273.72,2171.14 271.574,2172.45 270.956,2174.14C259.943,2204.39 247.739,2227.09 235.151,2240.86C224.508,2252.5 213.139,2258.38 201.869,2259.16C190.294,2259.96 178.128,2255.6 166.123,2243.95C152.313,2230.55 137.843,2206.07 123.755,2168.4C109.795,2131.08 104.433,2103.47 105.772,2084.59C106.948,2067.99 113.07,2056.82 122.162,2049.89C130.973,2043.17 143.26,2040.15 158.931,2041.92C177.312,2044 201.468,2052.88 230.135,2067.95C232.22,2069.04 235.32,2069.41 239.1,2069.64C247.431,2070.14 258.208,2069.14 270.398,2066.82C319.728,2057.4 391.601,2026.49 421.165,1973.89C436.849,1945.98 449.572,1926.36 460.197,1913.84C464.636,1908.61 468.858,1904.48 472.842,1901.32C454.305,1835.14 441.706,1766.51 435.652,1696.03C396.623,1691.51 346.378,1692.37 314.606,1698.03C307.818,1699.24 301.945,1700.65 297.356,1702.33C295.319,1703.07 292.662,1704.56 292.227,1704.8C275.521,1725.85 259.595,1740.88 245.433,1749.05C233.502,1755.93 222.338,1758.29 212.441,1756.76C201.813,1755.1 192.09,1749.14 184.158,1737.46C175.192,1724.25 168.221,1702.26 164.916,1669.95C161.642,1637.94 163.74,1615.25 169.521,1600.68C174.707,1587.62 182.838,1579.85 192.774,1576.1C201.959,1572.63 213.238,1572.67 226.325,1576.99C241.791,1582.09 260.625,1593.52 281.922,1610.58C285.98,1613.84 295.4,1615.31 307.586,1616.44C340.39,1619.48 390.912,1615.06 431.499,1597.41C431.575,1540.99 435.837,1485.54 443.997,1431.29C435.069,1421.71 424.989,1410.12 413.542,1396.39C403.6,1384.47 381.684,1371.23 355.55,1358.55C336.421,1363.15 319.085,1371.98 301.59,1378.17C279.306,1386.06 256.836,1390.04 231.444,1381.11C212.863,1374.58 200.027,1362.95 191.411,1348.61C186.253,1340.58 182.341,1331.47 179.696,1321.53C157.917,1333.92 138.648,1341.78 122.686,1344.71C106.675,1347.65 93.393,1345.8 83.16,1339.95C72.389,1333.79 64.38,1323.12 60.654,1306.8C56.269,1287.59 58.026,1258.98 68.195,1219.85C78.164,1181.5 89.992,1155.95 102.575,1141.32C113.355,1128.78 125.131,1123.16 137.159,1122.7C148.658,1122.26 160.94,1126.73 173.446,1136.71C184.732,1145.72 196.597,1159.62 208.76,1177.9C224.396,1152.96 243.562,1136.03 264.42,1128.2C280.418,1121.41 298.183,1119.77 317.392,1126.52C319.682,1127.32 321.922,1128.23 324.118,1129.23C332.104,1132.44 339.307,1137.08 345.648,1142.93C363.748,1158.01 378.153,1179.99 391.461,1201.89C401.975,1219.2 411.715,1236.45 422.782,1248.96C434.242,1247.04 445.257,1244.03 455.483,1239.68C470.852,1233.15 484.305,1227.83 496.033,1223.69C515.998,1167.59 540.312,1113.56 568.571,1061.99C551.337,1050.26 534.54,1040.37 521.135,1034.45C516.455,1032.39 512.262,1030.83 508.695,1029.97C507.322,1029.65 505.301,1029.45 504.904,1029.41C478.989,1036.54 457.255,1039.27 441.001,1037.5C427.309,1036.01 416.904,1031.32 409.824,1024.24C402.222,1016.63 397.898,1006.07 398.395,991.96C398.956,976.008 406.314,954.146 422.728,926.115C438.986,898.351 454.079,881.275 467.344,872.935C479.242,865.456 490.395,863.981 500.628,866.823C510.087,869.45 519.167,876.141 527.18,887.353C536.649,900.603 545.102,920.945 552.212,947.295C553.301,951.331 558.158,956.494 564.719,962.8C575.303,972.974 590.57,984.466 608.364,994.997C642.953,941.12 682.031,890.395 725.071,843.353C724.429,839.093 723.79,834.669 723.147,830.073C721.515,818.391 714.29,802.355 704.159,784.495C689.207,781.573 675.238,775.547 662.75,763.543C649.365,750.678 643.23,735.313 642.061,719.007C641.361,712.156 641.532,705.019 642.551,697.687C626.59,678.909 610.784,662.728 597.686,652.512C593.54,649.278 589.732,646.685 586.325,644.941C584.664,644.091 583.336,643.274 582.141,643.283C548.8,643.538 522.023,639.913 503.435,632.603C488.285,626.646 477.978,618.067 472.38,607.692C466.487,596.772 465.319,583.483 470.772,567.655C477.189,549.029 493.79,525.657 523.087,497.798C552.116,470.193 575.855,454.713 594.371,449.068C610.285,444.215 623.316,445.898 633.793,452.205C643.688,458.163 651.652,468.748 656.855,484.17C663.19,502.944 665.697,529.844 664.476,563.447C664.339,567.221 666.383,572.432 669.395,578.814C673.718,587.973 680.329,598.718 688.732,610.132C690.237,608.418 691.675,606.856 693.019,605.458C696.066,602.287 699.915,598.596 704.407,594.658C737.334,564.033 770.857,548.706 799.641,549.467C816.675,549.202 832.942,554.372 846.772,567.666C848.418,569.248 849.978,570.9 851.456,572.623C857.034,578.544 861.306,585.466 864.274,593.184C873.181,613.146 876.039,637.884 877.918,662.198C878.979,675.921 879.694,689.485 881.471,701.652C936.968,660.123 996.436,623.622 1059.2,592.824C1048.75,570.577 1037.1,549.649 1026.63,535.022C1022.92,529.832 1019.4,525.492 1016.15,522.325C1014.76,520.969 1012.53,519.375 1012.14,519.101C986.017,512.813 965.674,504.7 952.301,495.296C941.034,487.374 934.19,478.243 931.416,468.619C928.437,458.284 929.752,446.953 937.007,434.839C945.208,421.145 962.214,405.561 990.131,388.953C1017.78,372.503 1039.25,364.847 1054.89,363.957C1068.92,363.158 1079.4,367.258 1086.98,374.691C1094,381.562 1098.71,391.808 1100.31,405.495C1102.19,421.672 1099.76,443.566 1093.26,470.071C1092.02,475.079 1094.62,484.141 1098.66,495.548C1105.31,514.291 1117.2,537.748 1132.87,559.919C1157.87,549.818 1183.33,540.595 1209.19,532.292C1210.37,530.092 1211.59,527.847 1212.84,525.555C1219.25,513.817 1222.68,493.173 1224.38,469.326C1227.12,431.06 1224.66,384.867 1218.36,350.692C1215.83,336.963 1212.74,325.273 1208.99,317.153C1207.66,314.278 1206.78,311.854 1205.2,310.882C1177.62,293.86 1157.7,277.181 1146.63,261.912C1137.32,249.072 1133.77,236.674 1135.2,225.389C1136.68,213.759 1143.35,202.603 1157.12,193.047C1173.01,182.019 1199.93,172.566 1239.76,166.15C1279.22,159.792 1307.44,160.027 1325.76,165.163C1341.81,169.662 1351.59,177.946 1356.61,188.347C1361.46,198.392 1362,211.126 1357.23,226.247C1351.59,244.079 1338.13,266.269 1317.71,291.699C1316.24,293.535 1315.28,296.498 1314.31,300.157C1312.19,308.194 1311.05,318.909 1310.91,331.277C1310.36,379.592 1325.01,452.465 1365.92,494.246C1426.35,484.143 1488.38,478.889 1551.63,478.889C1563.8,478.889 1575.93,479.083 1588.01,479.47C1588.24,477.558 1588.41,475.657 1588.54,473.767C1590.79,440.329 1573.24,419.087 1556.37,398.897C1535.09,373.444 1514.91,349.159 1517.28,313.928C1518.58,294.593 1526.75,279.375 1539,267.49C1561.83,243.979 1602.41,231.021 1649.43,231.526C1655.24,231.417 1660.42,231.549 1664.74,231.839C1669.35,232.149 1674.93,232.752 1681.14,233.708C1727.99,239.504 1762.96,256.067 1781.78,279.722C1793.43,293.16 1800.23,309.639 1798.88,329.636C1798.72,332.022 1798.45,334.387 1798.06,336.733C1797.07,345.156 1794.41,353.205 1790.24,360.746C1775.73,390.611 1744.12,416.881 1720.22,441.875C1707.41,455.27 1696.54,467.735 1695.64,481.125C1695.51,483.209 1695.56,485.544 1695.78,488.099C1742.13,494.064 1787.61,502.87 1832.02,514.335ZM1361.38,508.877C1423.22,498.144 1486.78,492.552 1551.63,492.552C1567.7,492.552 1583.69,492.895 1599.59,493.575C1600.87,487.176 1601.76,480.865 1602.17,474.684C1607.23,399.485 1526.68,377.696 1530.91,314.847C1531.97,299.128 1538.67,286.788 1548.66,277.152C1569.39,255.678 1606.66,244.684 1649.53,245.189C1654.96,245.084 1659.8,245.201 1663.82,245.471C1668.15,245.762 1673.39,246.335 1679.23,247.237C1721.99,252.49 1754.21,266.832 1771.26,288.444C1780.73,299.274 1786.34,312.551 1785.25,328.71C1785.11,330.77 1784.87,332.811 1784.53,334.835C1783.76,341.736 1781.55,348.316 1778.1,354.473C1754.99,402.509 1684.71,440.038 1682.01,480.219C1681.65,485.639 1682.27,492.488 1683.67,500.365C1735.12,506.494 1785.49,516.159 1834.53,529.109C1846.46,520.97 1861.13,511.817 1878.72,501.396C1929.6,471.251 2017.08,300.898 2000.47,269.112C1948.11,168.906 1966.92,118.707 2097.78,170.443C2227.64,221.785 2208.25,267.904 2101.28,307.942C2067.35,320.638 1992.59,462.105 2025.24,561.061C2030.81,577.943 2035.24,592.63 2038.56,605.337C2101.91,636.458 2161.85,673.463 2217.67,715.635C2266.33,682.302 2337.07,604.635 2334.45,582.99C2324.5,500.517 2350.36,467.421 2426.63,528.95C2502.31,590.01 2477.1,620.03 2393.46,629.642C2370.55,632.274 2301.91,699.276 2281.57,767.73C2287.01,772.517 2292.41,777.357 2297.78,782.267C2306.26,744.55 2308.49,707.047 2342.2,680.614C2357.11,668.926 2373.07,664.411 2388.98,664.668C2423.33,664.01 2460.26,684.852 2490.9,719.307C2494.93,723.533 2498.34,727.476 2501.01,730.884C2503.89,734.554 2507.17,739.17 2510.6,744.53C2536.88,782.675 2547.35,819.701 2540.27,850.466C2537.4,866.615 2529.52,881.654 2514.2,893.669C2512.25,895.197 2510.24,896.626 2508.18,897.965C2501.41,902.859 2493.88,906.356 2485.83,908.524C2466.54,914.935 2444.68,916.603 2422.65,916.911C2453.47,956.201 2481.69,997.626 2507.04,1040.89C2513.92,1040.95 2521.23,1041.07 2528.97,1041.25C2589.39,1042.68 2776.88,950.08 2786.51,916.228C2816.86,809.51 2866.74,778.715 2931,886.063C2994.78,992.595 2947.32,1019.82 2836.73,998.1C2801.66,991.209 2644.34,1067.05 2599.69,1162.84C2593.67,1175.77 2588.06,1187.24 2582.81,1197.33C2618.7,1289.28 2642.63,1387.19 2652.7,1489.14C2683.03,1500.57 2714.23,1508.4 2742.46,1508.07C2829.61,1507.03 2847.38,1412.19 2920.22,1411.33C2938.44,1411.11 2953.27,1417.71 2965.29,1428.34C2991.94,1450.27 3008.02,1492.24 3011.35,1541.71C3011.97,1547.96 3012.27,1553.56 3012.33,1558.22C3012.39,1563.23 3012.21,1569.32 3011.7,1576.14C3009.55,1625.91 2995.95,1664.37 2972.59,1685.99C2960.98,1697.9 2946.18,1705.58 2927.45,1705.8C2925.07,1705.83 2922.7,1705.73 2920.35,1705.52C2912.31,1705.27 2904.52,1703.33 2897.1,1699.9C2839.61,1677.65 2789.93,1600.06 2743.37,1600.61C2724.71,1600.83 2692.31,1612.3 2657.74,1627.29C2654.88,1741.2 2634.76,1850.86 2599.9,1953.8C2654.35,1983.86 2726.26,2009.82 2743.36,2000.54C2824.1,1956.72 2867.45,1970.41 2832.47,2075.2C2797.75,2179.19 2757.78,2164.94 2717.27,2081.24C2708.03,2062.15 2641.53,2027.93 2574.79,2020.69C2536.32,2113.86 2485.48,2200.64 2424.29,2279.01C2451.63,2308.46 2479.32,2331.64 2491.41,2331.05C2574.39,2327 2605.55,2355.16 2538.75,2426.85C2472.45,2497.99 2444.3,2470.7 2440.67,2386.59C2440.12,2373.77 2420.69,2345.39 2392.05,2318.42C2372,2341.82 2350.98,2364.38 2329.09,2386.01C2364.93,2391.93 2400.16,2394.56 2423.49,2425.2C2434.52,2439.7 2438.07,2455.55 2436.69,2471.54C2434.97,2506 2410.86,2543.93 2373.12,2576.1C2368.47,2580.32 2364.16,2583.9 2360.45,2586.72C2358.64,2588.1 2356.62,2589.57 2354.42,2591.1C2380.53,2641.84 2414.76,2689.52 2432.59,2691.34C2532.6,2701.54 2560.65,2740.08 2458.18,2811.87C2356.49,2883.11 2331.76,2846.14 2354.42,2747.14C2358.96,2727.34 2333.4,2670.36 2291.45,2624.91C2270.66,2632.06 2251.27,2634.19 2234.17,2630.99C2217.69,2628.75 2202.71,2621.45 2191.37,2606.55C2189.92,2604.65 2188.59,2602.7 2187.35,2600.68C2182.76,2594.08 2179.68,2586.66 2178,2578.66C2176.2,2572.13 2174.99,2565.28 2174.23,2558.2C2155.33,2552.24 2141.39,2546.68 2131.76,2541.18C2076.95,2575.03 2018.95,2604.24 1958.31,2628.24C1954.27,2641.17 1949.08,2656.09 1942.74,2673.21C1921.81,2729.74 1960.78,2922.39 1993.94,2937.44C2098.48,2984.93 2115.44,3037.27 1979.85,3078.59C1845.3,3119.6 1831.37,3070.17 1890.14,2970.1C1908.78,2938.37 1878.08,2777.05 1789.82,2718.08C1773.05,2706.86 1759.1,2696.95 1747.79,2688.12C1707.28,2695.38 1666.02,2700.43 1624.12,2703.15C1618.79,2715.2 1606.47,2732.31 1586.48,2756.7C1559.65,2789.42 1542.16,2925.65 1560.98,2943.05C1620.29,2997.91 1619.81,3036.36 1519.58,3033.31C1420.11,3030.29 1421.97,2994.46 1484.01,2941.4C1503.69,2924.58 1519.63,2810.93 1473.83,2752.12C1455.64,2728.76 1444.46,2711.93 1439.46,2699.86C1408.66,2696.76 1378.22,2692.38 1348.27,2686.81C1337.77,2699.22 1323.02,2714.3 1303.64,2732.81C1263.46,2771.2 1212.34,2949.3 1231.76,2976.14C1293.01,3060.74 1284.07,3111.87 1161.14,3088.34C1039.14,3064.99 1049.2,3017.61 1137.22,2958.98C1150.51,2950.12 1167.52,2911.86 1176.97,2864.78C1160.81,2869.55 1142.2,2869.2 1123.31,2864C1119.61,2863.15 1116.36,2862.2 1113.72,2861.25C1110.87,2860.24 1107.48,2858.81 1103.78,2856.98C1076.29,2844.81 1058.37,2826.32 1052.69,2803.95C1049.21,2792.58 1049.01,2779.7 1054.12,2765.4C1054.76,2763.58 1055.48,2761.81 1056.25,2760.05C1058.64,2753.99 1061.92,2748.46 1065.93,2743.53C1087.83,2713.64 1126.75,2694.09 1149.5,2670.62C1140.64,2650.46 1135.5,2635.16 1133.84,2623.78C1084.58,2603.65 1037.08,2580.07 991.671,2553.35C981.26,2563.13 960.951,2574.77 928.444,2590.64C888.273,2610.25 798.937,2734.77 804.939,2760.26C823.854,2840.63 802.328,2877.8 721.097,2829.19C640.484,2780.95 661.715,2746.95 742.191,2723.6C767.71,2716.2 843.349,2612.94 837.79,2534.89C834.238,2485.01 836.402,2459.82 845.503,2450.64C788.185,2403.05 735.741,2349.79 689.009,2291.69C680.727,2296.29 673.082,2301.38 666.335,2307.01C612.056,2352.28 649.991,2421.68 604.625,2459.51C593.279,2468.98 580.531,2472.38 567.467,2471.77C539.352,2471.47 507.507,2453.01 479.794,2423.26C476.173,2419.61 473.08,2416.2 470.634,2413.27C467.999,2410.11 464.96,2406.15 461.752,2401.56C437.334,2368.81 425.967,2337.39 429.463,2311.68C430.611,2298.16 435.94,2285.71 447.599,2275.99C449.082,2274.75 450.62,2273.6 452.212,2272.52C457.398,2268.57 463.309,2265.81 469.752,2264.19C517.423,2248.92 588.844,2272.82 617.847,2248.63C623.965,2243.53 630.865,2234.49 638.065,2223.11C616.696,2191.91 596.883,2159.55 578.755,2126.19C568.223,2135.88 539.342,2131 480.895,2112.47C431.26,2096.74 268.944,2139.73 258.117,2169.47C223.981,2263.22 180.269,2280.49 136.552,2163.62C93.167,2047.63 134.575,2033.16 223.778,2080.04C252.064,2094.91 388.102,2060.6 433.075,1980.58C458.263,1935.77 475.332,1913.01 488.776,1907.4C467.959,1835.62 454.224,1760.87 448.374,1683.92C389.145,1675.01 294.574,1679.84 281.772,1696C230.195,1761.12 188.479,1766.04 178.508,1668.56C168.614,1571.82 207.684,1568.6 273.377,1621.24C290.898,1635.29 382.275,1637.18 445.18,1606.13C445.166,1603.78 445.158,1601.4 445.158,1599.02C445.158,1540.46 449.718,1482.95 458.512,1426.77C448.654,1416.5 437.279,1403.52 424.035,1387.64C412.738,1374.09 387.393,1358.53 357.213,1344.18C314.165,1352.88 280.191,1383.76 235.975,1368.22C220.654,1362.84 210.083,1353.24 203.013,1341.39C195.515,1329.79 191.144,1315.54 189.729,1299.7C189.047,1299.99 188.425,1300.32 187.862,1300.67C100.063,1356.2 50.03,1344.06 81.419,1223.29C112.261,1104.62 157.905,1116.22 209.529,1205.06C225.028,1172.05 245.785,1149.68 269.476,1140.89C282.567,1135.27 297.118,1133.88 312.861,1139.41C314.864,1140.11 316.821,1140.91 318.739,1141.79C325.399,1144.43 331.383,1148.3 336.637,1153.2C370.913,1181.55 390.372,1236.84 417.778,1263.52C432.933,1261.55 447.489,1257.93 460.826,1252.26C478.661,1244.68 493.858,1238.76 506.727,1234.44C528.215,1172.91 554.99,1113.86 586.507,1057.83C550.691,1032.27 514.255,1012.66 501.654,1016.14C421.576,1038.24 385.004,1017.58 434.519,933.019C483.657,849.103 517.09,869.574 539.021,950.854C542.734,964.62 573.376,992.016 612.951,1013.28C649.956,954.136 692.397,898.731 739.569,847.776C738.605,841.619 737.645,835.098 736.679,828.183C734.71,814.086 725.668,794.044 712.771,772.07C698.058,770.083 684.279,765.286 672.218,753.692C661.452,743.344 656.578,730.96 655.674,717.838C654.867,710.165 655.376,702.073 657.083,693.733C627.023,657.617 596.604,629.508 582.036,629.62C478.155,630.415 442.076,593.688 532.502,507.699C622.241,422.365 654.639,457.848 650.822,562.95C650.342,576.148 664.788,603.163 688.358,631.9C690.158,629.63 692.024,627.372 693.953,625.129C697.184,621.126 700.223,617.679 702.869,614.926C705.718,611.962 709.326,608.509 713.538,604.822C743.414,576.985 773.469,562.332 799.554,563.131C813.189,562.861 826.241,566.883 837.304,577.516C838.711,578.869 840.041,580.285 841.299,581.764C845.847,586.533 849.284,592.152 851.652,598.421C868.528,635.818 861.413,691.583 872.89,725.381C935.908,676.34 1004.35,633.963 1077.17,599.306C1056.94,553.449 1030.11,509.357 1015.72,505.911C934.935,486.56 912.903,450.796 997.116,400.695C1080.69,350.975 1100.07,385.055 1079.99,466.811C1075.99,483.061 1095.4,533.668 1128.17,576.606C1157.69,564.346 1187.87,553.33 1218.62,543.628C1220.59,539.923 1222.66,536.084 1224.83,532.102C1250.02,485.95 1239.51,316.004 1212.38,299.256C1126.84,246.451 1118.41,199.539 1241.93,179.639C1364.51,159.891 1370.64,203.95 1307.06,283.145C1287.15,307.949 1293.85,446.867 1361.38,508.877ZM2392.82,2338.38C2381.28,2351.49 2369.44,2364.34 2357.31,2376.89C2384.35,2381.89 2409.51,2389.3 2428.81,2410.3C2427.97,2403.12 2427.38,2395.4 2427.02,2387.18C2426.87,2383.55 2423.97,2378.44 2419.99,2372.07C2413.74,2362.1 2404.36,2350.33 2392.82,2338.38Z" style="fill:rgb(191,191,191);"/>
    </g>
    <g transform="matrix(3.00178,0,0,3.00178,252.952,195.739)">
        <path d="M1102.25,1192.59C1102.25,1209.67 1084.17,1223.48 1061.87,1223.48C1061.87,1223.48 900.379,1255.44 750.769,1255.44C632.358,1255.44 441.123,1223.48 441.123,1223.48C418.848,1223.48 400.774,1209.67 400.774,1192.59L400.774,902.364C400.774,885.246 418.847,871.477 441.123,871.477C441.123,871.477 623.77,903.082 750.769,901.457C874.527,899.873 1061.87,871.477 1061.87,871.477C1084.17,871.477 1102.25,885.246 1102.25,902.364L1102.25,1192.59Z" style="fill:rgb(0,183,163);fill-rule:nonzero;"/>
        <path d="M451.286,939.711C450.667,941.71 448.454,942.803 446.345,942.15L140.582,848.203C138.472,847.55 137.263,845.398 137.881,843.399L133.772,809.4C134.391,807.4 136.604,806.308 138.714,806.962L457.648,905.619C459.758,906.272 460.967,908.423 460.349,910.423L451.286,939.711Z" style="fill:rgb(0,183,163);fill-rule:nonzero;"/>
        <g transform="matrix(1,0,0,1,10.6699,0)">
            <path d="M642.712,1121.81C643.343,1123.81 642.147,1125.97 640.041,1126.63L334.21,1225.76C332.104,1226.42 329.884,1225.34 329.254,1223.35L304.381,1196.59C303.75,1194.59 304.946,1192.43 307.052,1191.77L628.516,1090.17C630.622,1089.5 632.842,1090.58 633.473,1092.58L642.712,1121.81Z" style="fill:rgb(0,183,163);fill-rule:nonzero;"/>
        </g>
        <path d="M1054.15,939.711C1054.77,941.71 1056.98,942.803 1059.09,942.15L1371.01,846.578C1373.12,845.925 1373.23,844.263 1373.71,841.774L1377.98,807.833C1378.09,805.842 1378.23,803.952 1376.12,804.606L1047.79,905.619C1045.68,906.272 1044.47,908.423 1045.09,910.423L1054.15,939.711Z" style="fill:rgb(0,183,163);fill-rule:nonzero;"/>
        <path d="M857.287,1121.81C856.656,1123.81 857.853,1125.97 859.959,1126.63L1163.51,1224.72C1165.62,1225.39 1167.83,1224.31 1168.46,1222.31L1195.62,1196.59C1196.25,1194.59 1195.05,1192.43 1192.95,1191.77L871.482,1090.17C869.377,1089.5 867.156,1090.58 866.525,1092.58L857.287,1121.81Z" style="fill:rgb(0,183,163);fill-rule:nonzero;"/>
    </g>
    <g transform="matrix(2.815,0,0,2.815,415.537,339.791)">
        <path d="M434.723,844.698C276.066,844.698 146.916,715.62 146.916,556.879C146.916,398.191 276.041,269.072 434.723,269.072C593.4,269.072 722.458,398.235 722.458,556.879C722.458,715.62 593.4,844.698 434.723,844.698Z" style="fill:white;fill-rule:nonzero;"/>
        <path d="M432.565,405.891C520.937,405.891 592.552,477.503 592.552,565.834C592.552,654.163 520.937,725.774 432.565,725.774C344.231,725.774 272.601,654.162 272.601,565.834C272.601,477.503 344.23,405.891 432.565,405.891Z" style="fill:rgb(35,31,32);fill-rule:nonzero;"/>
        <path d="M473.213,473.724C495.735,473.724 513.994,491.997 513.994,514.5C513.994,536.979 495.735,555.325 473.213,555.325C450.707,555.325 432.419,536.979 432.419,514.5C432.419,491.998 450.708,473.724 473.213,473.724Z" style="fill:white;fill-rule:nonzero;"/>
        <path d="M430.122,291.427C576.187,291.427 694.395,409.697 694.395,555.735C694.395,611.703 676.984,663.616 647.272,706.344C599.556,774.965 520.115,819.899 430.122,819.899C284.234,819.899 165.941,701.632 165.941,555.671C165.927,409.696 284.234,291.427 430.122,291.427M430.122,244.354C258.493,244.354 118.848,384.031 118.848,555.671C118.848,727.303 258.493,866.966 430.122,866.966C601.803,866.966 741.457,727.303 741.457,555.631C741.48,383.987 601.838,244.354 430.122,244.354Z" style="fill:rgb(89,89,89);fill-rule:nonzero;"/>
    </g>
    <g transform="matrix(2.815,0,0,2.815,415.537,339.791)">
        <path d="M1051.61,844.698C892.948,844.698 763.857,715.62 763.857,556.879C763.857,398.235 892.907,269.072 1051.61,269.072C1210.28,269.072 1339.45,398.167 1339.45,556.879C1339.45,715.62 1210.28,844.698 1051.61,844.698Z" style="fill:white;fill-rule:nonzero;"/>
        <path d="M1053.77,405.891C1142.13,405.891 1213.75,477.503 1213.75,565.834C1213.75,654.217 1142.13,725.827 1053.77,725.827C965.397,725.827 893.762,654.217 893.762,565.834C893.762,477.503 965.396,405.891 1053.77,405.891Z" style="fill:rgb(35,31,32);fill-rule:nonzero;"/>
        <path d="M1013.11,473.724C1035.64,473.724 1053.92,491.936 1053.92,514.5C1053.92,536.979 1035.64,555.325 1013.11,555.325C990.597,555.325 972.321,536.979 972.321,514.5C972.321,491.937 990.598,473.724 1013.11,473.724Z" style="fill:white;fill-rule:nonzero;"/>
    </g>
    <g transform="matrix(2.815,0,0,2.815,415.537,339.791)">
        <path d="M1056.18,291.427C1202.08,291.427 1320.41,409.697 1320.37,555.671C1320.37,701.585 1202.08,819.899 1056.18,819.899C910.179,819.899 791.93,701.55 791.93,555.671C791.952,409.696 910.144,291.427 1056.18,291.427M1056.18,244.354C884.501,244.354 744.868,383.988 744.868,555.631C744.868,727.304 884.524,866.966 1056.18,866.966C1227.83,866.966 1367.48,727.303 1367.48,555.671C1367.48,384.031 1227.83,244.354 1056.18,244.354Z" style="fill:rgb(89,89,89);fill-rule:nonzero;"/>
    </g>
    <defs>
        <radialGradient id="_Radial1" cx="0" cy="0" r="1" gradientUnits="userSpaceOnUse" gradientTransform="matrix(1470.17,0,0,1472.14,1542.17,1621.94)"><stop offset="0" style="stop-color:rgb(151,255,0);stop-opacity:1"/><stop offset="0.63" style="stop-color:rgb(52,255,0);stop-opacity:1"/><stop offset="1" style="stop-color:rgb(0,149,0);stop-opacity:1"/></radialGradient>
    </defs>
</svg>
