<?xml version="1.0" encoding="UTF-8" standalone="no"?>
<!-- Generator: Adobe Illustrator 22.0.1, SVG Export Plug-In . SVG Version: 6.00 Build 0)  -->

<svg
   xmlns:dc="http://purl.org/dc/elements/1.1/"
   xmlns:cc="http://creativecommons.org/ns#"
   xmlns:rdf="http://www.w3.org/1999/02/22-rdf-syntax-ns#"
   xmlns:svg="http://www.w3.org/2000/svg"
   xmlns="http://www.w3.org/2000/svg"
   xmlns:sodipodi="http://sodipodi.sourceforge.net/DTD/sodipodi-0.dtd"
   xmlns:inkscape="http://www.inkscape.org/namespaces/inkscape"
   version="1.1"
   id="Capa_1"
   x="0px"
   y="0px"
   viewBox="0 0 1096.8 595.3"
   style="enable-background:new 0 0 1096.8 595.3;"
   xml:space="preserve"
   sodipodi:docname="s_distance.svg"
   inkscape:version="0.92.5 (2060ec1f9f, 2020-04-08)"><metadata
   id="metadata433"><rdf:RDF><cc:Work
       rdf:about=""><dc:format>image/svg+xml</dc:format><dc:type
         rdf:resource="http://purl.org/dc/dcmitype/StillImage" /><dc:title /></cc:Work></rdf:RDF></metadata><defs
   id="defs431"><style
     id="style1632">.cls-1{fill:#f8f8ff;}.cls-2{fill:#bac5f4;}.cls-3{fill:#e1e6fb;}</style></defs><sodipodi:namedview
   pagecolor="#ffffff"
   bordercolor="#666666"
   borderopacity="1"
   objecttolerance="10"
   gridtolerance="10"
   guidetolerance="10"
   inkscape:pageopacity="0"
   inkscape:pageshadow="2"
   inkscape:window-width="1680"
   inkscape:window-height="1013"
   id="namedview429"
   showgrid="false"
   inkscape:zoom="0.31637489"
   inkscape:cx="-23.706066"
   inkscape:cy="285.00676"
   inkscape:window-x="1600"
   inkscape:window-y="0"
   inkscape:window-maximized="1"
   inkscape:current-layer="layer2" />
<style
   type="text/css"
   id="style2">
	.st0{fill:#D5F7F7;}
	.st1{fill:#FFFFFF;}
	.st2{fill:#55514B;}
	.st3{fill:#42403C;}
	.st4{fill:#64431F;}
	.st5{fill:#64431F;}
	.st6{fill:#6C7C9E;}
	.st7{fill:#CABA9F;}
	.st8{fill:#B1B1B1;}
	.st9{fill:#3C3C3B;}
	.st10{fill:#1D1D1B;}
	.st11{fill:#3A2612;}
	.st12{fill:#C5CF83;}
	.st13{fill:#D9D9D9;}
	.st14{opacity:0.65;fill:#575756;}
	.st15{fill:#ECECEC;}
	.st16{opacity:0.56;fill:#D9D9D9;}
	.st17{fill:#9C9B9B;}
	.st18{fill:#6F6F6E;}
	.st19{fill:#575756;}
	.st20{fill:#422918;}
	.st21{fill:#35A8E0;}
	.st22{fill:#F5F5F5;}
	.st23{fill:none;stroke:#A37648;stroke-width:5;stroke-miterlimit:10;}
	.st24{fill:#997047;}
	.st25{fill:#7F5E40;}
	.st26{fill:#B17F49;}
	.st27{fill:#A8182A;}
	.st28{fill:#BD1622;}
	.st29{fill:#D3AC2F;}
	.st30{fill:#C19C33;}
	.st31{fill:#2E7099;}
	.st32{fill:#C69C73;}
	.st33{fill:none;}
	.st34{fill:none;stroke:#71AAA6;stroke-width:10;stroke-linecap:round;stroke-miterlimit:10;}
</style>

























































<g
   inkscape:groupmode="layer"
   id="layer1"
   inkscape:label="bg"
   style="display:inline"
   sodipodi:insensitive="true" /><g
   inkscape:groupmode="layer"
   id="layer2"
   inkscape:label="people"
   style="display:inline"><g
     data-name="Layer 1"
     id="Layer_1"
     transform="matrix(2.0975837,0,0,1.5956263,4.5871447,6.2495542)"><path
       id="path1638"
       transform="translate(-834.52,-361.14)"
       d="m 884,552 c -7.73,-51.51 -25,-56 -38.28,-82 -12.09,-23.65 -21.84,-62.34 12.28,-90 53,-43 118,1 118,1 0,0 103,59 121,62 18,3 62,33 117,-3 55,-36 102,-33 117,-6 15,27 -19,105 -27,121 -8,16 4,66 17,86 13,20 54,82 -34,80 -88,-2 -352,1 -352,1 0,0 -94.77,-1.77 -78,-94 14,-77 30,-56 27,-76 z"
       class="cls-1"
       inkscape:connector-curvature="0"
       style="fill:#f8f8ff" /><circle
       id="circle1640"
       r="20"
       cy="163.86"
       cx="83.480003"
       class="cls-2"
       style="fill:#bac5f4" /><circle
       id="circle1642"
       r="13.5"
       cy="188.36"
       cx="49.98"
       class="cls-2"
       style="fill:#bac5f4" /><circle
       id="circle1644"
       r="7.5"
       cy="157.36"
       cx="51.98"
       class="cls-2"
       style="fill:#bac5f4" /><circle
       id="circle1646"
       r="20"
       cy="298.85999"
       cx="495.48001"
       class="cls-2"
       style="fill:#bac5f4" /><circle
       id="circle1648"
       r="7.5"
       cy="62.360001"
       cx="14.98"
       class="cls-2"
       style="fill:#bac5f4" /><circle
       id="circle1650"
       r="35.5"
       cy="297.35999"
       cx="139.98"
       class="cls-3"
       style="fill:#e1e6fb" /><circle
       id="circle1652"
       r="24"
       cy="325.85999"
       cx="374.48001"
       class="cls-3"
       style="fill:#e1e6fb" /><circle
       id="circle1654"
       r="13"
       cy="201.86"
       cx="466.48001"
       class="cls-3"
       style="fill:#e1e6fb" /><circle
       id="circle1656"
       r="26"
       cy="84.860001"
       cx="369.48001"
       class="cls-3"
       style="fill:#e1e6fb" /><circle
       id="circle1658"
       r="12.5"
       cy="15.36"
       cx="130.98"
       class="cls-3"
       style="fill:#e1e6fb" /><circle
       id="circle1660"
       r="12.5"
       cy="264.35999"
       cx="90.980003"
       class="cls-3"
       style="fill:#e1e6fb" /><circle
       id="circle1662"
       r="12.5"
       cy="119.36"
       cx="493.98001"
       class="cls-2"
       style="fill:#bac5f4" /><circle
       id="circle1664"
       r="13.5"
       cy="331.35999"
       cx="473.98001"
       class="cls-2"
       style="fill:#bac5f4" /><circle
       id="circle1666"
       r="7.5"
       cy="338.35999"
       cx="503.98001"
       class="cls-2"
       style="fill:#bac5f4" /></g><g
     id="g6463"
     transform="matrix(1,0,0,0.9377812,16.293946,-612.69935)"><g
       id="g5979"
       transform="translate(53.73372,666.93029)">
	<polygon
   id="polygon5821"
   points="229.3,428.4 215.5,428 211.2,427.9 211.2,427.8 216.4,426.2 218.1,426.2 229.3,426.6 230.5,426.6 230.5,428.5 "
   class="st1"
   style="fill:#ffffff" />
	<polygon
   id="polygon5823"
   points="249.3,428 235.6,428.4 234.2,428.5 234.1,426.6 235.6,426.6 246.8,426.2 248,426.2 252.2,427.5 252.2,427.9 "
   class="st1"
   style="fill:#ffffff" />
	<path
   id="path5825"
   d="m 230.5,428.5 v 17.7 l -31.8,0.9 c -7,-1.4 -8.7,-10.8 -2.5,-14.5 l 15,-4.7 v 0.1 l 4.3,0.1 13.8,0.4 z"
   class="st2"
   inkscape:connector-curvature="0"
   style="fill:#55514b" />
	<path
   id="path5827"
   d="m 265.7,447 -31.8,-0.9 v -19.5 h 0.1 v 1.9 l 1.5,-0.1 13.7,-0.5 2.9,-0.1 v -0.4 l 16.1,5 c 6.2,3.9 4.6,13.2 -2.5,14.6 z"
   class="st2"
   inkscape:connector-curvature="0"
   style="fill:#55514b" />
	<path
   id="path5829"
   d="m 211.2,427.9 2,0.1 c -2,3.3 -14.5,19.1 -14.5,19.1 -7,-1.4 -8.7,-10.8 -2.5,-14.5 z"
   class="st3"
   inkscape:connector-curvature="0"
   style="fill:#42403c" />
	<path
   id="path5831"
   d="m 230.5,428.5 v 17.7 h -0.9 c -0.6,-1.6 -1,-3.3 -1.4,-4.9 -0.6,-3 -1,-6.2 -1.1,-9.3 0,-1.2 0,-2.4 0,-3.6 l 2.2,0.1 z"
   class="st2"
   inkscape:connector-curvature="0"
   style="fill:#55514b" />
	<polygon
   id="polygon5833"
   points="249.3,428 252.2,427.9 252.2,427.5 234,446.1 234,426.6 234.1,426.6 234.2,428.5 235.6,428.4 "
   class="st3"
   style="fill:#42403c" />
	<path
   id="path5835"
   d="m 273.4,311.2 c 1.1,17.2 -8.3,27.2 -12.4,25.3 -3.5,-1.7 1.3,-9.8 2.7,-12.1 0.5,-0.8 0,-2 -0.9,-2.1 -0.2,0 -0.4,0 -0.6,0.1 -8,2.8 0.6,-11 1,-14.9 1.4,-12.3 -1.6,-39.7 -4.2,-59.3 -0.3,-2.1 -3.2,-2.4 -3.9,-0.4 -0.4,1.2 -0.7,2.6 -0.8,4 l -1.6,42.5 -0.8,17 -5.2,114.9 v 0.2 c 0,0.5 1.1,1 2.5,1.5 l -13.7,0.5 V 326.7 c 0,-1.6 -1.3,-2.9 -2.9,-2.9 -0.1,0 -0.1,0 -0.2,0 0,0 0,0 0,0 -0.1,0 -0.2,0 -0.3,0 -1.6,0 -2.9,1.3 -2.9,2.9 V 428.4 L 215.4,428 c 1.4,-0.5 2.6,-1.1 2.6,-1.6 v -0.2 l -5.2,-114.9 -0.8,-17 -1.6,-42.5 v -0.1 c -0.1,-2.5 -3.7,-2.6 -4.1,-0.2 -2.5,19.3 -5.1,44.3 -3.8,56 0.4,3.9 9,17.7 1,14.9 -0.2,-0.1 -0.4,-0.1 -0.6,-0.1 -1,0.1 -1.5,1.2 -0.9,2.1 1.4,2.2 6.3,10.4 2.7,12.1 -4.1,1.9 -13.6,-8.1 -12.4,-25.3 0,0 0,-0.1 0,-0.1 0,0 -0.7,-53.1 -0.5,-78.2 0.1,-7.3 5.6,-13.3 12.8,-14 l 17.1,-1.6 c 0.9,0 1.6,-2.2 2.1,-4.2 0.4,-1.5 -0.3,-3 -1.7,-3.7 -8.3,-3.6 -14.6,-12 -16.2,-22.2 -0.7,0.7 -1.5,1 -2.4,1 -2.5,0 -4.6,-3.2 -4.6,-7.1 0,-3.9 2.1,-7.1 4.6,-7.1 0.9,0 1.8,0.4 2.5,1.2 0.1,-0.5 0.2,-1 0.3,-1.5 v 0 c 3,-12.6 13.1,-21.8 25.1,-21.8 11.9,0 21.9,9.1 25,21.5 0.1,0.5 0.2,1 0.3,1.5 0.7,-0.6 1.4,-0.9 2.3,-0.9 2.5,0 4.6,3.2 4.6,7.1 0,3.9 -2,7.1 -4.6,7.1 -0.8,0 -1.5,-0.3 -2.1,-0.8 -1.7,9.8 -7.5,17.8 -15.3,21.6 -1.4,0.7 -2.1,2.4 -1.6,3.9 0.7,2 1.6,4.3 2.5,4.3 0,0 8.8,0.2 17,0.9 8.1,0.7 14.3,7.6 14.2,15.7 L 273,311 c 0.4,0.2 0.4,0.2 0.4,0.2 z"
   class="st4"
   inkscape:connector-curvature="0"
   style="fill:#64431F" />
	<path
   
   id="path5837"
   d="m 257.2,174.7 c 0,2 -0.6,17.5 -1.2,15.2 -1.8,-6.1 -0.8,-22.6 -9.2,-18.5 -4.6,2.2 -2.9,0.8 -9,0.8 -6.3,0 -9.2,-7.1 -14.5,-7.3 -13.2,-0.6 -12.8,17.1 -14.2,22.3 -0.5,1.8 -2,-11 -2,-12.2 0,-6.4 -3.4,-24.2 3.1,-24.4 2.1,-0.1 9.1,-4.8 9.4,-3 0.1,0.9 0.9,1.4 1.7,1.4 0.6,0 1.1,-0.3 1.5,-0.8 0,0 7.4,-3.8 8.1,-2.7 l 4.7,4.4 c 0.7,1.1 4.9,-3.3 4.9,-3.3 0.6,-1.1 15.1,8.3 15.1,8.3 3.8,3.9 1.6,12.2 1.6,19.8 z"
   class="st5"
   inkscape:connector-curvature="0"
   style="fill:#3a2612" />
	<polygon
   id="polygon5839"
   points="252.2,427.5 252.2,427.9 249.3,428 235.6,428.4 234.2,428.5 234.1,426.6 232.1,327.8 231.2,428.5 230.5,428.5 229.3,428.4 215.5,428 211.2,427.9 211.2,311.3 253.9,311.3 "
   class="st6"
   style="fill:#6c7c9e" />
	<path
   id="path5841"
   d="m 201.9,324.4 c 0.3,0.5 0.8,1.4 1.4,2.4 1.8,3.3 4.1,8.4 1.3,9.7 -0.7,0.3 -1.6,0.3 -2.5,-0.1 -4.4,-1.7 -10.4,-10.4 -10,-23.9 l 10.2,-5.4 c 0,0.1 0,0.2 0,0.3 0.2,1.4 1.3,4.1 2.4,6.8 1.9,4.8 3.6,9.7 -1,8.3 -0.1,0 -0.3,-0.1 -0.4,-0.1 -0.2,-0.1 -0.4,-0.1 -0.6,-0.1 -0.9,0.1 -1.3,1.2 -0.8,2.1 z"
   class="st4"
   inkscape:connector-curvature="0"
   style="fill:#64431F" />
	<path
   id="path5843"
   d="m 263.7,324.5 c -0.3,0.5 -0.8,1.4 -1.4,2.4 -1.8,3.3 -4.1,8.4 -1.3,9.7 0.7,0.3 1.6,0.3 2.5,-0.1 4.4,-1.7 10.4,-10.4 10,-23.9 l -10.2,-5.4 c 0,0.1 0,0.2 0,0.3 -0.2,1.4 -1.3,4.1 -2.4,6.8 -1.9,4.8 -3.6,9.7 1,8.3 0.1,0 0.3,-0.1 0.4,-0.1 0.2,-0.1 0.4,-0.1 0.6,-0.1 0.9,0.1 1.3,1.3 0.8,2.1 z"
   class="st4"
   inkscape:connector-curvature="0"
   style="fill:#64431F" />
	<polygon
   id="polygon5845"
   points="246.1,218.5 231.5,217.3 224.8,217.3 215.2,221.6 219,301 247.1,301.5 "
   class="st7"
   style="fill:#caba9f" />
	<rect
   id="rect5847"
   height="9.8000002"
   width="42.5"
   class="st2"
   y="301.5"
   x="209.8"
   style="fill:#55514b" />
	<g
   id="g5851">
		<path
   id="path5849"
   d="m 224.1,210.3 -11.1,15.8 16.7,-8.9 c 0,0.1 -4.3,0.3 -5.6,-6.9 z"
   class="st8"
   inkscape:connector-curvature="0"
   style="fill:#b1b1b1" />
	</g>
	<g
   id="g5855">
		<path
   id="path5853"
   d="m 240.3,210.3 10.7,15.4 -16.3,-8.4 c -0.1,0 4.3,0.2 5.6,-7 z"
   class="st8"
   inkscape:connector-curvature="0"
   style="fill:#b1b1b1" />
	</g>
	<polygon
   id="polygon5857"
   points="226.1,243.4 227.9,282.4 232.5,291.2 237.1,282.8 238.6,243.4 234.9,226.5 229.6,226.5 "
   class="st5"
   style="fill:#64431f" />
	<path
   id="path5859"
   d="m 232.9,309.1 h -3.3 c -1.5,0 -2.7,-1.2 -2.7,-2.7 V 306 c 0,-1.5 1.2,-2.7 2.7,-2.7 h 3.3 c 1.5,0 2.7,1.2 2.7,2.7 v 0.4 c 0,1.5 -1.2,2.7 -2.7,2.7 z"
   inkscape:connector-curvature="0" />
	<path
   id="path5861"
   d="m 213.8,214.1 -11.6,3.5 c -6.1,1.8 -10.3,7.3 -10.4,13.6 l -2.4,83.1 15.3,-8.1 3.1,-50.3 -1.8,53.2 -9.3,74.4 h 28.2 l -3.4,-110.4 z"
   class="st9"
   inkscape:connector-curvature="0"
   style="fill:#3c3c3b" />
	<path
   id="path5863"
   d="m 252.1,214.1 9.8,3 c 7.1,2.2 12.1,8.6 12.3,16.1 l 2.3,81.2 -15.3,-8.1 -3.1,-50.3 1.7,53.2 9.2,74.4 h -28 l 4,-110.2 z"
   class="st9"
   inkscape:connector-curvature="0"
   style="fill:#3c3c3b" />
	<g
   id="g5867">
		<path
   id="path5865"
   d="m 220.2,214.6 c -1.5,3 -2.1,7.6 -1.9,13.9 0.4,11.2 2.3,31.1 3,45.8 0.2,4.7 -15.3,-35.2 -15.3,-35.2 l 6.6,-9.3 -11.2,-4.1 c 0,0 3.8,-8.6 8.8,-11.1 v 0 c 4.8,-2.3 11.3,-2.4 11.3,-2.4 0,0 -0.3,0.5 -1.3,2.4 z"
   class="st10"
   inkscape:connector-curvature="0"
   style="fill:#1d1d1b" />
	</g>
	<g
   id="g5871">
		<path
   id="path5869"
   d="m 244.8,215.3 c 1.5,3 3.2,6.4 3,12.8 -0.4,11.2 1.3,27.3 -2.7,46.3 -1,4.6 13,-36.5 13,-36.5 l -6.9,-8.8 11.2,-4.1 c 0,0 -3.8,-8.6 -8.8,-11.1 v 0 c -4.8,-2.3 -12.7,-2.2 -12.7,-2.2 0,0 3,1.7 3.9,3.6 z"
   class="st10"
   inkscape:connector-curvature="0"
   style="fill:#1d1d1b" />
	</g>
	<path
   id="path5873"
   d="m 234.4,227.5 h -4.8 c -1.5,0 -2.7,-1.2 -2.7,-2.7 V 220 c 0,-1.5 1.2,-2.7 2.7,-2.7 h 4.8 c 1.5,0 2.7,1.2 2.7,2.7 v 4.8 c 0,1.5 -1.2,2.7 -2.7,2.7 z"
   class="st5"
   inkscape:connector-curvature="0"
   style="fill:#64431f" />
	<path
   id="path5875"
   d="m 234.4,227.5 h -0.7 c 0.4,6.5 -0.4,13.1 -0.9,19.6 -1.1,13.8 -1.1,27.7 0,41.5 0,0.5 0.1,1.1 0.3,1.6 l -0.5,0.9 -4.5,-8.8 -1.8,-39 3.3,-15.9 0.2,-1 h 5.2 l 0.2,0.9 c -0.3,0.2 -0.6,0.2 -0.8,0.2 z"
   class="st11"
   inkscape:connector-curvature="0"
   style="fill:#3a2612" />
	<path
   id="path5877"
   d="m 235.1,227.4 c -0.2,0 -0.4,0.1 -0.6,0.1 h -4.8 c -0.1,0 -0.1,0 -0.2,0 -1.4,-0.1 -2.5,-1.3 -2.5,-2.7 V 220 c 0,-1.5 1.2,-2.7 2.7,-2.7 h 3.4 c 0,3 0.5,6.1 0.7,9.2 v 0.1 h 1.2 z"
   class="st11"
   inkscape:connector-curvature="0"
   style="fill:#3a2612" />
	<path
   id="path5879"
   d="m 224.1,210.3 -11.4,14 17,-7 c 0,0 -4.3,0.2 -5.6,-7 z"
   class="st7"
   inkscape:connector-curvature="0"
   style="fill:#caba9f" />
	<path
   id="path5881"
   d="m 240.3,210.3 11.4,14 -17,-7 c -0.1,0 4.3,0.2 5.6,-7 z"
   class="st7"
   inkscape:connector-curvature="0"
   style="fill:#caba9f" />
	<path
   id="path5883"
   d="m 222.6,213.2 c -1.5,3 -3.5,8 -3.3,14.3 0.4,11.2 1.3,30.9 2,45.6 0.2,4.7 -13.6,-35.5 -13.6,-35.5 l 5.8,-8.8 -11.2,-4.1 c 0,0 3.8,-8.6 8.8,-11.1 v 0 c 4.8,-2.3 12.4,-3.2 12.4,-3.2 0,0 0.1,0.9 -0.9,2.8 z"
   class="st9"
   inkscape:connector-curvature="0"
   style="fill:#3c3c3b" />
	<path
   id="path5885"
   d="m 241.3,213 c 1.5,3 3.5,8 3.3,14.3 -0.4,11.2 1.1,31.3 0.4,46 -0.2,4.7 11.2,-35.9 11.2,-35.9 l -5.8,-8.8 11.2,-4.1 c 0,0 -3.8,-8.6 -8.8,-11.1 v 0 c -4.8,-2.3 -12.4,-3.2 -12.4,-3.2 0,0 0,0.9 0.9,2.8 z"
   class="st9"
   inkscape:connector-curvature="0"
   style="fill:#3c3c3b" />
	<path
   id="path5887"
   d="m 227.4,152.9 c 0,2.9 1.4,5.5 2,8.3 0.5,2.3 0.3,4.5 -0.2,6.7 -1.9,-1.5 -3.7,-2.9 -5.9,-3 -13.2,-0.6 -12.8,17.2 -14.2,22.3 -0.5,1.8 -2,-11 -2,-12.2 0,-6.4 -3.4,-24.2 3,-24.4 2.1,-0.1 9.2,-4.8 9.4,-3 0.2,0.9 0.9,1.4 1.7,1.4 0.6,0 1.1,-0.3 1.5,-0.8 0,0 7.4,-3.8 8.1,-2.7 l 0.2,0.2 c -2.1,1.9 -3.5,4.3 -3.6,7.2 z"
   class="st11"
   inkscape:connector-curvature="0"
   style="fill:#3a2612" />
	<g
   id="g5943">
		<path
   id="path5889"
   d="m 231.7,186.2 c 0,0 0,0 0,0 v 0 c 0.1,0 0.1,0 0,0 z"
   class="st12"
   inkscape:connector-curvature="0"
   style="fill:#c5cf83" />
		<polygon
   id="polygon5891"
   points=""
   class="st12"
   style="fill:#c5cf83" />
		<path
   id="path5893"
   d="m 231.7,186.2 c 0,0.1 -0.1,0.2 -0.1,0.2 0.2,0.2 0.4,-0.2 0.1,-0.2 z"
   class="st12"
   inkscape:connector-curvature="0"
   style="fill:#c5cf83" />
		<path
   id="path5895"
   d="m 231.7,186.7 v 0 c 0,0.1 0,0.1 0,0.2 0,0.1 -0.1,0.7 0.1,0.6 0.1,0 0.2,-0.4 0.1,-0.6 0,-0.1 -0.2,-0.2 -0.2,-0.2 z"
   class="st12"
   inkscape:connector-curvature="0"
   style="fill:#c5cf83" />
		<path
   id="path5897"
   d="m 235.5,188.3 0.1,-0.1 c 0,0 -0.5,0.1 -0.3,0.4 0.1,0.3 0.6,-0.3 0.2,-0.3 z"
   class="st12"
   inkscape:connector-curvature="0"
   style="fill:#c5cf83" />
		<path
   id="path5899"
   d="m 237.6,188.6 c 0,-0.1 0,-0.1 -0.1,-0.2 0,0 -0.1,0 -0.1,0 -0.2,0 -0.4,0.2 -0.3,0.4 0,0.1 0.4,-0.1 0.5,-0.2 z"
   class="st12"
   inkscape:connector-curvature="0"
   style="fill:#c5cf83" />
		<path
   id="path5901"
   d="m 237.4,188.4 c -0.1,0 -0.1,0 0,0 0.1,0 0.1,0 0.1,0 z"
   class="st12"
   inkscape:connector-curvature="0"
   style="fill:#c5cf83" />
		<path
   id="path5903"
   d="m 240.8,200 c -0.1,0 -0.1,0.2 -0.1,0.3 -0.1,0.1 -0.2,0.2 -0.3,0.3 -0.3,0.2 -1.1,0.5 -1,1 0,0.2 0.1,0.3 0,0.6 -0.1,0.2 -0.4,0.6 -0.3,0.8 0.2,0.7 0.8,0.2 1,-0.2 0.2,-0.5 0.2,-1 0.5,-1.3 0.5,-0.6 0.2,-1 0.2,-1.5 z"
   class="st12"
   inkscape:connector-curvature="0"
   style="fill:#c5cf83" />
		<path
   id="path5905"
   d="m 245.1,195.9 -0.1,-1.3 c -0.1,-0.6 -0.2,-1 -0.3,-1.5 -1.4,-4.2 -4.4,-4.3 -6.3,-5 -1.9,-0.7 -5.6,-1.8 -6.1,-1.9 0,0 0,0 -0.1,0 -0.5,0.1 -4.1,1.3 -6.1,1.9 -1.9,0.7 -4.9,0.8 -6.3,5 -0.1,0.4 -0.2,0.9 -0.3,1.5 l -0.1,1.3 c 0,2.8 0.6,6.4 1.5,8.2 0.4,0.7 1,1.6 1.8,2.5 l 0.9,1 c 0.9,0.9 1.8,1.8 2.4,2.3 1.4,1 5.6,3.4 6.2,3.7 0,0 0,0 0,0 0,0 0,0 0,0 0.5,-0.3 4.8,-2.7 6.2,-3.7 0.7,-0.5 1.6,-1.4 2.4,-2.3 l 0.9,-1 c 0.8,-0.9 1.4,-1.8 1.8,-2.5 1,-1.8 1.6,-5.4 1.6,-8.2 z"
   class="st1"
   inkscape:connector-curvature="0"
   style="fill:#ffffff" />
		<g
   id="g5909">
			<path
   id="path5907"
   d="m 234.2,205.6 c -0.2,0 -0.3,-0.1 -0.3,-0.3 0,-0.2 0.1,-0.3 0.3,-0.4 l 5,-0.7 c 0.2,0 0.3,0.1 0.4,0.3 0,0.2 -0.1,0.3 -0.3,0.4 l -5.1,0.7 c 0.1,0 0,0 0,0 z"
   class="st13"
   inkscape:connector-curvature="0"
   style="fill:#d9d9d9" />
		</g>
		<g
   id="g5913">
			<path
   id="path5911"
   d="m 234.2,203.7 c -0.1,0 -0.2,-0.1 -0.2,-0.2 0,-0.1 0.1,-0.2 0.2,-0.2 l 5,-0.7 c 0.1,0 0.2,0.1 0.2,0.2 0,0.1 -0.1,0.2 -0.2,0.2 l -5,0.7 c 0,0 0,0 0,0 z"
   class="st13"
   inkscape:connector-curvature="0"
   style="fill:#d9d9d9" />
		</g>
		<g
   id="g5917">
			<path
   id="path5915"
   d="m 234.2,201.6 c -0.1,0 -0.1,-0.1 0,0 -0.1,-0.1 -0.1,-0.2 0,-0.2 l 5,-0.7 c 0.1,0 0.1,0 0.1,0.1 0,0.1 0,0.1 -0.1,0.1 l -5,0.7 c 0,0 0,0 0,0 z"
   class="st13"
   inkscape:connector-curvature="0"
   style="fill:#d9d9d9" />
		</g>
		<path
   id="path5919"
   d="m 220.7,190.9 c -3.2,4.3 -2.9,16.2 7.3,20.3 5,2 -2.1,-27.3 -7.3,-20.3 z"
   class="st14"
   inkscape:connector-curvature="0"
   style="opacity:0.65;fill:#575756" />
		<path
   id="path5921"
   d="m 232.3,186.2 c 0,0 -0.1,0 0,0 -0.6,0.1 -4.2,1.3 -6.1,1.9 -1.9,0.7 -4.9,0.8 -6.3,5 -0.1,0.4 -0.2,0.9 -0.3,1.5 l -0.1,1.3 c 0,2.8 0.6,6.4 1.5,8.2 0.4,0.7 1,1.6 1.8,2.5 l 0.9,1 c 0.9,0.9 1.8,1.8 2.4,2.3 1.4,1 5.6,3.4 6.2,3.7 0,0 0,0 0,0 0,0 0,0 0,0 0,-4.2 0,-22.6 0,-27.4 z"
   class="st15"
   inkscape:connector-curvature="0"
   style="fill:#ececec" />
		<g
   id="g5925">
			<path
   id="path5923"
   d="m 230.6,205.6 c 0,0 -0.1,0 0,0 l -5,-0.7 c -0.2,0 -0.3,-0.2 -0.3,-0.4 0,-0.2 0.2,-0.3 0.4,-0.3 l 5,0.7 c 0.2,0 0.3,0.2 0.3,0.4 -0.1,0.2 -0.3,0.3 -0.4,0.3 z"
   class="st13"
   inkscape:connector-curvature="0"
   style="fill:#d9d9d9" />
		</g>
		<g
   id="g5929">
			<path
   id="path5927"
   d="m 230.5,203.7 c 0,0 0,0 0,0 l -5,-0.7 c -0.1,0 -0.2,-0.1 -0.2,-0.2 0,-0.1 0.1,-0.2 0.2,-0.2 l 5,0.7 c 0.1,0 0.2,0.1 0.2,0.2 0,0.1 -0.1,0.2 -0.2,0.2 z"
   class="st13"
   inkscape:connector-curvature="0"
   style="fill:#d9d9d9" />
		</g>
		<g
   id="g5933">
			<path
   id="path5931"
   d="m 230.5,201.6 c 0,0 0,0 0,0 l -5,-0.7 c -0.1,0 -0.1,-0.1 -0.1,-0.1 0,-0.1 0.1,-0.1 0.1,-0.1 l 5,0.7 c 0.1,0 0.1,0.1 0,0.2 0.1,-0.1 0.1,0 0,0 z"
   class="st13"
   inkscape:connector-curvature="0"
   style="fill:#d9d9d9" />
		</g>
		<path
   id="path5935"
   d="m 237.7,192.8 c 0,0 -4.2,-2.2 -5.5,-2.2 -1.3,0 -5.5,2.2 -5.5,2.2 0,0 -1.2,0.3 -0.6,-0.9 0.6,-1.1 4.8,-2.8 6,-2.8 1.4,0 5.4,1.7 6,2.8 0.8,1.3 -0.4,0.9 -0.4,0.9 z"
   class="st8"
   inkscape:connector-curvature="0"
   style="fill:#b1b1b1" />
		<g
   id="g5939">
			<path
   id="path5937"
   d="m 232.2,212.7 c 0,0 -0.1,0 -0.1,0 v 0 c -0.1,-0.1 -0.3,-0.2 -0.6,-0.3 -0.1,0 -0.1,-0.1 -0.1,-0.2 0,-0.1 0.1,-0.1 0.2,-0.1 0.3,0.1 0.5,0.3 0.6,0.3 l 0.3,-0.1 c 0.1,0 0.2,0 0.2,0.1 0,0.1 0,0.2 -0.1,0.2 l -0.3,0.2 c 0,-0.1 0,-0.1 -0.1,-0.1 z m -0.1,0 z m 1.5,-0.7 c 0,0 -0.1,0 -0.1,-0.1 0,-0.1 0,-0.2 0.1,-0.2 0.3,-0.2 0.6,-0.4 1,-0.6 0.1,0 0.2,0 0.2,0.1 0,0.1 0,0.2 -0.1,0.2 -0.4,0.2 -0.8,0.4 -1.1,0.6 0,0 0,0 0,0 z m -3,-0.2 c 0,0 0,0 0,0 -0.4,-0.2 -0.7,-0.4 -1,-0.6 -0.1,0 -0.1,-0.1 -0.1,-0.2 0,-0.1 0.1,-0.1 0.2,-0.1 0.3,0.2 0.7,0.4 1,0.6 0.1,0 0.1,0.1 0.1,0.2 -0.1,0.1 -0.1,0.1 -0.2,0.1 z m 4.9,-1 c 0,0 -0.1,0 -0.1,-0.1 0,-0.1 0,-0.2 0,-0.2 0.3,-0.2 0.7,-0.4 1,-0.6 0.1,0 0.2,0 0.2,0 0,0.1 0,0.2 0,0.2 -0.4,0.3 -0.7,0.5 -1.1,0.7 0,0 0,0 0,0 z m -6.8,-0.2 c 0,0 -0.1,0 0,0 -0.4,-0.2 -0.8,-0.4 -1,-0.6 -0.1,0 -0.1,-0.1 0,-0.2 0,-0.1 0.1,-0.1 0.2,0 0.3,0.2 0.6,0.4 1,0.6 0.1,0 0.1,0.1 0,0.2 -0.1,0 -0.2,0 -0.2,0 z m 8.7,-1 c 0,0 -0.1,0 -0.1,-0.1 0,-0.1 0,-0.2 0,-0.2 0.2,-0.2 0.4,-0.3 0.6,-0.4 0.1,-0.1 0.2,-0.2 0.3,-0.2 0.1,-0.1 0.1,0 0.2,0 0.1,0 0,0.1 0,0.2 -0.1,0.1 -0.2,0.2 -0.3,0.2 -0.2,0.2 -0.4,0.3 -0.7,0.5 0.1,0 0,0 0,0 z m -10.6,-0.2 c 0,0 -0.1,0 0,0 -0.2,-0.1 -0.3,-0.2 -0.4,-0.3 -0.2,-0.1 -0.4,-0.3 -0.6,-0.5 -0.1,-0.1 -0.1,-0.1 0,-0.2 0.1,-0.1 0.1,-0.1 0.2,0 0.2,0.2 0.4,0.3 0.6,0.5 0.1,0.1 0.2,0.1 0.3,0.2 0.1,0 0.1,0.1 0,0.2 0,0.1 -0.1,0.1 -0.1,0.1 z m 12.3,-1.2 c 0,0 -0.1,0 -0.1,0 -0.1,-0.1 -0.1,-0.1 0,-0.2 0.3,-0.2 0.5,-0.5 0.8,-0.8 0.1,-0.1 0.1,-0.1 0.2,0 0.1,0.1 0.1,0.1 0,0.2 -0.2,0.3 -0.5,0.5 -0.9,0.8 0.1,0 0.1,0 0,0 z m -14,-0.2 c -0.1,0 -0.1,0 0,0 -0.4,-0.3 -0.6,-0.6 -0.9,-0.8 -0.1,-0.1 -0.1,-0.1 0,-0.2 0.1,-0.1 0.1,-0.1 0.2,0 0.3,0.3 0.5,0.5 0.8,0.8 0.1,0.1 0.1,0.1 0,0.2 0,0 -0.1,0 -0.1,0 z m 15.6,-1.4 c 0,0 -0.1,0 0,0 -0.2,-0.1 -0.2,-0.2 -0.1,-0.2 L 241,206 c 0.1,-0.1 0.2,-0.3 0.3,-0.4 0,-0.1 0.1,-0.1 0.2,0 0.1,0 0.1,0.1 0,0.2 -0.1,0.1 -0.2,0.3 -0.3,0.4 l -0.4,0.5 c 0,-0.1 -0.1,-0.1 -0.1,-0.1 z m -17.1,-0.3 c 0,0 -0.1,0 -0.1,0 l -0.2,-0.2 c -0.2,-0.2 -0.4,-0.5 -0.6,-0.7 0,-0.1 0,-0.2 0,-0.2 0.1,0 0.2,0 0.2,0 0.2,0.2 0.4,0.4 0.6,0.7 l 0.2,0.2 c 0,0.1 0,0.1 -0.1,0.2 0,0 0,0 0,0 z m 18.5,-1.4 c 0,0 -0.1,-0.1 0,0 -0.1,-0.1 -0.2,-0.2 -0.1,-0.2 0.2,-0.3 0.4,-0.7 0.6,-0.9 0,-0.1 0.1,-0.1 0.2,-0.1 0.1,0 0.1,0.1 0.1,0.2 -0.2,0.3 -0.4,0.6 -0.6,1 -0.1,-0.1 -0.2,0 -0.2,0 z m -19.9,-0.3 c 0,0 -0.1,0 -0.1,-0.1 -0.2,-0.3 -0.3,-0.5 -0.4,-0.7 0,-0.1 -0.1,-0.2 -0.1,-0.3 0,-0.1 0,-0.2 0.1,-0.2 0.1,0 0.2,0 0.2,0.1 0,0.1 0.1,0.2 0.1,0.3 0.1,0.2 0.2,0.4 0.4,0.7 -0.1,0 -0.1,0.1 -0.2,0.2 0,0 0,0 0,0 z m 20.9,-1.7 c 0,0 0,0 0,0 -0.1,0 -0.2,-0.1 -0.1,-0.2 0.1,-0.3 0.2,-0.7 0.3,-1.1 0,-0.1 0.1,-0.1 0.2,-0.1 0.1,0 0.1,0.1 0.1,0.2 -0.1,0.4 -0.2,0.8 -0.3,1.1 0,0 -0.1,0.1 -0.2,0.1 z m -21.9,-0.4 c -0.1,0 -0.1,0 -0.1,-0.1 -0.1,-0.3 -0.2,-0.7 -0.3,-1.1 0,-0.1 0,-0.2 0.1,-0.2 0.1,0 0.2,0 0.2,0.1 0.1,0.4 0.2,0.7 0.3,1.1 0,0.1 -0.1,0.2 -0.2,0.2 0,0 0,0 0,0 z m 22.5,-1.8 c 0,0 0,0 0,0 -0.1,0 -0.2,-0.1 -0.1,-0.2 0.1,-0.4 0.1,-0.7 0.2,-1.1 0,-0.1 0.1,-0.1 0.2,-0.1 0.1,0 0.1,0.1 0.1,0.2 -0.1,0.4 -0.1,0.8 -0.2,1.1 -0.1,0.1 -0.1,0.1 -0.2,0.1 z m -23,-0.3 c -0.1,0 -0.1,0 -0.1,-0.1 -0.1,-0.4 -0.1,-0.7 -0.2,-1.1 0,-0.1 0,-0.1 0.1,-0.2 0.1,0 0.1,0 0.2,0.1 0,0.4 0.1,0.7 0.2,1.1 -0.1,0.1 -0.1,0.1 -0.2,0.2 0,0 0,0 0,0 z m 23.3,-1.9 c 0,0 0,0 0,0 -0.1,0 -0.1,-0.1 -0.1,-0.2 0,-0.4 0.1,-0.8 0.1,-1.1 0,-0.1 0.1,-0.1 0.1,-0.1 0.1,0 0.1,0.1 0.1,0.1 0,0.4 0,0.7 -0.1,1.1 0.1,0.1 0,0.2 -0.1,0.2 z m -23.6,-0.4 c -0.1,0 -0.1,-0.1 -0.1,-0.1 0,-0.4 -0.1,-0.8 -0.1,-1.1 0,-0.1 0.1,-0.1 0.1,-0.1 0.1,0 0.1,0.1 0.1,0.1 0,0.4 0,0.7 0.1,1.1 0,0.1 0,0.1 -0.1,0.1 0,0 0,0 0,0 z m 23.7,-1.8 c -0.1,0 -0.1,-0.1 -0.1,-0.1 l -0.1,-1.1 c 0,-0.1 0.1,-0.1 0.1,-0.2 0.1,0 0.1,0.1 0.2,0.1 l 0.1,1.1 c 0,0.1 -0.1,0.2 -0.2,0.2 0,0 0,0 0,0 z m -23.7,-0.4 c 0,0 0,0 0,0 -0.1,0 -0.1,-0.1 -0.1,-0.2 l 0.1,-0.9 c 0,-0.1 0,-0.2 0,-0.3 0,-0.1 0.1,-0.1 0.2,-0.1 0.1,0 0.1,0.1 0.1,0.2 0,0.1 0,0.2 0,0.3 l -0.1,0.8 c -0.1,0.1 -0.2,0.2 -0.2,0.2 z m 23.5,-1.8 c -0.1,0 -0.1,0 -0.1,-0.1 0,-0.1 -0.1,-0.3 -0.1,-0.4 -0.1,-0.2 -0.2,-0.5 -0.3,-0.7 0,-0.1 0,-0.2 0.1,-0.2 0.1,0 0.2,0 0.2,0.1 0.1,0.2 0.2,0.5 0.3,0.7 0,0.1 0.1,0.2 0.1,0.4 0,0.1 -0.1,0.1 -0.2,0.2 0,0 0,0 0,0 z m -23.2,-0.4 c 0,0 0,0 0,0 -0.1,0 -0.2,-0.1 -0.1,-0.2 0.1,-0.4 0.3,-0.7 0.4,-1.1 0,-0.1 0.1,-0.1 0.2,-0.1 0.1,0 0.1,0.1 0.1,0.2 -0.2,0.3 -0.3,0.7 -0.4,1 -0.1,0.1 -0.1,0.2 -0.2,0.2 z M 243,192 c 0,0 -0.1,0 -0.1,-0.1 -0.2,-0.3 -0.4,-0.6 -0.7,-0.9 -0.1,-0.1 -0.1,-0.1 0,-0.2 0.1,-0.1 0.1,-0.1 0.2,0 0.3,0.3 0.5,0.6 0.7,0.9 0.1,0.2 0,0.2 -0.1,0.3 0.1,0 0,0 0,0 z m -21.3,-0.3 c 0,0 -0.1,0 0,0 -0.1,-0.1 -0.2,-0.2 -0.1,-0.2 0.2,-0.3 0.5,-0.6 0.8,-0.8 0.1,-0.1 0.1,0 0.2,0 0.1,0.1 0,0.1 0,0.2 -0.3,0.2 -0.5,0.5 -0.7,0.8 -0.1,0 -0.2,0 -0.2,0 z m 19.7,-1.3 c 0,0 0,0 0,0 -0.4,-0.2 -0.7,-0.4 -1,-0.5 -0.1,0 -0.1,-0.1 -0.1,-0.2 0,-0.1 0.1,-0.1 0.2,-0.1 0.4,0.2 0.7,0.3 1,0.5 0.1,0 0.1,0.1 0,0.2 0,0.1 0,0.1 -0.1,0.1 z m -18,-0.2 c 0,0 -0.1,0 -0.1,-0.1 0,-0.1 0,-0.2 0.1,-0.2 0.3,-0.2 0.7,-0.3 1,-0.5 0.1,0 0.2,0 0.2,0.1 0,0.1 0,0.2 -0.1,0.2 -0.4,0.2 -0.8,0.3 -1.1,0.5 0,0 0,0 0,0 z m 16,-0.7 c 0,0 0,0 0,0 -0.2,-0.1 -0.4,-0.1 -0.6,-0.2 -0.2,0 -0.4,-0.1 -0.5,-0.1 -0.1,0 -0.1,-0.1 -0.1,-0.2 0,-0.1 0.1,-0.1 0.2,-0.1 0.2,0 0.3,0.1 0.5,0.1 0.2,0.1 0.4,0.1 0.6,0.2 0.1,0 0.1,0.1 0.1,0.2 -0.1,0.1 -0.1,0.1 -0.2,0.1 z m -13.9,-0.1 c -0.1,0 -0.1,0 -0.1,-0.1 0,-0.1 0,-0.2 0.1,-0.2 l 0.2,-0.1 c 0.3,-0.1 0.6,-0.2 0.9,-0.3 0.1,0 0.2,0 0.2,0.1 0,0.1 0,0.2 -0.1,0.2 -0.3,0.1 -0.6,0.2 -0.9,0.3 l -0.3,0.1 c 0,0 0,0 0,0 z m 11.8,-0.5 c -0.1,0 -0.1,0 0,0 -0.4,-0.1 -0.7,-0.2 -1.1,-0.4 -0.1,0 -0.1,-0.1 -0.1,-0.2 0,-0.1 0.1,-0.1 0.2,-0.1 0.4,0.1 0.8,0.2 1.1,0.4 0.1,0 0.1,0.1 0.1,0.2 -0.1,0 -0.2,0.1 -0.2,0.1 z m -9.7,-0.2 c -0.1,0 -0.1,0 -0.1,-0.1 0,-0.1 0,-0.2 0.1,-0.2 0.3,-0.1 0.7,-0.2 1.1,-0.3 0.1,0 0.2,0 0.2,0.1 0,0.1 0,0.2 -0.1,0.2 -0.5,0.1 -0.8,0.2 -1.2,0.3 0,0 0,0 0,0 z m 7.5,-0.5 c 0,0 0,0 0,0 -0.4,-0.1 -0.8,-0.2 -1.1,-0.3 -0.1,0 -0.1,-0.1 -0.1,-0.2 0,-0.1 0.1,-0.1 0.2,-0.1 0.3,0.1 0.7,0.2 1.1,0.3 0.1,0 0.1,0.1 0.1,0.2 -0.1,0 -0.1,0.1 -0.2,0.1 z m -5.4,-0.2 c -0.1,0 -0.1,0 -0.1,-0.1 0,-0.1 0,-0.2 0.1,-0.2 0.4,-0.1 0.7,-0.2 1.1,-0.3 0.1,0 0.2,0 0.2,0.1 0,0.1 0,0.2 -0.1,0.2 -0.4,0.1 -0.7,0.2 -1.2,0.3 0.1,0 0.1,0 0,0 z m 3.3,-0.5 c 0,0 -0.1,0 0,0 -0.4,-0.1 -0.6,-0.2 -0.7,-0.2 -0.1,0 -0.2,0 -0.3,0.1 -0.1,0 -0.2,0 -0.2,-0.1 0,-0.1 0,-0.2 0.1,-0.2 0.2,0 0.3,-0.1 0.3,-0.1 0,0 0,0 0.1,0 0,0 0.1,0 0.1,0 0.1,0 0.4,0.1 0.7,0.2 0.1,0 0.1,0.1 0.1,0.2 -0.1,0.1 -0.2,0.1 -0.2,0.1 z"
   class="st13"
   inkscape:connector-curvature="0"
   style="fill:#d9d9d9" />
		</g>
		<path
   id="path5941"
   d="m 231.4,190.5 c -0.2,0 -0.3,-0.1 -0.4,-0.3 -0.1,-0.2 0,-0.5 0.3,-0.5 0.1,0 0.6,-0.2 1,-0.2 0.4,0 0.9,0.2 0.9,0.2 0.2,0.1 0.3,0.3 0.3,0.5 -0.1,0.2 -0.3,0.3 -0.5,0.3 -0.1,-0.1 -0.4,-0.1 -0.6,-0.1 -0.3,0 -0.6,0.1 -0.7,0.1 -0.2,0 -0.3,0 -0.3,0 z"
   class="st16"
   inkscape:connector-curvature="0"
   style="opacity:0.56000001;fill:#d9d9d9" />
	</g>
	<g
   id="g5947">
		<path
   id="path5945"
   d="m 206.4,175.3 c 2.4,2.9 4.7,5.8 7,8.7 1.2,1.4 2.4,2.9 3.4,4.4 1.1,1.5 2.1,3.1 3,4.7 l -0.1,0.1 c -1.3,-1.3 -2.5,-2.7 -3.7,-4.2 -1.2,-1.4 -2.2,-3 -3.3,-4.5 -2.1,-3.1 -4.3,-6.1 -6.3,-9.2 z"
   class="st1"
   inkscape:connector-curvature="0"
   style="fill:#ffffff" />
	</g>
	<g
   id="g5951">
		<path
   id="path5949"
   d="m 206.4,187.8 c 2.3,2.2 4.7,4.5 7,6.8 1.2,1.1 2.4,2.2 3.4,3.4 1.1,1.2 2.1,2.5 3,3.8 l -0.1,0.1 c -1.3,-1 -2.5,-2.1 -3.7,-3.2 -1.2,-1.1 -2.2,-2.4 -3.3,-3.6 -2.1,-2.4 -4.3,-4.8 -6.3,-7.3 z"
   class="st1"
   inkscape:connector-curvature="0"
   style="fill:#ffffff" />
	</g>
	<g
   id="g5955">
		<path
   id="path5953"
   d="m 257.2,175.1 c -2,3.1 -4.1,6.1 -6.1,9.1 -1,1.5 -2,3.1 -3.1,4.5 -1.1,1.4 -2.3,2.9 -3.6,4.2 l -0.1,-0.1 c 0.8,-1.6 1.8,-3.2 2.8,-4.7 1,-1.5 2.2,-2.9 3.3,-4.4 2.2,-2.9 4.4,-5.8 6.8,-8.6 z"
   class="st1"
   inkscape:connector-curvature="0"
   style="fill:#ffffff" />
	</g>
	<g
   id="g5959">
		<path
   id="path5957"
   d="m 257.4,187.5 c -2.1,2.5 -4.1,4.9 -6.2,7.4 -1,1.2 -2,2.5 -3.2,3.6 -1.1,1.1 -2.3,2.3 -3.6,3.3 l -0.1,-0.1 c 0.9,-1.4 1.9,-2.6 2.9,-3.9 1,-1.2 2.2,-2.3 3.3,-3.5 2.2,-2.3 4.5,-4.6 6.9,-6.8 z"
   class="st1"
   inkscape:connector-curvature="0"
   style="fill:#ffffff" />
	</g>
	<g
   id="g5977">
		<path
   id="path5961"
   d="m 163.9,445.9 h -13.7 c -4.6,0 -8.3,-3.7 -8.3,-8.3 v -64 c 0,-4.6 3.7,-8.3 8.3,-8.3 h 13.7 c 4.6,0 8.3,3.7 8.3,8.3 v 64 c 0,4.5 -3.7,8.3 -8.3,8.3 z"
   class="st17"
   inkscape:connector-curvature="0"
   style="fill:#9c9b9b" />
		<path
   id="path5963"
   d="m 147.1,374.9 h -3.5 c -1.9,0 -3.4,-1.5 -3.4,-3.4 V 368 c 0,-1.9 1.5,-3.4 3.4,-3.4 h 3.5 c 1.9,0 3.4,1.5 3.4,3.4 v 3.5 c 0.1,1.8 -1.5,3.4 -3.4,3.4 z"
   class="st18"
   inkscape:connector-curvature="0"
   style="fill:#6f6f6e" />
		<path
   id="path5965"
   d="m 170.2,374.9 h -3.5 c -1.9,0 -3.4,-1.5 -3.4,-3.4 V 368 c 0,-1.9 1.5,-3.4 3.4,-3.4 h 3.5 c 1.9,0 3.4,1.5 3.4,3.4 v 3.5 c 0,1.8 -1.5,3.4 -3.4,3.4 z"
   class="st18"
   inkscape:connector-curvature="0"
   style="fill:#6f6f6e" />
		<path
   id="path5967"
   d="m 147.2,446.7 h -3.5 c -1.9,0 -3.4,-1.5 -3.4,-3.4 v -3.5 c 0,-1.9 1.5,-3.4 3.4,-3.4 h 3.5 c 1.9,0 3.4,1.5 3.4,3.4 v 3.5 c 0,1.9 -1.5,3.4 -3.4,3.4 z"
   class="st18"
   inkscape:connector-curvature="0"
   style="fill:#6f6f6e" />
		<path
   id="path5969"
   d="m 170.3,446.7 h -3.5 c -1.9,0 -3.4,-1.5 -3.4,-3.4 v -3.5 c 0,-1.9 1.5,-3.4 3.4,-3.4 h 3.5 c 1.9,0 3.4,1.5 3.4,3.4 v 3.5 c 0,1.9 -1.5,3.4 -3.4,3.4 z"
   class="st18"
   inkscape:connector-curvature="0"
   style="fill:#6f6f6e" />
		<path
   id="path5971"
   d="m 157.1,347.1 v 0 c -1.7,0 -3.1,1.4 -3.1,3.1 v 15 h 5.9 V 350 c 0.1,-1.6 -1.2,-2.9 -2.8,-2.9 z"
   class="st19"
   inkscape:connector-curvature="0"
   style="fill:#575756" />
		<g
   id="g5975">
			<path
   id="path5973"
   d="m 157,365.2 c 0.2,6.6 0.3,13.2 0.4,19.7 0.1,6.6 0.1,13.2 0.1,19.7 l -0.1,19.7 -0.1,9.9 c -0.1,3.3 -0.1,6.6 -0.2,9.9 -0.1,-3.3 -0.2,-6.6 -0.2,-9.9 l -0.1,-9.9 -0.1,-19.7 c 0,-6.6 0,-13.2 0.1,-19.7 -0.1,-6.5 0,-13.1 0.2,-19.7 z"
   class="st19"
   inkscape:connector-curvature="0"
   style="fill:#575756" />
		</g>
	</g>
</g><path
       id="path5981"
       d="m 551.63372,834.83029 c 0,0 -6.1,42.3 -3.4,62.4 2.7,20.1 53.8,8.7 53.8,8.7 0,0 5.9,-70.6 -1.9,-77.6 -7.9,-7.1 -48.5,6.5 -48.5,6.5 z"
       class="st10"
       inkscape:connector-curvature="0"
       style="fill:#1d1d1b" /><g
       id="g5985"
       transform="translate(53.73372,666.93029)">
	<path
   id="path5983"
   d="m 548,179.4 c 0,2.4 0.1,4.7 0.3,7 -0.1,-0.1 -0.2,-0.1 -0.3,-0.2 -1.7,9.8 -7.5,17.8 -15.3,21.6 -0.9,0.5 -1.6,1.3 -1.7,2.3 -3.8,-1 -7.5,-1.9 -10.8,-2 -1.9,0 -4,0.3 -6.2,0.7 -0.3,-0.3 -0.6,-0.5 -0.9,-0.6 -8.3,-3.7 -14.6,-12 -16.2,-22.2 -0.7,0.6 -1.5,1 -2.3,1 1.3,-4.5 2.2,-9.4 2.8,-14.3 0.4,-2.9 0.7,-5.8 1,-8.6 2.2,-20.9 28.7,-17.5 34.3,-17.1 5.1,0.3 9.9,2.4 13.1,8.5 2.9,5.6 2.8,11.7 2.5,18.1 -0.2,1.9 -0.3,3.8 -0.3,5.8 z"
   class="st10"
   inkscape:connector-curvature="0"
   style="fill:#1d1d1b" />
</g><path
       id="path5987"
       d="m 599.43372,1095.3303 c -1.1,-0.4 -11.1,-2.4 -11.1,-3.6 0,0 6.2,-50.5 10.5,-83.5 1.2,-9.00001 7,-14.40001 6.8,-19.80001 0.3,-0.1 0.6,-0.1 0.9,-0.3 0.2,-0.1 0.4,-0.1 0.6,-0.1 1,0.1 1.5,1.2 1,2.1 -1.4,2.2 -6.3,10.40001 -2.7,12.10001 4.1,1.9 13.6,-8.10001 12.4,-25.30001 0,0 0,-0.1 0,-0.1 l -2.6,-58.6 v 0 l -0.7,-15.6 c 0.1,-8.1 -5.1,-14.9 -13.2,-15.7 -5.4,-0.5 -9.7,-2 -12.1,-3 -1.2,-0.5 -1.9,-0.9 -1.9,-0.9 -0.9,0 -1.8,-2.3 -2.5,-4.3 -0.2,-0.5 -0.2,-1.1 -0.1,-1.6 0.2,-1 0.8,-1.8 1.7,-2.3 7.8,-3.8 13.7,-11.9 15.3,-21.6 0.1,0.1 0.2,0.1 0.3,0.2 0.6,0.4 1.2,0.6 1.8,0.6 2.5,0 4.6,-3.2 4.6,-7.1 0,-3.9 -2,-7.1 -4.6,-7.1 -0.7,0 -1.4,0.2 -1.9,0.7 -0.1,0.1 -0.2,0.2 -0.3,0.3 -0.1,-0.5 -0.2,-1 -0.3,-1.5 0,2 -1,9.4 -1.6,7.2 -1.8,-6.1 -7.2,-17 -10.6,-16.1 -5,1.2 -2.4,-1.8 -8.5,-1.8 -6.3,0 -9.5,-0.7 -14.7,0.1 -4.3,0.7 -11.8,11.4 -13.2,16.5 -0.5,1.8 -2.7,8.4 -2,7.7 1.6,10.2 7.9,18.6 16.2,22.2 0.4,0.1 0.6,0.4 0.9,0.6 0.8,0.8 1.1,1.9 0.8,3 -0.5,1.9 -1.2,4.2 -2.1,4.2 l -0.8,0.3 -13.3,4.4 c -7.2,0.7 -11.8,6.7 -11.8,14 0,5.3 -0.2,11.8 -0.5,18.6 -0.9,25.5 -3,56.6 -3,56.6 0,0 0,0.1 0,0.1 -1.1,17.2 8.3,27.20001 12.4,25.30001 3.6,-1.7 -1.3,-9.90001 -2.7,-12.10001 -0.5,-0.8 0,-2 1,-2.1 0.2,0 0.4,0 0.6,0.1 1.7,0.6 2.6,0.5 3.1,-0.2 0.9,5.3 4.4,11.6 5.4,20.30001 3.8,33.7 9.1,83.5 9.1,83.5 0,1.2 -10.3,3.1 -11.4,3.6 -5.1,1.9 -18.3,7.5 -10.4,13.1 7.7,5.5 23.3,2.2 28.7,0.6 1.2,-0.3 2.1,-1.5 2.1,-2.8 l 1.5,-103 -1.5,-10.90001 c 0,-1.6 0.3,-2.9 1.9,-2.9 0.1,0 0.2,0 0.3,0 0,0 0,0 0,0 0.1,0 0.1,0 0.2,0 1.6,0 2.9,1.3 2.9,2.9 l -1.4,11.40001 1.4,102.5 c 0,1.3 0.9,2.4 2.1,2.8 5.4,1.5 20,4.9 27.7,-0.6 7.6,-5.6 -5.6,-11.2 -10.7,-13.1 z m -0.7,-177.80001 c 0.1,-1.4 0.3,-2.7 0.8,-4 0.7,-2 3.7,-1.8 3.9,0.4 0.6,4.4 1.2,9.3 1.8,14.3 2,17 3.5,35.5 2.4,45 -0.2,1.9 -2.2,5.8 -3.4,9.3 -0.9,-2.3 -2.1,-4.9 -3.5,-7.6 -3.8,-7.6 -8.4,-16.1 -8.5,-22 -0.3,-9 6.5,-35.4 6.5,-35.4 z m -47.6,66.6 c -1.1,-3.7 -3.7,-8.7 -4,-10.9 -1.1,-9.2 0.4,-26.7 2.2,-43.1 0.5,-4.4 1,-8.8 1.6,-12.8 0.3,-2.5 3.9,-2.3 4.1,0.2 v 0.1 c 0,0 7.7,26.3 7.6,35.5 -0.1,6.6 -4.9,14.8 -8.2,22 -1.6,3.2 -2.9,6.4 -3.3,9 z"
       class="st4"
       inkscape:connector-curvature="0"
       style="fill:#64431F" /><path
       id="path5989"
       d="m 577.93372,1030.6303 -20,-1.5 c -4.6,-14.8 -9.5,-40.70001 -8.7,-46.80001 0.9,-6.5 5.3,-10.6 5.3,-10.6 h 47.1 c 0,0 5,4.3 6.4,12.3 1,5.8 -6.4,33.50001 -10.5,45.10001 l -19.6,1.5"
       class="st20"
       inkscape:connector-curvature="0"
       style="fill:#422918" /><path
       id="path5991"
       d="m 598.83372,964.23029 5.6,10.8 h -52.7 l 4.9,-12.4 c 1.2,-6.4 1.4,-13 0.4,-19.5 l -3,-19.5 -1.9,9.4 -14.2,-1.7 0.6,-28.9 c 0.3,-7.9 5.5,-14.7 13.1,-17 l 13.2,-4.1 14.8,34.9 10.5,-34.9 15.5,3.4 c 6.5,1.4 11.3,6.9 11.9,13.5 l 0.4,29.9 -14.3,1.7 -1.4,-9.2 -3.8,19 c -1.6,8.1 -1.5,16.5 0.4,24.6 z"
       class="st21"
       inkscape:connector-curvature="0"
       style="fill:#35a8e0" /><path
       id="path5993"
       d="m 546.73372,990.23029 c 1.4,2.2 6.3,10.40001 2.7,12.10001 -4.1,1.9 -13.6,-8.10001 -12.4,-25.30001 0,0 0,-0.1 0,-0.1 0,0 0,-0.6 0.1,-1.8 h 10.5 c 1.8,5.2 7.7,15.7 0.6,13.2 -0.2,-0.1 -0.4,-0.1 -0.6,-0.1 -1,-0.1 -1.4,1.1 -0.9,2 z"
       class="st4"
       inkscape:connector-curvature="0"
       style="fill:#64431F" /><path
       id="path5995"
       d="m 605.43372,1002.2303 c -3.6,-1.6 1.3,-9.80001 2.7,-12.10001 0.5,-0.8 0,-2 -0.9,-2.1 -0.2,0 -0.4,0 -0.6,0.1 -7.1,2.5 -1.2,-8 0.6,-13.2 h 10.6 l 0.1,1.8 c 0,0 0,0.1 0,0.1 1.1,17.3 -8.4,27.30001 -12.5,25.40001 z"
       class="st4"
       inkscape:connector-curvature="0"
       style="fill:#64431F" /><circle
       id="circle5997"
       r="1.4"
       cy="923.63031"
       cx="579.83368"
       class="st22"
       style="fill:#f5f5f5" /><circle
       id="circle5999"
       r="1.4"
       cy="937.13031"
       cx="579.83368"
       class="st15"
       style="fill:#ececec" /><circle
       id="circle6001"
       r="1.4"
       cy="950.63031"
       cx="579.83368"
       class="st15"
       style="fill:#ececec" /><circle
       id="circle6003"
       r="1.4"
       cy="965.63031"
       cx="579.83368"
       class="st15"
       style="fill:#ececec" /><g
       id="g6007"
       transform="translate(53.73372,666.93029)">
	<path
   id="path6005"
   d="m 496.4,185 c 2.3,2.2 4.7,4.5 7,6.8 1.2,1.1 2.4,2.2 3.4,3.4 1.1,1.2 2.1,2.5 3,3.8 l -0.1,0.1 c -1.3,-1 -2.5,-2.1 -3.7,-3.2 -1.2,-1.1 -2.2,-2.4 -3.3,-3.6 -2.1,-2.4 -4.2,-4.8 -6.3,-7.3 z"
   class="st1"
   inkscape:connector-curvature="0"
   style="fill:#ffffff" />
</g><g
       id="g6063"
       transform="translate(53.73372,666.93029)">
	<path
   id="path6009"
   d="m 522.4,184.8 c 0,0 0,0 0,0 v 0 c 0,0 0,0 0,0 z"
   class="st12"
   inkscape:connector-curvature="0"
   style="fill:#c5cf83" />
	<polygon
   id="polygon6011"
   points=""
   class="st12"
   style="fill:#c5cf83" />
	<path
   id="path6013"
   d="m 522.3,184.8 c 0,0.1 -0.1,0.2 -0.1,0.2 0.3,0.3 0.4,-0.2 0.1,-0.2 z"
   class="st12"
   inkscape:connector-curvature="0"
   style="fill:#c5cf83" />
	<path
   id="path6015"
   d="m 522.3,185.3 v 0 c 0,0.1 0,0.1 0,0.2 0,0.1 -0.1,0.7 0.1,0.6 0.1,0 0.2,-0.4 0.1,-0.6 0,-0.1 -0.2,-0.2 -0.2,-0.2 z"
   class="st12"
   inkscape:connector-curvature="0"
   style="fill:#c5cf83" />
	<path
   id="path6017"
   d="m 526.1,187 0.1,-0.1 c 0,0 -0.5,0.1 -0.3,0.4 0.2,0.2 0.6,-0.3 0.2,-0.3 z"
   class="st12"
   inkscape:connector-curvature="0"
   style="fill:#c5cf83" />
	<path
   id="path6019"
   d="m 528.2,187.2 c 0,-0.1 0,-0.1 -0.1,-0.2 0,0 -0.1,0 -0.1,0 -0.2,0 -0.4,0.2 -0.3,0.4 0.1,0.2 0.5,0 0.5,-0.2 z"
   class="st12"
   inkscape:connector-curvature="0"
   style="fill:#c5cf83" />
	<path
   id="path6021"
   d="m 528,187 c 0,0 0,0 0,0 0.1,0 0.1,0 0.1,0 z"
   class="st12"
   inkscape:connector-curvature="0"
   style="fill:#c5cf83" />
	<path
   id="path6023"
   d="m 531.4,198.6 c -0.1,0 -0.1,0.2 -0.1,0.3 -0.1,0.1 -0.2,0.2 -0.3,0.3 -0.3,0.2 -1.1,0.5 -1,1 0,0.2 0.1,0.3 0,0.6 -0.1,0.2 -0.4,0.6 -0.3,0.8 0.2,0.7 0.8,0.2 1,-0.2 0.2,-0.5 0.2,-1 0.5,-1.3 0.5,-0.6 0.2,-0.9 0.2,-1.5 z"
   class="st12"
   inkscape:connector-curvature="0"
   style="fill:#c5cf83" />
	<path
   id="path6025"
   d="m 535.7,194.5 -0.1,-1.3 c -0.1,-0.6 -0.2,-1 -0.3,-1.5 -1.4,-4.2 -4.4,-4.3 -6.3,-5 -1.9,-0.7 -5.6,-1.8 -6.1,-1.9 0,0 0,0 -0.1,0 -0.5,0.1 -4.1,1.3 -6.1,1.9 -1.9,0.7 -4.9,0.8 -6.3,5 -0.1,0.4 -0.2,0.9 -0.3,1.5 l -0.1,1.3 c 0,2.8 0.6,6.4 1.5,8.2 0.4,0.7 1,1.6 1.8,2.5 l 0.9,1 c 0.9,0.9 1.8,1.8 2.4,2.3 1.4,1 5.6,3.4 6.2,3.7 0,0 0,0 0,0 0,0 0,0 0,0 0.5,-0.3 4.8,-2.7 6.2,-3.7 0.7,-0.5 1.6,-1.4 2.4,-2.3 l 0.9,-1 c 0.8,-0.9 1.4,-1.8 1.8,-2.5 1,-1.8 1.6,-5.4 1.6,-8.2 z"
   class="st1"
   inkscape:connector-curvature="0"
   style="fill:#ffffff" />
	<g
   id="g6029">
		<path
   id="path6027"
   d="m 524.9,204.2 c -0.2,0 -0.3,-0.1 -0.3,-0.3 0,-0.2 0.1,-0.3 0.3,-0.4 l 5,-0.7 c 0.2,0 0.3,0.1 0.4,0.3 0,0.2 -0.1,0.3 -0.3,0.4 l -5.1,0.7 c 0,0 0,0 0,0 z"
   class="st13"
   inkscape:connector-curvature="0"
   style="fill:#d9d9d9" />
	</g>
	<g
   id="g6033">
		<path
   id="path6031"
   d="m 524.8,202.3 c -0.1,0 -0.2,-0.1 -0.2,-0.2 0,-0.1 0.1,-0.2 0.2,-0.2 l 5,-0.7 c 0.1,0 0.2,0.1 0.2,0.2 0,0.1 -0.1,0.2 -0.2,0.2 l -5,0.7 c 0,0 0,0 0,0 z"
   class="st13"
   inkscape:connector-curvature="0"
   style="fill:#d9d9d9" />
	</g>
	<g
   id="g6037">
		<path
   id="path6035"
   d="m 524.8,200.2 c 0,0 -0.1,0 0,0 -0.1,-0.1 -0.1,-0.2 0,-0.2 l 5,-0.7 c 0.1,0 0.1,0 0.1,0.1 0,0.1 0,0.1 -0.1,0.1 l -5,0.7 c 0,0 0,0 0,0 z"
   class="st13"
   inkscape:connector-curvature="0"
   style="fill:#d9d9d9" />
	</g>
	<path
   id="path6039"
   d="m 511.3,189.6 c -3.2,4.3 -2.9,16.2 7.3,20.3 5,2 -2.1,-27.3 -7.3,-20.3 z"
   class="st14"
   inkscape:connector-curvature="0"
   style="opacity:0.65;fill:#575756" />
	<path
   id="path6041"
   d="m 522.9,184.8 c 0,0 -0.1,0 0,0 -0.6,0.1 -4.2,1.3 -6.1,1.9 -1.9,0.7 -4.9,0.8 -6.3,5 -0.1,0.4 -0.2,0.9 -0.3,1.5 l -0.1,1.3 c 0,2.8 0.6,6.4 1.5,8.2 0.4,0.7 1,1.6 1.8,2.5 l 0.9,1 c 0.9,0.9 1.8,1.8 2.4,2.3 1.4,1 5.6,3.4 6.2,3.7 0,0 0,0 0,0 0,0 0,0 0,0 0,-4.2 0,-22.5 0,-27.4 z"
   class="st15"
   inkscape:connector-curvature="0"
   style="fill:#ececec" />
	<g
   id="g6045">
		<path
   id="path6043"
   d="m 521.2,204.2 c 0,0 0,0 0,0 l -5,-0.7 c -0.2,0 -0.3,-0.2 -0.3,-0.4 0,-0.2 0.2,-0.3 0.4,-0.3 l 5,0.7 c 0.2,0 0.3,0.2 0.3,0.4 -0.1,0.2 -0.2,0.3 -0.4,0.3 z"
   class="st13"
   inkscape:connector-curvature="0"
   style="fill:#d9d9d9" />
	</g>
	<g
   id="g6049">
		<path
   id="path6047"
   d="m 521.1,202.3 c 0,0 0,0 0,0 l -5,-0.7 c -0.1,0 -0.2,-0.1 -0.2,-0.2 0,-0.1 0.1,-0.2 0.2,-0.2 l 5,0.7 c 0.1,0 0.2,0.1 0.2,0.2 0,0.1 -0.1,0.2 -0.2,0.2 z"
   class="st13"
   inkscape:connector-curvature="0"
   style="fill:#d9d9d9" />
	</g>
	<g
   id="g6053">
		<path
   id="path6051"
   d="m 521.1,200.2 c 0,0 0,0 0,0 l -5,-0.7 c -0.1,0 -0.1,-0.1 -0.1,-0.1 0,-0.1 0.1,-0.1 0.1,-0.1 l 5,0.7 c 0.1,0 0.1,0.1 0,0.2 0.1,0 0.1,0 0,0 z"
   class="st13"
   inkscape:connector-curvature="0"
   style="fill:#d9d9d9" />
	</g>
	<path
   id="path6055"
   d="m 528.3,191.5 c 0,0 -4.2,-2.2 -5.5,-2.2 -1.3,0 -5.5,2.2 -5.5,2.2 0,0 -1.2,0.3 -0.6,-0.9 0.6,-1.1 4.8,-2.8 6,-2.8 1.4,0 5.4,1.7 6,2.8 0.8,1.2 -0.4,0.9 -0.4,0.9 z"
   class="st8"
   inkscape:connector-curvature="0"
   style="fill:#b1b1b1" />
	<g
   id="g6059">
		<path
   id="path6057"
   d="m 522.9,211.3 c 0,0 -0.1,0 -0.1,0 v 0 c -0.1,-0.1 -0.3,-0.2 -0.6,-0.3 -0.1,0 -0.1,-0.1 -0.1,-0.2 0,-0.1 0.1,-0.1 0.2,-0.1 0.3,0.1 0.5,0.3 0.6,0.3 l 0.3,-0.1 c 0.1,0 0.2,0 0.2,0.1 0,0.1 0,0.2 -0.1,0.2 l -0.3,0.2 c -0.1,-0.1 -0.1,-0.1 -0.1,-0.1 z m -0.1,0 z m 1.4,-0.7 c 0,0 -0.1,0 -0.1,-0.1 0,-0.1 0,-0.2 0.1,-0.2 0.3,-0.2 0.6,-0.4 1,-0.6 0.1,0 0.2,0 0.2,0.1 0,0.1 0,0.2 -0.1,0.2 -0.4,0.2 -0.8,0.4 -1.1,0.6 0,0 0,0 0,0 z m -3,-0.2 c 0,0 0,0 0,0 -0.4,-0.2 -0.7,-0.4 -1,-0.6 -0.1,0 -0.1,-0.1 -0.1,-0.2 0,-0.1 0.1,-0.1 0.2,-0.1 0.3,0.2 0.7,0.4 1,0.6 0.1,0 0.1,0.1 0.1,0.2 -0.1,0.1 -0.1,0.1 -0.2,0.1 z m 4.9,-0.9 c 0,0 -0.1,0 -0.1,-0.1 0,-0.1 0,-0.2 0,-0.2 0.4,-0.2 0.7,-0.4 1,-0.6 0.1,0 0.2,0 0.2,0 0,0.1 0,0.2 0,0.2 -0.3,0.2 -0.7,0.4 -1.1,0.7 0.1,0 0,0 0,0 z m -6.8,-0.2 c 0,0 0,0 0,0 -0.4,-0.2 -0.8,-0.4 -1,-0.6 -0.1,0 -0.1,-0.1 0,-0.2 0,-0.1 0.1,-0.1 0.2,0 0.3,0.2 0.6,0.4 1,0.6 0.1,0 0.1,0.1 0,0.2 -0.1,0 -0.1,0 -0.2,0 z m 8.7,-1 c 0,0 -0.1,0 -0.1,-0.1 0,-0.1 0,-0.2 0,-0.2 0.2,-0.2 0.4,-0.3 0.6,-0.4 0.1,-0.1 0.2,-0.2 0.3,-0.2 0.1,-0.1 0.1,0 0.2,0 0.1,0.1 0,0.1 0,0.2 -0.1,0.1 -0.2,0.2 -0.3,0.2 -0.1,0.1 -0.3,0.3 -0.7,0.5 0.1,0 0.1,0 0,0 z m -10.6,-0.2 c 0,0 0,0 0,0 -0.2,-0.1 -0.3,-0.2 -0.4,-0.3 -0.2,-0.1 -0.4,-0.3 -0.6,-0.5 -0.1,-0.1 -0.1,-0.1 0,-0.2 0.1,-0.1 0.1,-0.1 0.2,0 0.2,0.2 0.4,0.3 0.6,0.5 0.1,0.1 0.2,0.1 0.3,0.2 0.1,0 0.1,0.1 0,0.2 0,0.1 0,0.1 -0.1,0.1 z m 12.4,-1.2 c 0,0 -0.1,0 -0.1,0 -0.1,-0.1 -0.1,-0.1 0,-0.2 0.3,-0.2 0.5,-0.5 0.8,-0.8 0.1,-0.1 0.1,-0.1 0.2,0 0.1,0.1 0.1,0.1 0,0.2 -0.3,0.2 -0.6,0.5 -0.9,0.8 0,-0.1 0,0 0,0 z m -14.1,-0.3 c 0,0 -0.1,0 0,0 -0.4,-0.3 -0.6,-0.6 -0.9,-0.8 -0.1,-0.1 -0.1,-0.1 0,-0.2 0.1,-0.1 0.1,-0.1 0.2,0 0.3,0.3 0.5,0.5 0.8,0.8 0.1,0.1 0.1,0.1 0,0.2 0,0 -0.1,0 -0.1,0 z m 15.6,-1.4 c 0,0 -0.1,0 0,0 -0.2,-0.1 -0.2,-0.2 -0.1,-0.2 l 0.4,-0.4 c 0.1,-0.1 0.2,-0.3 0.3,-0.4 0,-0.1 0.1,-0.1 0.2,0 0.1,0 0.1,0.1 0,0.2 -0.1,0.1 -0.2,0.3 -0.3,0.4 l -0.4,0.5 c 0,-0.1 0,-0.1 -0.1,-0.1 z M 514.2,205 c 0,0 -0.1,0 -0.1,0 l -0.2,-0.2 c -0.2,-0.2 -0.4,-0.5 -0.6,-0.7 0,-0.1 0,-0.2 0,-0.2 0.1,0 0.2,0 0.2,0 0.2,0.2 0.4,0.4 0.6,0.7 l 0.2,0.2 c 0,0 0,0.1 -0.1,0.2 0,0 0,0 0,0 z m 18.5,-1.5 c 0,0 0,0 0,0 -0.1,-0.1 -0.2,-0.2 -0.1,-0.2 0.2,-0.3 0.4,-0.7 0.6,-0.9 0,-0.1 0.1,-0.1 0.2,-0.1 0.1,0 0.1,0.1 0.1,0.2 -0.2,0.3 -0.4,0.6 -0.6,1 -0.1,0 -0.1,0 -0.2,0 z m -19.9,-0.3 c 0,0 -0.1,0 -0.1,-0.1 -0.2,-0.3 -0.3,-0.5 -0.4,-0.7 0,-0.1 -0.1,-0.2 -0.1,-0.3 0,-0.1 0,-0.2 0.1,-0.2 0.1,0 0.2,0 0.2,0.1 0,0.1 0.1,0.2 0.1,0.3 0.1,0.2 0.2,0.4 0.4,0.7 0,0.1 -0.1,0.1 -0.2,0.2 0.1,0 0,0 0,0 z m 21,-1.7 c 0,0 -0.1,0 0,0 -0.1,0 -0.2,-0.1 -0.1,-0.2 0.1,-0.3 0.2,-0.7 0.3,-1.1 0,-0.1 0.1,-0.1 0.2,-0.1 0.1,0 0.1,0.1 0.1,0.2 -0.1,0.4 -0.2,0.8 -0.3,1.1 -0.1,0.1 -0.2,0.1 -0.2,0.1 z m -22,-0.3 c -0.1,0 -0.1,0 -0.1,-0.1 -0.1,-0.3 -0.2,-0.7 -0.3,-1.1 0,-0.1 0,-0.2 0.1,-0.2 0.1,0 0.2,0 0.2,0.1 0.1,0.4 0.2,0.7 0.3,1.1 0,0.1 0,0.2 -0.2,0.2 0.1,0 0.1,0 0,0 z m 22.5,-1.8 c 0,0 0,0 0,0 -0.1,0 -0.2,-0.1 -0.1,-0.2 0.1,-0.4 0.1,-0.7 0.2,-1.1 0,-0.1 0.1,-0.1 0.2,-0.1 0.1,0 0.1,0.1 0.1,0.2 -0.1,0.4 -0.1,0.8 -0.2,1.1 0,0 -0.1,0.1 -0.2,0.1 z m -23,-0.4 c -0.1,0 -0.1,0 -0.1,-0.1 -0.1,-0.4 -0.1,-0.7 -0.2,-1.1 0,-0.1 0,-0.1 0.1,-0.2 0.1,0 0.1,0 0.2,0.1 0,0.4 0.1,0.7 0.2,1.1 0,0.1 -0.1,0.2 -0.2,0.2 0,0 0,0 0,0 z m 23.4,-1.9 c 0,0 0,0 0,0 -0.1,0 -0.1,-0.1 -0.1,-0.2 0,-0.4 0.1,-0.8 0.1,-1.1 0,-0.1 0.1,-0.1 0.1,-0.1 0.1,0 0.1,0.1 0.1,0.1 0,0.4 0,0.7 -0.1,1.1 0,0.2 -0.1,0.2 -0.1,0.2 z M 511,196.8 c -0.1,0 -0.1,-0.1 -0.1,-0.1 0,-0.4 -0.1,-0.8 -0.1,-1.1 0,-0.1 0.1,-0.1 0.1,-0.1 0.1,0 0.1,0.1 0.1,0.1 0,0.4 0,0.7 0.1,1.1 0.1,0 0,0.1 -0.1,0.1 0,0 0,0 0,0 z m 23.8,-1.9 c -0.1,0 -0.1,-0.1 -0.1,-0.1 l -0.1,-1.1 c 0,-0.1 0.1,-0.1 0.1,-0.2 0.1,0 0.1,0.1 0.2,0.1 l 0.1,1.1 c -0.1,0.2 -0.1,0.2 -0.2,0.2 0,0 0,0 0,0 z M 511,194.5 c 0,0 0,0 0,0 -0.1,0 -0.1,-0.1 -0.1,-0.2 l 0.1,-0.9 c 0,-0.1 0,-0.2 0,-0.3 0,-0.1 0.1,-0.1 0.2,-0.1 0.1,0 0.1,0.1 0.1,0.2 0,0.1 0,0.2 0,0.3 l -0.1,0.8 c -0.1,0.2 -0.1,0.2 -0.2,0.2 z m 23.5,-1.8 c -0.1,0 -0.1,0 -0.1,-0.1 0,-0.1 -0.1,-0.3 -0.1,-0.4 -0.1,-0.2 -0.2,-0.5 -0.3,-0.7 0,-0.1 0,-0.2 0.1,-0.2 0.1,0 0.2,0 0.2,0.1 0.1,0.2 0.2,0.5 0.3,0.7 0,0.1 0.1,0.2 0.1,0.4 0,0.1 -0.1,0.2 -0.2,0.2 0,0 0,0 0,0 z m -23.2,-0.4 c 0,0 0,0 0,0 -0.1,0 -0.2,-0.1 -0.1,-0.2 0.1,-0.4 0.3,-0.7 0.4,-1.1 0,-0.1 0.1,-0.1 0.2,-0.1 0.1,0 0.1,0.1 0.1,0.2 -0.2,0.3 -0.3,0.7 -0.4,1 -0.1,0.2 -0.1,0.2 -0.2,0.2 z m 22.3,-1.6 c 0,0 -0.1,0 -0.1,-0.1 -0.2,-0.3 -0.4,-0.6 -0.7,-0.9 -0.1,-0.1 -0.1,-0.1 0,-0.2 0.1,-0.1 0.1,-0.1 0.2,0 0.3,0.3 0.5,0.6 0.7,0.9 0.1,0.1 0.1,0.2 -0.1,0.3 0.1,-0.1 0.1,0 0,0 z m -21.3,-0.4 c 0,0 0,0 0,0 -0.1,-0.1 -0.2,-0.2 -0.1,-0.2 0.2,-0.3 0.5,-0.6 0.8,-0.8 0.1,-0.1 0.1,0 0.2,0 0.1,0.1 0,0.1 0,0.2 -0.3,0.2 -0.5,0.5 -0.7,0.8 -0.1,0 -0.1,0 -0.2,0 z m 19.8,-1.2 c -0.1,0 -0.1,0 0,0 -0.4,-0.2 -0.7,-0.4 -1,-0.5 -0.1,0 -0.1,-0.1 -0.1,-0.2 0,-0.1 0.1,-0.1 0.2,-0.1 0.4,0.2 0.7,0.3 1,0.5 0.1,0 0.1,0.1 0,0.2 0,0 -0.1,0.1 -0.1,0.1 z M 514,188.9 c 0,0 -0.1,0 -0.1,-0.1 0,-0.1 0,-0.2 0.1,-0.2 0.3,-0.2 0.7,-0.3 1,-0.5 0.1,0 0.2,0 0.2,0.1 0,0.1 0,0.2 -0.1,0.2 -0.4,0.1 -0.7,0.3 -1.1,0.5 0,0 0,0 0,0 z m 16,-0.7 c 0,0 0,0 0,0 -0.2,-0.1 -0.4,-0.1 -0.6,-0.2 -0.2,0 -0.4,-0.1 -0.5,-0.1 -0.1,0 -0.1,-0.1 -0.1,-0.2 0,-0.1 0.1,-0.1 0.2,-0.1 0.2,0 0.3,0.1 0.5,0.1 0.2,0.1 0.4,0.1 0.6,0.2 0.1,0 0.1,0.1 0.1,0.2 -0.1,0 -0.1,0.1 -0.2,0.1 z m -13.9,-0.1 c -0.1,0 -0.1,0 -0.1,-0.1 0,-0.1 0,-0.2 0.1,-0.2 l 0.2,-0.1 c 0.3,-0.1 0.6,-0.2 0.9,-0.3 0.1,0 0.2,0 0.2,0.1 0,0.1 0,0.2 -0.1,0.2 -0.3,0.1 -0.6,0.2 -0.9,0.3 l -0.3,0.1 c 0,0 0,0 0,0 z m 11.8,-0.6 c 0,0 -0.1,0 0,0 -0.4,-0.1 -0.7,-0.2 -1.1,-0.4 -0.1,0 -0.1,-0.1 -0.1,-0.2 0,-0.1 0.1,-0.1 0.2,-0.1 0.4,0.1 0.8,0.2 1.1,0.4 0.1,0 0.1,0.1 0.1,0.2 -0.1,0.1 -0.2,0.1 -0.2,0.1 z m -9.7,-0.1 c -0.1,0 -0.1,0 -0.1,-0.1 0,-0.1 0,-0.2 0.1,-0.2 0.3,-0.1 0.7,-0.2 1.1,-0.3 0.1,0 0.2,0 0.2,0.1 0,0.1 0,0.2 -0.1,0.2 -0.4,0 -0.8,0.2 -1.2,0.3 0.1,0 0,0 0,0 z m 7.5,-0.6 c 0,0 0,0 0,0 -0.4,-0.1 -0.8,-0.2 -1.1,-0.3 -0.1,0 -0.1,-0.1 -0.1,-0.2 0,-0.1 0.1,-0.1 0.2,-0.1 0.3,0.1 0.7,0.2 1.1,0.3 0.1,0 0.1,0.1 0.1,0.2 0,0.1 -0.1,0.1 -0.2,0.1 z m -5.3,-0.1 c -0.1,0 -0.1,0 -0.1,-0.1 0,-0.1 0,-0.2 0.1,-0.2 0.4,-0.1 0.7,-0.2 1.1,-0.3 0.1,0 0.2,0 0.2,0.1 0,0.1 0,0.2 -0.1,0.2 -0.4,0 -0.8,0.2 -1.2,0.3 0,0 0,0 0,0 z m 3.2,-0.6 c 0,0 0,0 0,0 -0.4,-0.1 -0.6,-0.2 -0.7,-0.2 -0.1,0 -0.2,0 -0.3,0.1 -0.1,0 -0.2,0 -0.2,-0.1 0,-0.1 0,-0.2 0.1,-0.2 0.2,0 0.3,-0.1 0.3,-0.1 0,0 0,0 0.1,0 0,0 0.1,0 0.1,0 0.1,0 0.4,0.1 0.7,0.2 0.1,0 0.1,0.1 0.1,0.2 -0.1,0.1 -0.1,0.1 -0.2,0.1 z"
   class="st13"
   inkscape:connector-curvature="0"
   style="fill:#d9d9d9" />
	</g>
	<path
   id="path6061"
   d="m 522,189.2 c -0.2,0 -0.3,-0.1 -0.4,-0.3 -0.1,-0.2 0,-0.5 0.3,-0.5 0.1,0 0.6,-0.2 1,-0.2 0.4,0 0.9,0.2 0.9,0.2 0.2,0.1 0.3,0.3 0.3,0.5 -0.1,0.2 -0.3,0.3 -0.5,0.3 -0.1,-0.1 -0.4,-0.1 -0.6,-0.1 -0.3,0 -0.6,0.1 -0.7,0.1 -0.2,0 -0.3,0 -0.3,0 z"
   class="st16"
   inkscape:connector-curvature="0"
   style="opacity:0.56000001;fill:#d9d9d9" />
</g><g
       id="g6067"
       transform="translate(53.73372,666.93029)">
	<path
   id="path6065"
   d="m 497,173.9 c 2.4,2.9 4.7,5.8 7,8.7 1.2,1.4 2.4,2.9 3.4,4.4 1.1,1.5 2.1,3.1 3,4.7 l -0.1,0.1 c -1.3,-1.3 -2.5,-2.7 -3.7,-4.2 -1.2,-1.4 -2.2,-3 -3.3,-4.5 -2.1,-3.1 -4.3,-6.1 -6.3,-9.2 z"
   class="st1"
   inkscape:connector-curvature="0"
   style="fill:#ffffff" />
</g><g
       id="g6071"
       transform="translate(53.73372,666.93029)">
	<path
   id="path6069"
   d="m 547.8,173.7 c -2,3.1 -4.1,6.1 -6.1,9.1 -1,1.5 -2,3.1 -3.1,4.5 -1.1,1.4 -2.3,2.9 -3.6,4.2 l -0.1,-0.1 c 0.8,-1.6 1.8,-3.2 2.8,-4.7 1,-1.5 2.2,-2.9 3.3,-4.4 2.2,-2.9 4.5,-5.8 6.8,-8.6 z"
   class="st1"
   inkscape:connector-curvature="0"
   style="fill:#ffffff" />
</g><g
       id="g6075"
       transform="translate(53.73372,666.93029)">
	<path
   id="path6073"
   d="m 548,186.1 c -2.1,2.5 -4.1,4.9 -6.2,7.4 -1,1.2 -2,2.5 -3.2,3.6 -1.1,1.1 -2.3,2.3 -3.6,3.3 l -0.1,-0.1 c 0.9,-1.4 1.9,-2.6 2.9,-3.9 1,-1.2 2.2,-2.3 3.3,-3.5 2.3,-2.3 4.5,-4.6 6.9,-6.8 z"
   class="st1"
   inkscape:connector-curvature="0"
   style="fill:#ffffff" />
</g><path
       id="path6077"
       d="m 551.03372,839.63029 c -5.4,16.9 -4.1,71 -4.1,71 -0.1,3.7 4.5,5.4 6.9,2.7 0.3,-0.3 0.6,-0.7 0.8,-1.1 2.3,-3.1 3.5,-1.1 4.2,1.1 0.3,1.2 1.9,1.4 2.5,0.4 0.4,-0.6 0.8,-1.2 1.2,-1.5 1.3,-1.2 2.6,-0.7 3.7,0.4 1,1 2.7,0.2 2.6,-1.2 0,0 -25.8,-76.7 7,-85.2 5.2,-1.3 -19.1,-4.3 -24.8,13.4 z"
       class="st10"
       inkscape:connector-curvature="0"
       style="fill:#1d1d1b" /><path
       id="path6079"
       d="m 563.93372,1090.8303 11.7,3.3 1.1,16.8 -23.8,2.2 c -4.9,0.5 -9.6,-2 -11.9,-6.3 -1.6,-3.1 -1.7,-6.7 2.9,-9.8 6.6,-4.3 20,-6.2 20,-6.2 z"
       class="st20"
       inkscape:connector-curvature="0"
       style="fill:#422918" /><path
       id="path6081"
       d="m 590.93372,1090.8303 -11.7,3.3 -1.1,16.8 23.8,2.2 c 4.9,0.5 9.6,-2 11.9,-6.3 1.6,-3.1 1.7,-6.7 -2.9,-9.8 -6.6,-4.3 -20,-6.2 -20,-6.2 z"
       class="st20"
       inkscape:connector-curvature="0"
       style="fill:#422918" /><path
       id="path6083"
       d="m 900.03372,983.53029 c 0,0 4,82.00001 61.3,72.40001"
       class="st23"
       inkscape:connector-curvature="0"
       style="fill:none;stroke:#a37648;stroke-width:5;stroke-miterlimit:10" /><g
       id="g6087"
       transform="translate(53.73372,666.93029)">
	<path
   id="path6085"
   d="m 939.8,419.4 c -1.6,0 -3,-1.3 -3.1,-2.9 -0.1,-1.7 1.2,-3.2 2.9,-3.3 0.1,0 5.1,-0.5 8.1,-4.6 2.8,-3.8 3.3,-9.5 1.6,-17 -0.4,-1.7 0.7,-3.4 2.4,-3.8 1.7,-0.4 3.4,0.7 3.8,2.4 2.1,9.5 1.2,16.9 -2.8,22.2 -4.8,6.4 -12.3,7 -12.7,7 -0.1,0 -0.1,0 -0.2,0 z"
   class="st24"
   inkscape:connector-curvature="0"
   style="fill:#997047" />
</g><ellipse
       id="ellipse6089"
       ry="9.8999996"
       rx="13.9"
       cy="1093.7302"
       cx="944.13373"
       class="st24"
       style="fill:#997047" /><ellipse
       id="ellipse6091"
       ry="9.8999996"
       rx="13.9"
       cy="1093.7302"
       cx="991.2337"
       class="st24"
       style="fill:#997047" /><path
       id="path6093"
       d="m 944.93372,1058.6303 v 0 c -3.9,-1.3 -6,-5.6 -4.7,-9.5 l 7,-20.5 c 1.3,-3.9 5.6,-6 9.5,-4.7 v 0 c 3.9,1.3 6,5.6 4.7,9.5 l -7,20.5 c -1.3,4 -5.6,6.1 -9.5,4.7 z"
       class="st25"
       inkscape:connector-curvature="0"
       style="fill:#7f5e40" /><path
       id="path6095"
       d="m 992.13372,1058.6303 v 0 c 3.9,-1.3 6,-5.6 4.7,-9.5 l -7,-20.5 c -1.3,-3.9 -5.6,-6 -9.5,-4.7 v 0 c -3.9,1.3 -6,5.6 -4.7,9.5 l 7,20.5 c 1.3,4 5.6,6.1 9.5,4.7 z"
       class="st25"
       inkscape:connector-curvature="0"
       style="fill:#7f5e40" /><path
       id="path6097"
       d="m 995.23372,1088.3303 c 0,-16.8 -12,-40.1 -26.8,-40.1 -14.8,0 -26.7,23.4 -26.7,40.1 0,16.7 12,20.6 26.8,20.6 14.8,0 26.7,-3.8 26.7,-20.6 z"
       class="st26"
       inkscape:connector-curvature="0"
       style="fill:#b17f49" /><path
       id="path6099"
       d="m 830.53372,980.33029 h 13.5 c 3.2,0 5.9,-2.6 5.9,-5.9 v -33.7 c 0,-3.2 -2.6,-5.9 -5.9,-5.9 h -13.5 c -3.2,0 -5.9,2.6 -5.9,5.9 v 33.7 c 0.1,3.3 2.7,5.9 5.9,5.9 z"
       class="st27"
       inkscape:connector-curvature="0"
       style="fill:#a8182a" /><path
       id="path6101"
       d="m 850.13372,939.93029 v 1.6 c -17,14.2 -24,18.8 -27.7,22.5 v -24.1 c 0,-3.5 2.9,-6.4 6.4,-6.4 h 14.9 c 3.6,0 6.4,2.9 6.4,6.4 z"
       class="st28"
       inkscape:connector-curvature="0"
       style="fill:#bd1622" /><g
       id="g6105"
       transform="translate(53.73372,666.93029)">
	<path
   id="path6103"
   d="m 846.7,207.7 c -9.7,9.5 -23.8,0 -34.5,0 -9.6,0 -24.5,7.7 -31.4,-6 -0.5,-1 -0.3,-2.7 0.3,-3.5 6.5,-9.2 7.9,-22.6 9.2,-34.6 2.2,-21 28.7,-17.5 34.3,-17.1 5.1,0.3 9.9,2.4 13.1,8.5 3.8,7.3 2.4,15.6 2.3,24 -0.1,9.3 1.8,18.3 7.1,24.2 1.1,1.2 0.6,3.5 -0.4,4.5 z"
   class="st29"
   inkscape:connector-curvature="0"
   style="fill:#d3ac2f" />
</g><g
       id="g6109"
       transform="translate(53.73372,666.93029)">
	<path
   id="path6107"
   d="m 814.9,146.1 c -1.4,1.1 -2.6,2.5 -3.7,3.9 -2.9,3.8 -4.6,8.4 -5.7,13.1 -3.5,14.1 -1.9,29.4 4.3,42.5 0.4,0.8 0.7,1.5 1.1,2.2 -9.6,0.6 -23.4,7 -29.9,-6 -0.5,-1 -0.3,-2.7 0.3,-3.5 6.5,-9.1 7.9,-22.6 9.2,-34.6 1.4,-14.6 14.6,-17.4 24.4,-17.6 z"
   class="st30"
   inkscape:connector-curvature="0"
   style="fill:#c19c33" />
</g><path
       id="path6111"
       d="m 901.23372,989.73029 c 0.5,-0.8 0,-2 -0.9,-2.1 -0.2,0 -0.4,0 -0.6,0.1 -8,2.8 0.6,-11 1,-14.9 1.4,-12.3 -1.6,-39.7 -4.2,-59.3 -0.3,-2.1 -3.2,-2.4 -3.9,-0.4 -0.4,1.2 -0.7,2.6 -0.8,4 0,0 -6.8,26.4 -6.6,35.5 0.3,9.8 8,30.2 8.5,38.1 1.6,25.30001 -9.5,101.00001 -9.5,101.00001 0,1.2 7.1,2.8 8.2,3.2 5.1,1.9 18.3,7.5 10.4,13.1 -7.7,5.5 -22.3,2.2 -27.7,0.6 -1.2,-0.3 -2.1,-1.5 -2.1,-2.8 V 991.83029 c 0,-1.6 -1.3,-2.9 -2.9,-2.9 -0.1,0 -0.1,0 -0.2,0 0,0 0,0 0,0 -0.1,0 -0.2,0 -0.3,0 -1.6,0 -2.9,1.3 -2.9,2.9 v 113.90001 c 0,1.3 -0.9,2.4 -2.1,2.8 -5.4,1.5 -20,4.9 -27.7,-0.6 -7.8,-5.6 5.3,-11.2 10.4,-13.1 1.1,-0.4 8.2,-2 8.2,-3.2 0,0 -9.7,-75 -8.5,-100.10001 0.4,-8.1 8.4,-29 8.5,-39 0.1,-9.2 -7.6,-35.5 -7.6,-35.5 v -0.1 c -0.1,-2.5 -3.7,-2.6 -4.1,-0.2 -2.5,19.3 -5.1,44.3 -3.8,56 0.4,3.9 9,17.7 1,14.9 -0.2,-0.1 -0.4,-0.1 -0.6,-0.1 -1,0.1 -1.5,1.2 -0.9,2.1 1.4,2.2 6.3,10.40001 2.7,12.10001 -4.1,1.9 -13.6,-8.10001 -12.4,-25.30001 0,0 0,-0.1 0,-0.1 0,0 3.3,-50.1 3.5,-75.2 0.1,-7.3 4.6,-13.3 11.8,-14 l 14.1,-4.6 c 0.9,0 1.6,-2.3 2.1,-4.2 0.4,-1.5 -0.3,-3 -1.7,-3.7 -8.3,-3.7 -14.5,-12 -16.2,-22.3 -0.7,0.7 -1.5,1 -2.4,1 -2.5,0 -4.6,-3.2 -4.6,-7.1 0,-3.9 2.1,-7.1 4.6,-7.1 0.9,0 1.8,0.4 2.5,1.2 0.1,-0.5 0.2,-1 0.3,-1.5 0,1.2 1,7.5 1.5,5.7 1.4,-5.2 8.9,-15.9 13.2,-16.5 5.2,-0.8 8.4,-0.1 14.7,-0.1 6.1,0 3.5,3 8.5,1.7 3.4,-0.8 8.8,10.1 10.6,16.1 0.7,2.2 1.6,-5.2 1.6,-7.2 0.1,0.5 0.2,1 0.3,1.5 0.7,-0.6 1.4,-0.9 2.3,-0.9 2.5,0 4.6,3.2 4.6,7.1 0,3.9 -2,7.1 -4.6,7.1 -0.8,0 -1.5,-0.3 -2.1,-0.8 -1.7,9.8 -7.5,17.8 -15.3,21.6 -1.4,0.7 -2.1,2.4 -1.6,3.9 0.7,2 1.6,4.3 2.5,4.3 0,0 5.8,3.2 14,3.9 8.1,0.7 13.3,7.6 13.2,15.7 l 3.3,74.2 c 0,0 0,0.1 0,0.1 1.1,17.2 -8.3,27.20001 -12.4,25.30001 -3.2,-1.4 1.7,-9.60001 3.1,-11.80001 z"
       class="st4"
       inkscape:connector-curvature="0"
       style="fill:#64431F" /><path
       id="path6113"
       d="m 846.63372,971.33029 c 0,0 -4.4,4.1 -5.3,10.6 -2.1,14.9 5.1,61.50001 5.1,61.50001 0,1.2 0,2.3 0.1,3.5 l 3.1,41.6 h 19.9 v -92.60001 l 2.6,92.50001 h 19.9 l 3.7,-39.9 c 0.2,-2 0.2,-3.9 0.1,-5.9 0,0 6.7,-44.30001 4.2,-59.00001 -1.3,-7.9 -6.3,-12.3 -6.3,-12.3 z"
       class="st31"
       inkscape:connector-curvature="0"
       style="fill:#2e7099" /><path
       id="path6115"
       d="m 855.53372,1090.8303 11.7,3.3 1.1,16.8 -23.8,2.2 c -4.9,0.5 -9.6,-2 -11.9,-6.3 -1.6,-3.1 -1.7,-6.7 2.9,-9.8 6.6,-4.3 20,-6.2 20,-6.2 z"
       class="st27"
       inkscape:connector-curvature="0"
       style="fill:#a8182a" /><path
       id="path6117"
       d="m 884.53372,1090.8303 -11.7,3.3 -1.1,16.8 23.8,2.2 c 4.9,0.5 9.6,-2 11.9,-6.3 1.6,-3.1 1.7,-6.7 -2.9,-9.8 -6.6,-4.3 -20,-6.2 -20,-6.2 z"
       class="st27"
       inkscape:connector-curvature="0"
       style="fill:#a8182a" /><path
       id="path6119"
       d="m 856.83372,880.73029 -13.2,4.1 c -7.5,2.3 -12.7,9.1 -13.1,17 l -0.6,15.7 14.2,15 1.9,-9.4 3,19.5 c 1,6.5 0.9,13.1 -0.4,19.5 l -6.8,17.2 56.7,-0.6 -7.7,-14.9 c -1.9,-8.1 -2.1,-16.5 -0.4,-24.7 l 3.8,-19 1.4,9.2 15.3,-15.3 -1.4,-16.3 c -0.6,-6.6 -5.4,-12.1 -11.9,-13.6 l -15.5,-3.4 -10.5,34.9 z"
       class="st9"
       inkscape:connector-curvature="0"
       style="fill:#3c3c3b" /><path
       id="path6121"
       d="m 839.83372,989.73029 c 1.4,2.2 6.3,10.40001 2.7,12.10001 -4.1,1.9 -13.6,-8.10001 -12.4,-25.30001 0,0 0,-0.1 0,-0.1 0,0 0,-0.6 0.1,-1.8 h 10.5 c 1.8,5.2 7.7,15.7 0.6,13.2 -0.2,-0.1 -0.4,-0.1 -0.6,-0.1 -1,-0.1 -1.5,1.1 -0.9,2 z"
       class="st4"
       inkscape:connector-curvature="0"
       style="fill:#64431F" /><path
       id="path6123"
       d="m 898.53372,1001.7303 c -3.6,-1.6 1.3,-9.80001 2.7,-12.10001 0.5,-0.8 0,-2 -0.9,-2.1 -0.2,0 -0.4,0 -0.6,0.1 -7.1,2.5 -1.2,-8 0.6,-13.2 h 10.6 l 0.1,1.8 c 0,0 0,0.1 0,0.1 1.1,17.3 -8.4,27.30001 -12.5,25.40001 z"
       class="st4"
       inkscape:connector-curvature="0"
       style="fill:#64431F" /><path
       id="path6125"
       d="m 875.13372,825.73029 c -4.8,8.7 18,25.7 18,25.7 0,0 -11,-17.5 -4.6,-20.5 8.4,-3.9 -11.7,-8.4 -13.4,-5.2 z"
       class="st29"
       inkscape:connector-curvature="0"
       style="fill:#d3ac2f" /><g
       id="g6129"
       transform="translate(53.73372,666.93029)">
	<path
   id="path6127"
   d="m 789.8,185.5 c 2.3,2.2 4.7,4.5 7,6.8 1.2,1.1 2.4,2.2 3.4,3.4 1.1,1.2 2.1,2.5 3,3.8 l -0.1,0.1 c -1.3,-1 -2.5,-2.1 -3.7,-3.2 -1.2,-1.1 -2.2,-2.4 -3.3,-3.6 -2,-2.4 -4.2,-4.8 -6.3,-7.3 z"
   class="st1"
   inkscape:connector-curvature="0"
   style="fill:#ffffff" />
</g><g
       id="g6185"
       transform="translate(53.73372,666.93029)">
	<path
   id="path6131"
   d="m 815.8,185.3 c 0,0 0,0 0,0 v 0 c 0.1,0 0,0 0,0 z"
   class="st12"
   inkscape:connector-curvature="0"
   style="fill:#c5cf83" />
	<polygon
   id="polygon6133"
   points=""
   class="st12"
   style="fill:#c5cf83" />
	<path
   id="path6135"
   d="m 815.8,185.3 c 0,0.1 -0.1,0.2 -0.1,0.2 0.2,0.3 0.4,-0.2 0.1,-0.2 z"
   class="st12"
   inkscape:connector-curvature="0"
   style="fill:#c5cf83" />
	<path
   id="path6137"
   d="m 815.8,185.8 v 0 c 0,0.1 0,0.1 0,0.2 0,0.1 -0.1,0.7 0.1,0.6 0.1,0 0.2,-0.4 0.1,-0.6 -0.1,-0.1 -0.3,-0.2 -0.2,-0.2 z"
   class="st12"
   inkscape:connector-curvature="0"
   style="fill:#c5cf83" />
	<path
   id="path6139"
   d="m 819.5,187.4 0.1,-0.1 c 0,0 -0.5,0.1 -0.3,0.4 0.2,0.3 0.6,-0.3 0.2,-0.3 z"
   class="st12"
   inkscape:connector-curvature="0"
   style="fill:#c5cf83" />
	<path
   id="path6141"
   d="m 821.6,187.7 c 0,-0.1 0,-0.1 -0.1,-0.2 0,0 -0.1,0 -0.1,0 -0.2,0 -0.4,0.2 -0.3,0.4 0.1,0.2 0.5,0 0.5,-0.2 z"
   class="st12"
   inkscape:connector-curvature="0"
   style="fill:#c5cf83" />
	<path
   id="path6143"
   d="m 821.4,187.5 c 0,0 0,0 0,0 0.1,0 0.1,0 0.1,0 z"
   class="st12"
   inkscape:connector-curvature="0"
   style="fill:#c5cf83" />
	<path
   id="path6145"
   d="m 824.9,199.1 c -0.1,0 -0.1,0.2 -0.1,0.3 -0.1,0.1 -0.2,0.2 -0.3,0.3 -0.3,0.2 -1.1,0.5 -1,1 0,0.2 0.1,0.3 0,0.6 -0.1,0.2 -0.4,0.6 -0.3,0.8 0.2,0.7 0.8,0.2 1,-0.2 0.2,-0.5 0.2,-1 0.5,-1.3 0.4,-0.6 0.2,-1 0.2,-1.5 z"
   class="st12"
   inkscape:connector-curvature="0"
   style="fill:#c5cf83" />
	<path
   id="path6147"
   d="m 829.1,195 -0.1,-1.3 c -0.1,-0.6 -0.2,-1 -0.3,-1.5 -1.4,-4.2 -4.4,-4.3 -6.3,-5 -1.9,-0.7 -5.6,-1.8 -6.1,-1.9 0,0 0,0 -0.1,0 -0.5,0.1 -4.1,1.3 -6.1,1.9 -1.9,0.7 -4.9,0.8 -6.3,5 -0.1,0.4 -0.2,0.9 -0.3,1.5 l -0.1,1.3 c 0,2.8 0.6,6.4 1.5,8.2 0.4,0.7 1,1.6 1.8,2.5 l 0.9,1 c 0.9,0.9 1.8,1.8 2.4,2.3 1.4,1 5.6,3.4 6.2,3.7 0,0 0,0 0,0 0,0 0,0 0,0 0.5,-0.3 4.8,-2.7 6.2,-3.7 0.7,-0.5 1.6,-1.4 2.4,-2.3 l 0.9,-1 c 0.8,-0.9 1.4,-1.8 1.8,-2.5 1,-1.8 1.7,-5.4 1.6,-8.2 z"
   class="st1"
   inkscape:connector-curvature="0"
   style="fill:#ffffff" />
	<g
   id="g6151">
		<path
   id="path6149"
   d="m 818.3,204.7 c -0.2,0 -0.3,-0.1 -0.3,-0.3 0,-0.2 0.1,-0.3 0.3,-0.4 l 5,-0.7 c 0.2,0 0.3,0.1 0.4,0.3 0,0.2 -0.1,0.3 -0.3,0.4 l -5.1,0.7 c 0,0 0,0 0,0 z"
   class="st13"
   inkscape:connector-curvature="0"
   style="fill:#d9d9d9" />
	</g>
	<g
   id="g6155">
		<path
   id="path6153"
   d="m 818.2,202.8 c -0.1,0 -0.2,-0.1 -0.2,-0.2 0,-0.1 0.1,-0.2 0.2,-0.2 l 5,-0.7 c 0.1,0 0.2,0.1 0.2,0.2 0,0.1 -0.1,0.2 -0.2,0.2 l -5,0.7 c 0.1,0 0,0 0,0 z"
   class="st13"
   inkscape:connector-curvature="0"
   style="fill:#d9d9d9" />
	</g>
	<g
   id="g6159">
		<path
   id="path6157"
   d="m 818.2,200.7 c 0,0 -0.1,0 0,0 -0.1,-0.1 -0.1,-0.2 0,-0.2 l 5,-0.7 c 0.1,0 0.1,0 0.1,0.1 0,0.1 0,0.1 -0.1,0.1 l -5,0.7 c 0,0 0,0 0,0 z"
   class="st13"
   inkscape:connector-curvature="0"
   style="fill:#d9d9d9" />
	</g>
	<path
   id="path6161"
   d="m 804.7,190 c -3.2,4.3 -2.9,16.2 7.3,20.3 5,2.1 -2,-27.2 -7.3,-20.3 z"
   class="st14"
   inkscape:connector-curvature="0"
   style="opacity:0.65;fill:#575756" />
	<path
   id="path6163"
   d="m 816.3,185.3 c 0,0 0,0 0,0 -0.6,0.1 -4.2,1.3 -6.1,1.9 -1.9,0.7 -4.9,0.8 -6.3,5 -0.1,0.4 -0.2,0.9 -0.3,1.5 l -0.1,1.3 c 0,2.8 0.6,6.4 1.5,8.2 0.4,0.7 1,1.6 1.8,2.5 l 0.9,1 c 0.9,0.9 1.8,1.8 2.4,2.3 1.4,1 5.6,3.4 6.2,3.7 0,0 0,0 0,0 0,0 0,0 0,0 0,-4.2 0,-22.6 0,-27.4 z"
   class="st15"
   inkscape:connector-curvature="0"
   style="fill:#ececec" />
	<g
   id="g6167">
		<path
   id="path6165"
   d="m 814.6,204.7 c 0,0 0,0 0,0 l -5,-0.7 c -0.2,0 -0.3,-0.2 -0.3,-0.4 0,-0.2 0.2,-0.3 0.4,-0.3 l 5,0.7 c 0.2,0 0.3,0.2 0.3,0.4 -0.1,0.2 -0.2,0.3 -0.4,0.3 z"
   class="st13"
   inkscape:connector-curvature="0"
   style="fill:#d9d9d9" />
	</g>
	<g
   id="g6171">
		<path
   id="path6169"
   d="m 814.6,202.8 c 0,0 0,0 0,0 l -5,-0.7 c -0.1,0 -0.2,-0.1 -0.2,-0.2 0,-0.1 0.1,-0.2 0.2,-0.2 l 5,0.7 c 0.1,0 0.2,0.1 0.2,0.2 -0.1,0.1 -0.1,0.2 -0.2,0.2 z"
   class="st13"
   inkscape:connector-curvature="0"
   style="fill:#d9d9d9" />
	</g>
	<g
   id="g6175">
		<path
   id="path6173"
   d="m 814.6,200.7 c 0,0 0,0 0,0 l -5,-0.7 c -0.1,0 -0.1,-0.1 -0.1,-0.1 0,0 0.1,-0.1 0.1,-0.1 l 5,0.7 c 0,0 0.1,0.1 0,0.2 0.1,0 0,0 0,0 z"
   class="st13"
   inkscape:connector-curvature="0"
   style="fill:#d9d9d9" />
	</g>
	<path
   id="path6177"
   d="m 821.7,192 c 0,0 -4.2,-2.2 -5.5,-2.2 -1.3,0 -5.5,2.2 -5.5,2.2 0,0 -1.2,0.3 -0.6,-0.9 0.6,-1.1 4.8,-2.8 6,-2.8 1.4,0 5.4,1.7 6,2.8 0.9,1.2 -0.4,0.9 -0.4,0.9 z"
   class="st8"
   inkscape:connector-curvature="0"
   style="fill:#b1b1b1" />
	<g
   id="g6181">
		<path
   id="path6179"
   d="m 816.3,211.8 c 0,0 -0.1,0 -0.1,0 v 0 c -0.1,-0.1 -0.3,-0.2 -0.6,-0.3 -0.1,0 -0.1,-0.1 -0.1,-0.2 0,-0.1 0.1,-0.1 0.2,-0.1 0.3,0.1 0.5,0.3 0.6,0.3 l 0.3,-0.1 c 0.1,0 0.2,0 0.2,0.1 0,0.1 0,0.2 -0.1,0.2 l -0.3,0.2 c 0,-0.1 -0.1,-0.1 -0.1,-0.1 z m -0.1,0 z m 1.4,-0.7 c 0,0 -0.1,0 -0.1,-0.1 0,-0.1 0,-0.2 0.1,-0.2 0.3,-0.2 0.6,-0.4 1,-0.6 0.1,0 0.2,0 0.2,0.1 0,0.1 0,0.2 -0.1,0.2 -0.4,0.2 -0.7,0.4 -1.1,0.6 0.1,0 0,0 0,0 z m -2.9,-0.2 c -0.1,0 -0.1,0 0,0 -0.4,-0.2 -0.7,-0.4 -1,-0.6 -0.1,0 -0.1,-0.1 -0.1,-0.2 0,-0.1 0.1,-0.1 0.2,-0.1 0.3,0.2 0.7,0.4 1,0.6 0.1,0 0.1,0.1 0.1,0.2 -0.1,0.1 -0.2,0.1 -0.2,0.1 z m 4.8,-0.9 c 0,0 -0.1,0 -0.1,-0.1 0,-0.1 0,-0.2 0,-0.2 0.3,-0.2 0.7,-0.4 1,-0.6 0.1,0 0.2,0 0.2,0 0,0.1 0,0.2 0,0.2 -0.3,0.2 -0.6,0.4 -1.1,0.7 0.1,0 0.1,0 0,0 z m -6.8,-0.2 c 0,0 0,0 0,0 -0.4,-0.2 -0.8,-0.4 -1,-0.6 -0.1,0 -0.1,-0.1 0,-0.2 0,-0.1 0.1,-0.1 0.2,0 0.3,0.2 0.6,0.4 1,0.6 0.1,0 0.1,0.1 0,0.2 -0.1,0 -0.1,0 -0.2,0 z m 8.8,-1 c 0,0 -0.1,0 -0.1,-0.1 0,-0.1 0,-0.2 0,-0.2 0.2,-0.2 0.4,-0.3 0.6,-0.4 0.1,-0.1 0.2,-0.2 0.3,-0.2 0.1,-0.1 0.1,0 0.2,0 0.1,0.1 0,0.1 0,0.2 -0.1,0.1 -0.2,0.2 -0.3,0.2 -0.2,0.1 -0.4,0.3 -0.7,0.5 0,0 0,0 0,0 z m -10.7,-0.2 c 0,0 0,0 0,0 -0.2,-0.1 -0.3,-0.2 -0.4,-0.3 -0.2,-0.1 -0.4,-0.3 -0.6,-0.5 -0.1,-0.1 -0.1,-0.1 0,-0.2 0.1,-0.1 0.1,-0.1 0.2,0 0.2,0.2 0.4,0.3 0.6,0.5 0.1,0.1 0.2,0.1 0.3,0.2 0.1,0 0.1,0.1 0,0.2 0,0 0,0.1 -0.1,0.1 z m 12.4,-1.2 c 0,0 -0.1,0 -0.1,0 -0.1,-0.1 -0.1,-0.1 0,-0.2 0.3,-0.2 0.5,-0.5 0.8,-0.8 0.1,-0.1 0.1,-0.1 0.2,0 0.1,0.1 0.1,0.1 0,0.2 -0.3,0.2 -0.5,0.5 -0.9,0.8 0.1,-0.1 0,0 0,0 z m -14.1,-0.3 c 0,0 0,0 0,0 -0.4,-0.3 -0.6,-0.6 -0.9,-0.8 -0.1,-0.1 -0.1,-0.1 0,-0.2 0.1,-0.1 0.1,-0.1 0.2,0 0.3,0.3 0.5,0.5 0.8,0.8 0.1,0.1 0.1,0.1 0,0.2 0,0 0,0 -0.1,0 z m 15.6,-1.4 c 0,0 0,0 0,0 -0.2,-0.1 -0.2,-0.2 -0.1,-0.2 l 0.4,-0.4 c 0.1,-0.1 0.2,-0.3 0.3,-0.4 0,-0.1 0.1,-0.1 0.2,0 0.1,0 0.1,0.1 0,0.2 -0.1,0.1 -0.2,0.3 -0.3,0.4 l -0.4,0.5 c 0,-0.1 0,-0.1 -0.1,-0.1 z m -17.1,-0.2 c 0,0 -0.1,0 -0.1,0 l -0.2,-0.2 c -0.2,-0.2 -0.4,-0.5 -0.6,-0.7 0,-0.1 0,-0.2 0,-0.2 0.1,0 0.2,0 0.2,0 0.2,0.2 0.4,0.4 0.6,0.7 l 0.2,0.2 c 0.1,0 0.1,0.1 -0.1,0.2 0.1,0 0,0 0,0 z m 18.6,-1.5 c -0.1,0 -0.1,0 0,0 -0.1,-0.1 -0.2,-0.2 -0.1,-0.2 0.2,-0.3 0.4,-0.7 0.6,-0.9 0,-0.1 0.1,-0.1 0.2,-0.1 0.1,0 0.1,0.1 0.1,0.2 -0.2,0.3 -0.4,0.6 -0.6,1 -0.2,0 -0.2,0 -0.2,0 z m -20,-0.3 c 0,0 -0.1,0 -0.1,-0.1 -0.2,-0.3 -0.3,-0.5 -0.4,-0.7 0,-0.1 -0.1,-0.2 -0.1,-0.3 0,-0.1 0,-0.2 0.1,-0.2 0.1,0 0.2,0 0.2,0.1 0,0.1 0.1,0.2 0.1,0.3 0.1,0.2 0.2,0.4 0.4,0.7 0,0 0,0.1 -0.2,0.2 0.1,0 0.1,0 0,0 z m 21,-1.7 c 0,0 0,0 0,0 -0.1,0 -0.2,-0.1 -0.1,-0.2 0.1,-0.3 0.2,-0.7 0.3,-1.1 0,-0.1 0.1,-0.1 0.2,-0.1 0.1,0 0.1,0.1 0.1,0.2 -0.1,0.4 -0.2,0.8 -0.3,1.1 -0.1,0.1 -0.1,0.1 -0.2,0.1 z m -21.9,-0.3 c -0.1,0 -0.1,0 -0.1,-0.1 -0.1,-0.3 -0.2,-0.7 -0.3,-1.1 0,-0.1 0,-0.2 0.1,-0.2 0.1,0 0.2,0 0.2,0.1 0.1,0.4 0.2,0.7 0.3,1.1 -0.1,0.1 -0.1,0.1 -0.2,0.2 0,0 0,0 0,0 z m 22.5,-1.9 c 0,0 0,0 0,0 -0.1,0 -0.2,-0.1 -0.1,-0.2 0.1,-0.4 0.1,-0.7 0.2,-1.1 0,-0.1 0.1,-0.1 0.2,-0.1 0.1,0 0.1,0.1 0.1,0.2 -0.1,0.4 -0.1,0.8 -0.2,1.1 -0.1,0.1 -0.2,0.1 -0.2,0.1 z m -23.1,-0.3 c -0.1,0 -0.1,0 -0.1,-0.1 -0.1,-0.4 -0.1,-0.7 -0.2,-1.1 0,-0.1 0,-0.1 0.1,-0.2 0.1,0 0.1,0 0.2,0.1 0,0.4 0.1,0.7 0.2,1.1 0,0.1 -0.1,0.2 -0.2,0.2 0.1,0 0.1,0 0,0 z m 23.4,-1.9 c 0,0 0,0 0,0 -0.1,0 -0.1,-0.1 -0.1,-0.2 0,-0.4 0.1,-0.8 0.1,-1.1 0,-0.1 0.1,-0.1 0.1,-0.1 0.1,0 0.1,0.1 0.1,0.1 0,0.4 0,0.7 -0.1,1.1 0,0.2 0,0.2 -0.1,0.2 z m -23.6,-0.3 c -0.1,0 -0.1,-0.1 -0.1,-0.1 0,-0.4 -0.1,-0.8 -0.1,-1.1 0,-0.1 0.1,-0.1 0.1,-0.1 0.1,0 0.1,0.1 0.1,0.1 0,0.4 0,0.7 0.1,1.1 0,0 -0.1,0.1 -0.1,0.1 0,0 0,0 0,0 z m 23.7,-1.9 c -0.1,0 -0.1,-0.1 -0.1,-0.1 l -0.1,-1.1 c 0,-0.1 0.1,-0.1 0.1,-0.2 0.1,0 0.1,0.1 0.2,0.1 l 0.1,1.1 c -0.1,0.1 -0.1,0.2 -0.2,0.2 0,0 0,0 0,0 z M 804.4,195 c 0,0 0,0 0,0 -0.1,0 -0.1,-0.1 -0.1,-0.2 l 0.1,-0.9 c 0,-0.1 0,-0.2 0,-0.3 0,-0.1 0.1,-0.1 0.2,-0.1 0.1,0 0.1,0.1 0.1,0.2 0,0.1 0,0.2 0,0.3 l -0.1,0.8 c 0,0.2 -0.1,0.2 -0.2,0.2 z m 23.6,-1.8 c -0.1,0 -0.1,0 -0.1,-0.1 0,-0.1 -0.1,-0.3 -0.1,-0.4 -0.1,-0.2 -0.2,-0.5 -0.3,-0.7 0,-0.1 0,-0.2 0.1,-0.2 0.1,0 0.2,0 0.2,0.1 0.1,0.2 0.2,0.5 0.3,0.7 0,0.1 0.1,0.2 0.1,0.4 -0.1,0.1 -0.1,0.2 -0.2,0.2 0,0 0,0 0,0 z m -23.3,-0.4 c 0,0 0,0 0,0 -0.1,0 -0.2,-0.1 -0.1,-0.2 0.1,-0.4 0.3,-0.7 0.4,-1.1 0,-0.1 0.1,-0.1 0.2,-0.1 0.1,0 0.1,0.1 0.1,0.2 -0.2,0.3 -0.3,0.7 -0.4,1 0,0.2 -0.1,0.2 -0.2,0.2 z m 22.4,-1.7 c 0,0 -0.1,0 -0.1,-0.1 -0.2,-0.3 -0.4,-0.6 -0.7,-0.9 -0.1,-0.1 -0.1,-0.1 0,-0.2 0.1,-0.1 0.1,-0.1 0.2,0 0.3,0.3 0.5,0.6 0.7,0.9 0,0.2 0,0.3 -0.1,0.3 0,0 0,0 0,0 z m -21.3,-0.3 c -0.1,0 -0.1,0 0,0 -0.1,-0.1 -0.2,-0.2 -0.1,-0.2 0.2,-0.3 0.5,-0.6 0.8,-0.8 0.1,-0.1 0.1,0 0.2,0 0.1,0.1 0,0.1 0,0.2 -0.3,0.2 -0.5,0.5 -0.7,0.8 -0.2,0 -0.2,0 -0.2,0 z m 19.7,-1.2 c 0,0 -0.1,-0.1 0,0 -0.4,-0.2 -0.7,-0.4 -1,-0.5 -0.1,0 -0.1,-0.1 -0.1,-0.2 0,-0.1 0.1,-0.1 0.2,-0.1 0.4,0.2 0.7,0.3 1,0.5 0.1,0 0.1,0.1 0,0.2 0,0 -0.1,0.1 -0.1,0.1 z m -18.1,-0.3 c 0,0 -0.1,0 -0.1,-0.1 0,-0.1 0,-0.2 0.1,-0.2 0.3,-0.2 0.7,-0.3 1,-0.5 0.1,0 0.2,0 0.2,0.1 0,0.1 0,0.2 -0.1,0.2 -0.4,0.2 -0.7,0.4 -1.1,0.5 0.1,0 0,0 0,0 z m 16.1,-0.6 c -0.1,0 -0.1,0 0,0 -0.2,-0.1 -0.4,-0.1 -0.6,-0.2 -0.2,0 -0.4,-0.1 -0.5,-0.1 -0.1,0 -0.1,-0.1 -0.1,-0.2 0,-0.1 0.1,-0.1 0.2,-0.1 0.2,0 0.3,0.1 0.5,0.1 0.2,0.1 0.4,0.1 0.6,0.2 0.1,0 0.1,0.1 0.1,0.2 -0.1,0 -0.2,0.1 -0.2,0.1 z m -14,-0.2 c -0.1,0 -0.1,0 -0.1,-0.1 0,-0.1 0,-0.2 0.1,-0.2 l 0.2,-0.1 c 0.3,-0.1 0.6,-0.2 0.9,-0.3 0.1,0 0.2,0 0.2,0.1 0,0.1 0,0.2 -0.1,0.2 -0.3,0.1 -0.6,0.2 -0.9,0.3 l -0.3,0.1 c 0,0 0,0 0,0 z m 11.8,-0.5 c 0,0 0,0 0,0 -0.4,-0.1 -0.7,-0.2 -1.1,-0.4 -0.1,0 -0.1,-0.1 -0.1,-0.2 0,-0.1 0.1,-0.1 0.2,-0.1 0.4,0.1 0.8,0.2 1.1,0.4 0.1,0 0.1,0.1 0.1,0.2 -0.1,0.1 -0.1,0.1 -0.2,0.1 z m -9.6,-0.1 c -0.1,0 -0.1,0 -0.1,-0.1 0,-0.1 0,-0.2 0.1,-0.2 0.3,-0.1 0.7,-0.2 1.1,-0.3 0.1,0 0.2,0 0.2,0.1 0,0.1 0,0.2 -0.1,0.2 -0.5,0 -0.9,0.1 -1.2,0.3 0,0 0,0 0,0 z m 7.5,-0.6 c 0,0 -0.1,0 0,0 -0.4,-0.1 -0.8,-0.2 -1.1,-0.3 -0.1,0 -0.1,-0.1 -0.1,-0.2 0,-0.1 0.1,-0.1 0.2,-0.1 0.3,0.1 0.7,0.2 1.1,0.3 0.1,0 0.1,0.1 0.1,0.2 -0.1,0.1 -0.2,0.1 -0.2,0.1 z m -5.4,-0.1 c -0.1,0 -0.1,0 -0.1,-0.1 0,-0.1 0,-0.2 0.1,-0.2 0.4,-0.1 0.7,-0.2 1.1,-0.3 0.1,0 0.2,0 0.2,0.1 0,0.1 0,0.2 -0.1,0.2 -0.4,0 -0.8,0.2 -1.2,0.3 0,0 0,0 0,0 z m 3.2,-0.6 c 0,0 0,0 0,0 -0.4,-0.1 -0.6,-0.2 -0.7,-0.2 -0.1,0 -0.2,0 -0.3,0.1 -0.1,0 -0.2,0 -0.2,-0.1 0,-0.1 0,-0.2 0.1,-0.2 0.2,0 0.3,-0.1 0.3,-0.1 0,0 0,0 0.1,0 0,0 0.1,0 0.1,0 0.1,0 0.4,0.1 0.7,0.2 0.1,0 0.1,0.1 0.1,0.2 -0.1,0.1 -0.1,0.1 -0.2,0.1 z"
   class="st13"
   inkscape:connector-curvature="0"
   style="fill:#d9d9d9" />
	</g>
	<path
   id="path6183"
   d="m 815.4,189.7 c -0.2,0 -0.3,-0.1 -0.4,-0.3 -0.1,-0.2 0,-0.5 0.3,-0.5 0.1,0 0.6,-0.2 1,-0.2 0.4,0 0.9,0.2 0.9,0.2 0.2,0.1 0.3,0.3 0.3,0.5 -0.1,0.2 -0.3,0.3 -0.5,0.3 -0.1,-0.1 -0.4,-0.1 -0.6,-0.1 -0.3,0 -0.6,0.1 -0.7,0.1 -0.2,0 -0.2,0 -0.3,0 z"
   class="st16"
   inkscape:connector-curvature="0"
   style="opacity:0.56000001;fill:#d9d9d9" />
</g><g
       id="g6189"
       transform="translate(53.73372,666.93029)">
	<path
   id="path6187"
   d="m 790.4,174.4 c 2.4,2.9 4.7,5.8 7,8.7 1.2,1.4 2.4,2.9 3.4,4.4 1.1,1.5 2.1,3.1 3,4.7 l -0.1,0.1 c -1.3,-1.3 -2.5,-2.7 -3.7,-4.2 -1.2,-1.4 -2.2,-3 -3.3,-4.5 -2.1,-3.1 -4.2,-6.1 -6.3,-9.2 z"
   class="st1"
   inkscape:connector-curvature="0"
   style="fill:#ffffff" />
</g><g
       id="g6193"
       transform="translate(53.73372,666.93029)">
	<path
   id="path6191"
   d="m 841.2,174.2 c -2,3.1 -4.1,6.1 -6.1,9.1 -1,1.5 -2,3.1 -3.1,4.5 -1.1,1.4 -2.3,2.9 -3.6,4.2 l -0.1,-0.1 c 0.8,-1.6 1.8,-3.2 2.8,-4.7 1,-1.5 2.2,-2.9 3.3,-4.4 2.3,-2.9 4.5,-5.8 6.8,-8.6 z"
   class="st1"
   inkscape:connector-curvature="0"
   style="fill:#ffffff" />
</g><g
       id="g6197"
       transform="translate(53.73372,666.93029)">
	<path
   id="path6195"
   d="m 841.4,186.6 c -2.1,2.5 -4.1,4.9 -6.2,7.4 -1,1.2 -2,2.5 -3.2,3.6 -1.1,1.1 -2.3,2.3 -3.6,3.3 l -0.1,-0.1 c 0.9,-1.4 1.9,-2.6 2.9,-3.9 1,-1.2 2.2,-2.3 3.3,-3.5 2.3,-2.3 4.6,-4.6 6.9,-6.8 z"
   class="st1"
   inkscape:connector-curvature="0"
   style="fill:#ffffff" />
</g><path
       id="path6199"
       d="m 846.33372,884.53029 c 1.5,9 7.2,46.5 1.5,50.4 -1.9,7.4 -0.1,10.7 1.6,11.2 11.2,-6.8 5.2,-51.2 3.4,-62.6 -0.2,-1.5 -1.7,-2.4 -3.2,-2 l -1.7,0.5 c -1.1,0.3 -1.7,1.4 -1.6,2.5 z"
       class="st28"
       inkscape:connector-curvature="0"
       style="fill:#bd1622" /><circle
       id="circle6201"
       r="16.5"
       cy="1037.0303"
       cx="968.53369"
       class="st26"
       style="fill:#b17f49" /><ellipse
       id="ellipse6203"
       ry="9.6000004"
       rx="14.6"
       cy="1048.5303"
       cx="968.83368"
       class="st32"
       style="fill:#c69c73" /><path
       id="path6205"
       d="m 961.33372,1039.9303 c 2.4,9.5 12.5,9.5 14.1,0 0.4,-2.2 -14.6,-2.2 -14.1,0 z"
       class="st9"
       inkscape:connector-curvature="0"
       style="fill:#3c3c3b" /><path
       id="path6207"
       d="m 965.63372,1033.5303 c -1.2,-7.7 -6.3,-7.7 -7.1,0 -0.1,1.8 7.4,1.8 7.1,0 z"
       class="st9"
       inkscape:connector-curvature="0"
       style="fill:#3c3c3b" /><path
       id="path6209"
       d="m 977.83372,1033.5303 c -1.2,-7.7 -6.3,-7.7 -7.1,0 -0.2,1.8 7.3,1.8 7.1,0 z"
       class="st9"
       inkscape:connector-curvature="0"
       style="fill:#3c3c3b" /><path
       id="path6211"
       d="m 968.53372,1047.3303 c 0,0 0.8,9.3 -9.2,4.9"
       class="st33"
       inkscape:connector-curvature="0"
       style="fill:none" /><path
       id="path6213"
       d="m 968.53372,1047.5303 c 0,0 -0.8,9.3 9.2,4.9"
       class="st33"
       inkscape:connector-curvature="0"
       style="fill:none" /><path
       id="path6215"
       d="m 949.83372,1084.5303 c 0,0 3.6,23.1 1,26.8 -2.6,3.7 -4,5.2 -1.9,5.6 2,0.4 4.1,-0.4 5.4,-0.8 1.3,-0.4 3.3,0.9 3.3,0.9 l 3.1,-1.1 c 0,0 1.1,1 3.2,1.1 2.1,0.1 -5.5,-21.5 1.8,-33.1"
       class="st26"
       inkscape:connector-curvature="0"
       style="fill:#b17f49" /><path
       id="path6217"
       d="m 984.73372,1084.5303 c 0,0 -3.6,23.1 -1,26.8 2.6,3.7 4,5.2 1.9,5.6 -2,0.4 -4.1,-0.4 -5.4,-0.8 -1.2,-0.4 -3.3,0.9 -3.3,0.9 l -3.1,-1.1 c 0,0 -1.1,1 -3.2,1.1 -2.1,0 5.5,-21.5 -1.8,-33.1"
       class="st26"
       inkscape:connector-curvature="0"
       style="fill:#b17f49" /><g
       id="g6229"
       transform="translate(53.73372,666.93029)">
	<path
   id="path6219"
   d="m 324.4,334.7 -16.6,-16.6 c -2.6,-2.6 -2.6,-6.8 0,-9.3 l 16.6,-16.6"
   class="st34"
   inkscape:connector-curvature="0"
   style="fill:none;stroke:#71aaa6;stroke-width:10;stroke-linecap:round;stroke-miterlimit:10" />
	<path
   id="path6221"
   d="M 439.4,334.7 456,318.1 c 2.6,-2.6 2.6,-6.8 0,-9.3 l -16.6,-16.6"
   class="st34"
   inkscape:connector-curvature="0"
   style="fill:none;stroke:#71aaa6;stroke-width:10;stroke-linecap:round;stroke-miterlimit:10" />
	<line
   id="line6223"
   y2="313.39999"
   x2="350"
   y1="313.39999"
   x1="328.5"
   class="st34"
   style="fill:none;stroke:#71aaa6;stroke-width:10;stroke-linecap:round;stroke-miterlimit:10" />
	<line
   id="line6225"
   y2="313.39999"
   x2="392.5"
   y1="313.39999"
   x1="371"
   class="st34"
   style="fill:none;stroke:#71aaa6;stroke-width:10;stroke-linecap:round;stroke-miterlimit:10" />
	<line
   id="line6227"
   y2="313.39999"
   x2="435"
   y1="313.39999"
   x1="413.5"
   class="st34"
   style="fill:none;stroke:#71aaa6;stroke-width:10;stroke-linecap:round;stroke-miterlimit:10" />
</g><g
       id="g6241"
       transform="translate(53.73372,666.93029)">
	<path
   id="path6231"
   d="m 611.4,334.7 -16.6,-16.6 c -2.6,-2.6 -2.6,-6.8 0,-9.3 l 16.6,-16.6"
   class="st34"
   inkscape:connector-curvature="0"
   style="fill:none;stroke:#71aaa6;stroke-width:10;stroke-linecap:round;stroke-miterlimit:10" />
	<path
   id="path6233"
   d="m 726.5,334.7 16.6,-16.6 c 2.6,-2.6 2.6,-6.8 0,-9.3 l -16.6,-16.6"
   class="st34"
   inkscape:connector-curvature="0"
   style="fill:none;stroke:#71aaa6;stroke-width:10;stroke-linecap:round;stroke-miterlimit:10" />
	<line
   id="line6235"
   y2="313.39999"
   x2="637"
   y1="313.39999"
   x1="615.5"
   class="st34"
   style="fill:none;stroke:#71aaa6;stroke-width:10;stroke-linecap:round;stroke-miterlimit:10" />
	<line
   id="line6237"
   y2="313.39999"
   x2="679.5"
   y1="313.39999"
   x1="658"
   class="st34"
   style="fill:none;stroke:#71aaa6;stroke-width:10;stroke-linecap:round;stroke-miterlimit:10" />
	<line
   id="line6239"
   y2="313.39999"
   x2="722"
   y1="313.39999"
   x1="700.5"
   class="st34"
   style="fill:none;stroke:#71aaa6;stroke-width:10;stroke-linecap:round;stroke-miterlimit:10" />
</g></g></g><style
   id="style5817"
   type="text/css">
	.st0{fill:#D5F7F7;}
	.st1{fill:#FFFFFF;}
	.st2{fill:#55514B;}
	.st3{fill:#42403C;}
	.st4{fill:#64431F;}
	.st5{fill:#64431F;}
	.st6{fill:#6C7C9E;}
	.st7{fill:#CABA9F;}
	.st8{fill:#B1B1B1;}
	.st9{fill:#3C3C3B;}
	.st10{fill:#1D1D1B;}
	.st11{fill:#3A2612;}
	.st12{fill:#C5CF83;}
	.st13{fill:#D9D9D9;}
	.st14{opacity:0.65;fill:#575756;}
	.st15{fill:#ECECEC;}
	.st16{opacity:0.56;fill:#D9D9D9;}
	.st17{fill:#9C9B9B;}
	.st18{fill:#6F6F6E;}
	.st19{fill:#575756;}
	.st20{fill:#422918;}
	.st21{fill:#35A8E0;}
	.st22{fill:#F5F5F5;}
	.st23{fill:none;stroke:#A37648;stroke-width:5;stroke-miterlimit:10;}
	.st24{fill:#997047;}
	.st25{fill:#7F5E40;}
	.st26{fill:#B17F49;}
	.st27{fill:#A8182A;}
	.st28{fill:#BD1622;}
	.st29{fill:#D3AC2F;}
	.st30{fill:#C19C33;}
	.st31{fill:#2E7099;}
	.st32{fill:#C69C73;}
	.st33{fill:none;}
	.st34{fill:none;stroke:#71AAA6;stroke-width:10;stroke-linecap:round;stroke-miterlimit:10;}
</style></svg>