<?xml version="1.0" encoding="UTF-8" standalone="no"?>
<!-- Created with Inkscape (http://www.inkscape.org/) -->

<svg
   xmlns:dc="http://purl.org/dc/elements/1.1/"
   xmlns:cc="http://creativecommons.org/ns#"
   xmlns:rdf="http://www.w3.org/1999/02/22-rdf-syntax-ns#"
   xmlns:svg="http://www.w3.org/2000/svg"
   xmlns="http://www.w3.org/2000/svg"
   xmlns:sodipodi="http://sodipodi.sourceforge.net/DTD/sodipodi-0.dtd"
   xmlns:inkscape="http://www.inkscape.org/namespaces/inkscape"
   width="4000"
   height="4000"
   viewBox="0 0 1058.3333 1058.3334"
   version="1.1"
   id="svg8"
   inkscape:version="0.92.4 (5da689c313, 2019-01-14)"
   sodipodi:docname="stay home.svg"
   inkscape:export-filename="C:\Users\Agus\Documents\habibati\LOGO\miekangkung_bg_transparan.png"
   inkscape:export-xdpi="300"
   inkscape:export-ydpi="300">
  <defs
     id="defs2" />
  <sodipodi:namedview
     id="base"
     pagecolor="#ffffff"
     bordercolor="#666666"
     borderopacity="1.0"
     inkscape:pageopacity="0.0"
     inkscape:pageshadow="2"
     inkscape:zoom="0.061871843"
     inkscape:cx="587.29617"
     inkscape:cy="842.14917"
     inkscape:document-units="mm"
     inkscape:current-layer="layer1"
     showgrid="false"
     units="px"
     inkscape:window-width="1366"
     inkscape:window-height="705"
     inkscape:window-x="-8"
     inkscape:window-y="-8"
     inkscape:window-maximized="1" />
  <metadata
     id="metadata5">
    <rdf:RDF>
      <cc:Work
         rdf:about="">
        <dc:format>image/svg+xml</dc:format>
        <dc:type
           rdf:resource="http://purl.org/dc/dcmitype/StillImage" />
        <dc:title></dc:title>
      </cc:Work>
    </rdf:RDF>
  </metadata>
  <g
     inkscape:label="Layer 1"
     inkscape:groupmode="layer"
     id="layer1"
     transform="translate(0,761.33335)">
    <rect
       style="opacity:1;fill:#091e4d;fill-opacity:1;stroke:none;stroke-width:85.39920044;stroke-miterlimit:4;stroke-dasharray:none;stroke-dashoffset:0;stroke-opacity:1"
       id="rect997"
       width="1058.3334"
       height="1058.3334"
       x="0"
       y="-761.33337" />
    <g
       id="g3937"
       transform="matrix(1.4328241,0,0,1.4328241,130.63566,-365.29633)">
      <g
         inkscape:export-ydpi="300"
         inkscape:export-xdpi="300"
         transform="matrix(1.6840682,-0.50020437,0.50020437,1.6840682,-139.2078,34.786493)"
         id="g914"
         style="fill:#ffffff;fill-opacity:1">
        <path
           sodipodi:nodetypes="zccccz"
           inkscape:connector-curvature="0"
           id="path908"
           d="m 206.79508,-45.840815 c 23.19108,-3.714338 51.92183,-13.002381 51.92183,-13.002381 v 10.798228 l -97.82065,10.583333 v -2.488697 c 0,0 22.70774,-2.176145 45.89882,-5.890483 z"
           style="opacity:1;fill:#ffffff;fill-opacity:1;stroke:none;stroke-width:6.59841156;stroke-miterlimit:4;stroke-dasharray:none;stroke-dashoffset:0;stroke-opacity:1" />
        <path
           style="opacity:1;fill:#ffffff;fill-opacity:1;stroke:none;stroke-width:6.59841156;stroke-miterlimit:4;stroke-dasharray:none;stroke-dashoffset:0;stroke-opacity:1"
           d="m 295.67607,-18.829658 c -17.33646,-15.845179 -36.23925,-39.391056 -36.23925,-39.391056 l -5.93278,9.022408 75.91887,62.587635 1.36734,-2.07942 c 0,0 -17.77772,-14.2943912 -35.11418,-30.139567 z"
           id="path910"
           inkscape:connector-curvature="0"
           sodipodi:nodetypes="zccccz" />
      </g>
      <rect
         inkscape:export-ydpi="300"
         inkscape:export-xdpi="300"
         transform="rotate(-16.838872)"
         y="-68.61982"
         x="149.62891"
         height="44.997372"
         width="6.2319045"
         id="rect916"
         style="opacity:1;fill:#ffffff;fill-opacity:1;stroke:none;stroke-width:20.03756332;stroke-miterlimit:4;stroke-dasharray:none;stroke-dashoffset:0;stroke-opacity:1" />
      <rect
         inkscape:export-ydpi="300"
         inkscape:export-xdpi="300"
         transform="rotate(15.245355)"
         style="opacity:1;fill:#ffffff;fill-opacity:1;stroke:none;stroke-width:20.03756332;stroke-miterlimit:4;stroke-dasharray:none;stroke-dashoffset:0;stroke-opacity:1"
         id="rect918"
         width="6.2319045"
         height="44.997372"
         x="361.28113"
         y="-213.32835" />
      <g
         style="fill:#ffffff"
         transform="matrix(0.66160059,0,0,0.66160059,100.80197,-54.207497)"
         id="g2170">
        <rect
           y="-103.9043"
           x="205.15556"
           height="34.210499"
           width="39.555889"
           id="rect2158"
           style="opacity:1;fill:#ffffff;fill-opacity:1;stroke:none;stroke-width:22.62741661;stroke-miterlimit:4;stroke-dasharray:none;stroke-dashoffset:0;stroke-opacity:1" />
        <rect
           style="opacity:1;fill:#ffffff;fill-opacity:1;stroke:none;stroke-width:22.62741661;stroke-miterlimit:4;stroke-dasharray:none;stroke-dashoffset:0;stroke-opacity:1"
           id="rect2160"
           width="39.555889"
           height="34.210499"
           x="258.07227"
           y="-103.9043" />
        <rect
           style="opacity:1;fill:#ffffff;fill-opacity:1;stroke:none;stroke-width:22.62741661;stroke-miterlimit:4;stroke-dasharray:none;stroke-dashoffset:0;stroke-opacity:1"
           id="rect2162"
           width="39.555889"
           height="34.210499"
           x="205.15556"
           y="-56.808479" />
        <rect
           y="-56.808479"
           x="258.07227"
           height="34.210499"
           width="39.555889"
           id="rect2164"
           style="opacity:1;fill:#ffffff;fill-opacity:1;stroke:none;stroke-width:22.62741661;stroke-miterlimit:4;stroke-dasharray:none;stroke-dashoffset:0;stroke-opacity:1" />
      </g>
    </g>
    <path
       style="fill:#ffffff;stroke-width:1.62133038"
       d="M 221.96433,22.376826 H 511.52206 827.68147 V 155.32594 H 511.52206 221.96433 Z m 56.301,101.338794 c 12.92714,-5.40134 15.91048,-24.588537 4.9173,-31.625657 -1.94298,-1.24376 -8.98524,-3.85338 -15.6496,-5.79922 -13.61072,-3.974039 -17.00352,-7.114959 -12.5243,-11.594219 3.51666,-3.5166 15.04134,-3.44526 22.22326,0.1372 4.88384,2.4364 4.90784,2.42548 7.30698,-3.31644 3.28986,-7.87382 3.21466,-8.08946 -3.60418,-10.33986 -9.8004,-3.23446 -26.36708,-2.69466 -33.6737,1.09714 -18.10664,9.39652 -14.4471,31.127939 6.11604,36.318679 14.64338,3.696437 18.16622,5.579037 18.16622,9.708117 0,2.79884 -1.15394,4.22656 -4.05334,5.01504 -5.20022,1.41412 -15.78536,0.0306 -21.4021,-2.80288 -5.94426,-2.9958 -6.00642,-2.97134 -8.67522,3.4161 -3.05082,7.30158 -3.08708,7.14434 2.1094,9.14442 12.71514,4.89402 27.961,5.14638 38.74324,0.6413 z m 520.21312,0 c 12.92724,-5.40134 15.91058,-24.588537 4.91738,-31.625657 -1.94298,-1.24376 -8.9853,-3.85338 -15.6496,-5.79922 -13.61072,-3.974039 -17.00352,-7.114959 -12.5243,-11.594219 3.51666,-3.5166 15.04134,-3.44526 22.22324,0.1372 4.88386,2.4364 4.90788,2.42548 7.307,-3.31644 3.28986,-7.87382 3.21468,-8.08946 -3.60416,-10.33986 -9.80042,-3.23446 -26.3671,-2.69466 -33.67378,1.09714 -18.10662,9.39652 -14.4471,31.127939 6.1161,36.318679 14.64338,3.696437 18.16624,5.579037 18.16624,9.708117 0,2.79884 -1.15394,4.22656 -4.05334,5.01504 -5.2003,1.41412 -15.78538,0.0306 -21.4021,-2.80288 -5.94434,-2.9958 -6.00642,-2.97134 -8.67522,3.4161 -3.05082,7.30158 -3.0871,7.14434 2.10938,9.14442 12.71514,4.89402 27.961,5.14638 38.74316,0.6413 z m -485.15686,-4.05892 2.54748,-6.48536 h 14.54638 14.5463 l 2.59492,6.48536 c 2.58516,6.46086 2.62836,6.4853 11.47448,6.4853 7.78442,0 8.74734,-0.3499 7.80708,-2.83732 -0.5901,-1.56052 -7.01436,-16.33492 -14.27668,-32.831917 l -13.20414,-29.994659 -8.78086,-0.4743 -8.78092,-0.4743 -13.26818,30.468899 c -7.29748,16.757857 -13.75754,31.745697 -14.3556,33.306217 -0.95374,2.48834 3.6e-4,2.83732 7.75738,2.83732 8.8135,0 8.8539,-0.0244 11.39236,-6.4853 z m 8.7881,-20.671977 c -0.383,-0.66878 1.3418,-5.95842 3.83358,-11.75464 4.2683,-9.928859 4.62036,-10.304139 6.0832,-6.485299 0.85398,2.229319 2.73382,6.878399 4.17742,10.331259 1.44354,3.45292 2.6247,6.91848 2.6247,7.70132 0,1.728657 -15.73514,1.923837 -16.7189,0.20712 z m 99.27393,-0.81066 c 6.56528,-15.3824 12.93874,-30.339159 14.16322,-33.237279 l 2.22636,-5.26934 h -8.67302 -8.673 l -8.5969,20.67198 c -4.72832,11.369579 -9.08896,21.228436 -9.69042,21.908576 -0.60114,0.68012 -5.06816,-8.439837 -9.92602,-20.266636 l -8.83259,-21.50326 -9.3057,-0.48596 c -5.11818,-0.26716 -9.30572,-0.0368 -9.30572,0.51106 0,0.54846 5.03534,12.80572 11.18962,27.238179 6.15428,14.432537 12.31858,28.976877 13.69858,32.320857 2.45585,5.95126 2.69191,6.08 11.14883,6.08 h 8.63986 z m 71.4713,21.539317 v -6.42862 l -16.61858,-0.46204 -16.61866,-0.46204 v -6.4853 -6.485357 l 14.18662,-0.46816 14.18662,-0.46818 v -6.42218 -6.4222 h -14.68984 -14.68984 l 0.5031,-6.079979 0.5031,-6.08002 16.61864,-0.46204 16.61858,-0.46204 v -6.42862 -6.42862 H 466.9134 440.97212 v 33.237299 33.237277 h 25.94128 25.94126 z m 93.80338,0.002 v -6.4266 l -15.808,-0.46388 -15.80798,-0.46388 -0.44548,-26.346617 -0.44552,-26.346619 h -8.87712 -8.8772 v 33.237279 33.237277 h 25.13062 25.13068 z M 610.97826,92.904723 V 59.667444 h -8.91734 -8.91732 V 92.904723 126.142 h 8.91732 8.91734 z m 64.72037,5.26934 c 6.56528,-15.3824 12.93874,-30.339159 14.16328,-33.237279 l 2.22632,-5.26934 h -8.67302 -8.673 l -8.5969,20.67198 c -4.72832,11.369579 -9.08896,21.228436 -9.69044,21.908576 -0.60112,0.68012 -5.06816,-8.439837 -9.92601,-20.266636 l -8.83258,-21.50326 -9.3057,-0.48596 c -5.11814,-0.26716 -9.30572,-0.0368 -9.30572,0.51106 0,0.54846 5.03532,12.80572 11.1896,27.238179 6.15428,14.432537 12.31866,28.976877 13.6986,32.320857 2.45584,5.95126 2.69192,6.08 11.14883,6.08 h 8.63986 z m 71.47136,21.539317 v -6.42862 l -16.61864,-0.46204 -16.61864,-0.46204 v -6.4853 -6.485357 l 14.1866,-0.46816 14.18668,-0.46818 v -6.42218 -6.4222 h -14.68988 -14.68984 l 0.5031,-6.079979 0.50308,-6.08002 16.61864,-0.46204 16.61866,-0.46204 v -6.42862 -6.42862 h -25.94134 -25.94126 v 33.237299 33.237277 h 25.94126 25.94134 z M 233.66755,-118.93089 c -11.33476,-3.68843 -12.01716,-4.81227 -8.25344,-13.59264 1.78162,-4.15636 3.44552,-7.76314 3.6975,-8.01517 0.25186,-0.25186 3.85564,1.04461 8.00802,2.88136 5.5942,2.47455 10.1736,3.21463 17.6798,2.85699 9.52286,-0.45346 10.13014,-0.71946 10.13014,-4.43393 0,-3.58227 -1.36292,-4.34551 -14.59196,-8.17131 -21.84098,-6.31642 -26.75198,-10.75771 -26.75198,-24.19378 0,-8.27826 5.588,-16.2924 14.60508,-20.94631 6.39156,-3.29883 9.06886,-3.68347 21.87486,-3.14268 9.62306,0.40628 16.38628,1.56247 19.86126,3.39514 4.5899,2.42063 5.26934,2.46003 5.26934,0.30516 0,-2.13892 4.6181,-2.47364 34.13268,-2.47364 h 38.7192 l -0.49022,8.51198 -0.49024,8.51203 -15.53048,0.4792 -10.94402,0.47921 v 29.10985 29.10984 h -11.34928 -11.3493 v -29.10923 -29.10986 l -10.94398,-0.4792 -10.944,-0.4792 -0.81146,-5.67471 -0.81144,-5.67464 -2.97068,7.70132 c -1.6338,4.23576 -3.18594,7.70131 -3.44912,7.70131 -0.2635,0 -3.18074,-1.12899 -6.4834,-2.50893 -3.6997,-1.54583 -9.5328,-2.32381 -15.19532,-2.02667 -8.11028,0.42589 -9.25116,0.90926 -9.70652,4.11461 -0.58642,4.12571 0.8606,4.90824 18.49644,10.00514 6.3223,1.82721 13.41832,4.83501 15.76896,6.68398 10.77622,8.47661 8.64016,26.79364 -4.10842,35.23029 -5.65622,3.74308 -8.43354,4.36316 -21.31496,4.7589 -9.44878,0.29046 -17.32468,-0.36278 -21.75336,-1.804 z m 117.02162,0.13782 c 0,-0.29352 7.25508,-17.25692 16.12248,-37.69589 l 16.12238,-37.16181 11.20785,-0.47185 11.20794,-0.47184 15.80162,36.1409 c 8.69092,19.87755 16.16946,37.05297 16.61906,38.16762 0.6085,1.50843 -2.14354,2.02667 -10.76292,2.02667 h -11.58044 l -3.12742,-7.29601 -3.1274,-7.29596 h -15.24 -15.23999 l -2.78632,7.29596 -2.78642,7.29601 h -11.2152 c -6.16838,0 -11.21522,-0.2402 -11.21522,-0.53434 z m 48.50031,-40.40442 c -1.8342,-4.68161 -3.89872,-9.09147 -4.58782,-9.79972 -0.97016,-0.9972 -8.24317,14.57162 -8.24317,17.6453 0,0.36644 12.52857,0.6664 8.08293,0.6664 h 8.08302 z m 55.26486,27.2321 v -13.70642 l -13.78132,-23.42615 c -7.57974,-12.88438 -13.78132,-23.86202 -13.78132,-24.39484 0,-0.5325 5.0759,-0.96863 11.2798,-0.96863 h 11.27988 l 8.47298,14.52654 8.473,14.52652 8.7086,-14.52652 8.70864,-14.52654 h 10.4505 c 5.74776,0 10.45048,0.33091 10.45048,0.73585 0,0.40443 -3.31916,13.48475 -13.78134,24.16197 l -13.78132,23.42614 v 13.93929 13.93928 h -11.3493 -11.34928 z m 105.1308,9.06384 c -7.87498,-3.58228 -10.84296,-6.83356 -8.98396,-9.84146 1.1107,-1.79713 2.183,-1.57518 5.68042,1.17586 9.41048,7.40234 30.61296,7.9802 38.27818,1.04328 4.0491,-3.6644 4.2196,-13.84168 0.28924,-17.27008 -2.77158,-2.41757 -12.1643,-5.80541 -25.86756,-9.33011 -14.73118,-3.78903 -21.36834,-15.0075 -15.80944,-26.72196 3.79762,-8.00292 12.37674,-12.23671 24.79578,-12.23671 10.3727,0 20.91318,3.48687 22.42142,7.41709 1.53974,4.01266 -0.68104,4.59438 -7.14496,1.87145 -9.32728,-3.929 -14.29546,-4.60233 -21.69386,-2.94001 -8.5039,1.91072 -12.93624,6.25152 -13.12392,12.85305 -0.21018,7.38765 4.20548,11.2273 17.25488,15.00439 23.59534,6.82956 28.65672,10.60426 28.96856,21.60438 0.22674,8.00066 -3.21786,13.37405 -10.98346,17.13325 -8.76352,4.24238 -25.0282,4.35575 -34.0814,0.23777 z m 54.91752,-5.49069 c 25.29162,-56.58267 30.91292,-67.6905 34.25568,-67.6905 3.34269,0 8.96399,11.10785 34.25561,67.6905 l 3.80472,8.51196 h -3.67206 c -2.96778,0 -4.55276,-2.02146 -8.26324,-10.53864 l -4.59112,-10.53862 h -21.53391 -21.53392 l -4.59112,10.53862 c -3.7105,8.51718 -11.23098,10.53864 -8.26324,10.53864 h -3.67212 z m 52.63075,-18.82791 c -2.13858,-5.53431 -18.23185,-40.61976 -18.49475,-40.32089 -0.56192,0.63865 -18.52564,40.53636 -18.52564,41.14564 0,0.3156 8.45118,0.57418 18.78038,0.57418 10.32923,0 18.53727,-0.62932 18.24001,-1.39862 z m 34.31818,-10.76132 v -38.10127 h 25.94124 c 21.97802,0 25.94128,0.37135 25.94128,2.43196 0,2.04597 -3.60294,2.43202 -22.69858,2.43202 h -22.69864 v 16.21329 16.21328 h 20.2666 c 16.93392,0 20.26662,0.40016 20.26662,2.43203 0,2.03205 -3.3327,2.43197 -20.26662,2.43197 h -20.2666 v 17.02397 c 0,15.94304 -0.20592,17.02394 -3.2427,17.02394 -3.15064,0 -3.2426,-1.0809 -3.2426,-38.1012 z m 69.71716,0 v -38.10127 h 25.94128 c 21.97806,0 25.94132,0.37135 25.94132,2.43196 0,2.04597 -3.603,2.43202 -22.69864,2.43202 h -22.69866 v 15.40263 15.40264 h 20.26662 c 16.93392,0 20.26668,0.40014 20.26668,2.43201 0,2.03207 -3.33276,2.43197 -20.26668,2.43197 h -20.26662 v 15.40263 15.40262 h 23.50932 c 19.81628,0 23.50928,0.38237 23.50928,2.43201 0,2.0635 -4.05334,2.43197 -26.75198,2.43197 h -26.75192 z m -541.77998,-94.6265 c -7.87498,-3.58223 -10.84296,-6.83356 -8.984,-9.84142 1.11074,-1.79718 2.18304,-1.57523 5.68046,1.17588 9.4105,7.40226 30.61296,7.98014 38.27816,1.04321 4.04912,-3.66441 4.2196,-13.84169 0.28926,-17.27004 -2.7716,-2.41763 -12.16432,-5.80548 -25.86754,-9.33009 -14.7312,-3.7891 -21.36836,-15.00757 -15.80946,-26.72202 3.79762,-8.00293 12.37674,-12.23674 24.79578,-12.23674 10.37268,0 20.91316,3.48689 22.42136,7.41718 1.53978,4.01259 -0.681,4.59431 -7.14498,1.87145 -9.32722,-3.92906 -14.29544,-4.6024 -21.6938,-2.9401 -8.50392,1.91074 -12.93618,6.25159 -13.1239,12.85307 -0.21018,7.3877 4.20548,11.22729 17.25488,15.00438 23.59534,6.82957 28.6567,10.60432 28.96856,21.60439 0.22672,8.00073 -3.21788,13.37407 -10.98346,17.13332 -8.76354,4.24233 -25.02828,4.35569 -34.08138,0.23777 z m 75.39186,-32.64793 v -35.66924 h -13.7813 c -11.1692,0 -13.78132,-0.46081 -13.78132,-2.43197 0,-2.0765 4.50372,-2.43203 30.80524,-2.43203 26.30158,0 30.80534,0.35541 30.80534,2.43203 0,1.97103 -2.6122,2.43197 -13.78134,2.43197 h -13.78132 v 35.66924 c 0,34.58841 -0.098,35.66932 -3.24268,35.66932 -3.14438,0 -3.24262,-1.08091 -3.24262,-35.66932 z m 33.02956,27.15729 c 25.29164,-56.5826 30.91292,-67.69053 34.25568,-67.69053 3.34268,0 8.96394,11.10793 34.25559,67.69053 l 3.80474,8.51203 h -3.67214 c -2.96772,0 -4.5527,-2.02153 -8.26316,-10.53864 l -4.59118,-10.53871 h -21.53385 -21.53392 l -4.5912,10.53871 c -3.71042,8.51711 -5.29546,10.53864 -8.26316,10.53864 h -3.67214 z m 52.63073,-18.82787 c -2.13855,-5.53438 -18.23185,-40.61983 -18.49473,-40.32096 -0.56192,0.63863 -18.52564,40.53635 -18.52564,41.14565 0,0.31558 8.45118,0.57357 18.78038,0.57357 10.32924,0 18.53725,-0.62934 18.23999,-1.39857 z m 45.66748,14.69266 v -12.64724 l -14.74868,-24.23803 c -8.11176,-13.33092 -15.086,-24.78524 -15.49834,-25.45403 -0.4124,-0.6688 0.935,-1.21307 2.99402,-1.20945 3.06264,0.005 6.06148,3.83953 16.4851,21.07727 7.00782,11.58888 13.30794,21.07077 14.00028,21.07077 0.69226,0 6.8985,-9.48482 13.79154,-21.07732 8.99968,-15.1354 13.39442,-21.07729 15.5891,-21.07729 1.68094,0 3.05622,0.47676 3.05622,1.05969 0,0.58276 -6.56638,11.81881 -14.59198,24.96891 l -14.59196,23.90925 v 13.13232 c 0,12.05148 -0.26658,13.13239 -3.2427,13.13239 -2.96552,0 -3.2426,-1.08091 -3.2426,-12.64724 z m 171.6294,10.58981 c -8.62304,-2.75939 -20.6789,-14.68163 -23.64312,-23.38112 -5.62022,-16.49455 -1.85674,-32.14677 10.37356,-43.14284 4.2876,-3.85492 10.69054,-7.87632 14.22882,-8.93639 8.28416,-2.48196 21.70514,-2.46231 30.18886,0.0428 8.9057,2.63124 22.33703,16.0626 24.96829,24.96833 4.66696,15.79549 1.38446,28.88227 -10.13328,40.40008 -5.14207,5.14208 -10.63057,8.89104 -14.83501,10.13328 -7.9748,2.35623 -23.6519,2.31315 -31.14812,-0.0858 z m 23.24612,-18.11165 c 16.15886,-6.75161 15.91044,-32.45927 -0.37932,-39.26562 -7.3818,-3.08428 -15.7068,-1.07317 -21.62216,5.22346 -3.33178,3.54655 -3.95628,5.82716 -3.95628,14.44901 0,11.36233 2.54332,15.76656 11.34938,19.65364 6.26598,2.76586 7.85988,2.75926 14.6085,-0.0614 z m -125.66966,-19.55351 v -38.10127 h 11.3493 11.34934 v 14.59197 14.59197 h 13.78126 13.78132 v -14.59197 -14.59197 h 11.34936 11.3493 v 38.10127 38.10121 h -11.3493 -11.34936 v -14.59197 -14.59198 H 541.79416 528.0129 v 14.59198 14.59197 h -11.34934 -11.3493 z m 163.75439,0 v -38.10127 h 9.5415 9.54158 l 12.58424,21.16373 c 6.92128,11.64005 13.1431,20.57761 13.82618,19.86126 0.68308,-0.71634 3.58778,-12.23456 12.56904,-20.75838 l 11.32704,-19.45595 9.89178,-0.48288 9.89178,-0.48288 v 38.17861 38.17859 h -10.48718 -10.48722 l -0.4565,-18.74145 -0.45716,-18.74152 -8.91726,15.48652 c -8.1698,14.18821 -9.3293,15.48756 -13.8317,15.49884 -4.4816,0.0122 -5.69498,-1.30732 -13.78124,-14.97576 l -8.86702,-14.98802 -0.45836,18.23069 -0.45838,18.2307 h -10.48556 -10.4855 z m 95.65844,0 v -38.10127 h 30.07936 30.07934 l -0.49022,8.51197 -0.49024,8.51196 -18.23996,0.45837 -18.23994,0.45836 v 5.62158 5.62158 h 16.21328 16.21334 v 8.91733 8.91726 h -16.21334 -16.21328 v 5.62323 5.62317 l 19.0506,0.45653 19.05068,0.45653 0.49022,8.51196 0.49024,8.51198 h -30.89002 -30.89 z"
       id="path3888"
       inkscape:connector-curvature="0"
       sodipodi:nodetypes="cccccccccsccccccscccccccccccccccscccccccccccscccccscsccccccsccccccccccccsccscccccccccccccccccccccccccccccccccccccccccccccccccccccccccccscssccccccccccccccccccccccccccccccccscssccssccccccccccccccccsccccccccccccccscscccccccsccccssccccssscccccssscccccccscccccsccccsccccssscsccccsscsccssccccssscccssscsssccssscccssscccssscccscccccsccccsccccscssssscsssccccssccccscccsssccscscccscssscssscccccccscccccsscccccccccccccccccccccccccccccccccscccccccccccccccccccccccccccccccccccccccccccc" />
    <rect
       style="opacity:1;fill:#ffffff;fill-opacity:1;stroke:none;stroke-width:15.2783823;stroke-miterlimit:4;stroke-dasharray:none;stroke-dashoffset:0;stroke-opacity:1"
       id="rect3890"
       width="605.9458"
       height="11.467581"
       x="217.70273"
       y="-406.66986" />
    <rect
       y="-53.160263"
       x="217.70273"
       height="11.467581"
       width="605.9458"
       id="rect3925"
       style="opacity:1;fill:#ffffff;fill-opacity:1;stroke:none;stroke-width:15.2783823;stroke-miterlimit:4;stroke-dasharray:none;stroke-dashoffset:0;stroke-opacity:1" />
  </g>
</svg>
