<?xml version="1.0" encoding="utf-8"?>
<!-- Generator: Adobe Illustrator 24.1.0, SVG Export Plug-In . SVG Version: 6.00 Build 0)  -->
<svg version="1.1" id="Ebene_1" xmlns="http://www.w3.org/2000/svg" xmlns:xlink="http://www.w3.org/1999/xlink" x="0px" y="0px"
	 viewBox="0 0 511.8 511.8" style="enable-background:new 0 0 511.8 511.8;" xml:space="preserve">
<style type="text/css">
	.st0{fill:#551213;}
	.st1{fill-rule:evenodd;clip-rule:evenodd;fill:#310F10;}
	.st2{fill-rule:evenodd;clip-rule:evenodd;fill:#FFFFFF;}
	.st3{fill-rule:evenodd;clip-rule:evenodd;fill:#951B81;}
	.st4{fill-rule:evenodd;clip-rule:evenodd;}
	.st5{fill-rule:evenodd;clip-rule:evenodd;stroke:#29235C;stroke-width:3;stroke-miterlimit:10;}
	.st6{fill:#FFFFFF;}
	.st7{fill:#FFFFFF;stroke:#FFFFFF;stroke-width:2;stroke-miterlimit:10;}
	.st8{fill-rule:evenodd;clip-rule:evenodd;fill:#FCEA10;stroke:#000000;stroke-width:1.3269;stroke-miterlimit:10;}
	.st9{fill-rule:evenodd;clip-rule:evenodd;fill:#FFFFFF;stroke:#000000;stroke-width:1.066;stroke-miterlimit:10;}
	.st10{fill-rule:evenodd;clip-rule:evenodd;fill:#FCEA10;stroke:#000000;stroke-width:1.6574;stroke-miterlimit:10;}
	.st11{fill-rule:evenodd;clip-rule:evenodd;fill:#FCEA10;stroke:#000000;stroke-width:1.7549;stroke-miterlimit:10;}
	.st12{fill-rule:evenodd;clip-rule:evenodd;fill:#FCEA10;stroke:#000000;stroke-width:1.066;stroke-miterlimit:10;}
</style>
<path class="st0" d="M187.6,268.2l6.1,1.2l1.7,0.3h0l10,1.9l1.7,0.3l6.7,1.3 M511.4,247.3c-3-42-19-40.6-39.2-13.4
	c-3.1,4.2-18.3,6-34.8,5.6c-0.9-10.3-2.7-20.4-5.3-30.2c7.8-0.6,14.4,0.8,16.3,3.2c13.6,16.7,22.1,15.9,21-14
	c-1.1-30.2-10.2-29-22-9.1c-1.5,2.5-7.4,3.9-14.5,4.4c-1.8,0.1-3.7,0.2-5.6,0.1c-0.5-1.4-1-2.7-1.5-4c-2.7-6.9-5.8-13.5-9.2-20
	c13.8-10.2,28.4-15.9,34-14.5c33.2,8.1,45.8,0,22.3-34.6c-23.6-34.9-36.8-25.6-40.7,8c-0.6,5.2-12.9,14.3-27.3,22.2
	c-5.8-8.3-12.3-16-19.4-23.2c7.8-5.6,15.8-8.5,19.1-7.4c21.4,7,29.1,1.8,12.8-23.4c-16.4-25.4-24.4-19.5-25.5,4
	c-0.2,3.9-8.7,10.5-18.4,15.6c-6.7-5.7-13.9-10.9-21.4-15.5c6.8-15.7,16.7-28,22.2-29.6c32.8-9.6,39.6-22.9,2-41.1
	c-37.9-18.4-44.7-3.8-31.2,27.3c2,4.8-4,18.8-12.5,32.9c-9.3-4.3-19-7.9-29.1-10.6c3-5.9,6.9-9.9,9.7-10.3c20.8-2.7,24-10-2.4-24.2
	c-26.6-14.3-29.7-6.3-18.1,13.4c1.7,2.9-0.8,10.3-4.9,17.6c-8.5-1.5-17.2-2.4-26-2.7c-1.9-17,0.4-32.6,4.5-36.7
	C289.8,12.3,289-2.6,247.3,0.4c-42,3-40.6,19-13.4,39.2c4.2,3.1,6,18.3,5.6,34.8c-10.4,0.9-20.5,2.7-30.4,5.3
	c-0.4-7.1,1-13,3.2-14.8c16.6-13.1,15.9-21.3-14.1-20.2c-30.2,1-28.9,9.7-9.1,21.2c3,1.7,4.5,9.8,4.6,18.6c-8.3,3-16.3,6.6-24,10.7
	c-10.2-13.8-15.9-28.4-14.5-34c8.1-33.2,0-45.8-34.6-22.3c-34.9,23.6-25.6,36.8,8,40.7c5.2,0.6,14.3,12.9,22.2,27.3
	c-7.8,5.5-15.1,11.6-22,18.2c-1.6-3.4-2.2-6.4-1.7-8c5.8-16.2,1.8-21.9-18-9.3c-20,12.7-15.5,18.6,2.7,19.2c2.1,0.1,5.1,3.1,8,7.4
	c-7.1,7.9-13.4,16.4-19.1,25.4c-15.7-6.8-28-16.7-29.6-22.2c-9.6-32.8-22.9-39.6-41.1-2c-18.4,37.9-3.8,44.6,27.3,31.2
	c4.8-2,18.8,4,32.9,12.5c-0.7,1.5-1.4,3-2,4.5c-1.1,2.6-2.1,5.1-3.1,7.8c-3.3,8.7-5.9,17.7-7.8,27c-9.9-4.5-18-10.8-19.3-14
	c-7-18.2-15-22.5-23.8-3c-8.8,19.7-0.1,24,17.2,18.2c3.1-1,14,4.5,23.7,11.1c-0.4,3.1-0.8,6.2-1,9.4c-0.2,2.8-0.4,5.6-0.5,8.4
	c0,0.5,0,1,0,1.5c-17,1.9-32.6-0.4-36.7-4.4c-24.7-23.6-39.6-22.9-36.6,18.8c3,42,19,40.6,39.2,13.4c3.1-4.2,18.3-6,34.7-5.6
	c0.9,10.3,2.7,20.4,5.3,30.2c-7.9,0.6-14.5-0.8-16.4-3.2c-13.7-16.7-22.2-15.9-21,14c1.2,30.2,10.2,29,22.1,9.1
	c1.9-3.1,10.7-4.6,20.2-4.5c3,8.3,6.6,16.3,10.7,24c-13.8,10.2-28.4,15.9-34,14.5c-33.2-8.1-45.8,0-22.3,34.6
	c23.6,34.9,36.7,25.6,40.7-8c0.6-5.2,12.9-14.3,27.3-22.2c6,8.5,12.6,16.4,19.9,23.7c-5.6,3.7-11.1,5.2-13.7,4.1
	c-19.4-8-25.9-3.3-10.1,22.1c15.9,25.7,22.6,20.3,22.4-2.5c0-3.4,5.9-8.6,13.2-12.9c6.7,5.6,13.8,10.8,21.2,15.4
	c-6.8,15.7-16.6,28-22.2,29.6c-32.8,9.5-39.6,22.9-2,41.1c37.9,18.4,44.6,3.8,31.2-27.3c-2-4.8,4-18.8,12.5-32.9
	c3.8,1.8,7.7,3.4,11.7,4.9c3.5,1.3,7,2.5,10.5,3.6h0c1,0.3,2,0.6,3,0.9c-0.5,0.9-1,1.7-1.5,2.5c-0.2,0.3-0.4,0.6-0.6,0.9v0
	c-3.2,5-6.4,8.5-8.4,9.3c-17.4,6.6-21.5,14.3-2.8,22.7c18.9,8.5,23,0.2,17.4-16.3c-0.8-2.3,2.2-9,6.5-16.3c11.3,2.6,23,4.1,35,4.5
	c1.9,17-0.4,32.6-4.4,36.7c-23.7,24.7-22.9,39.7,18.8,36.6c42-3,40.6-19,13.4-39.2c-4.2-3.1-6-18.3-5.6-34.8
	c8.7-0.8,17.1-2.1,25.4-4.1c0.1,8.8-1.1,16.5-2.6,18.8c-10.6,15.6-10.5,24.8,7.5,22.2c18.2-2.5,17.9-12.4,6.5-24.4
	c-1.6-1.7-2.2-9.9-1.9-19.1c4-1.2,7.9-2.5,11.8-3.9h0c3.7-1.4,7.3-2.8,10.9-4.4c4.2-1.8,8.2-3.8,12.2-6c10.2,13.8,15.9,28.4,14.5,34
	c-8.1,33.2,0,45.8,34.6,22.3c34.9-23.6,25.6-36.7-8-40.7c-5.2-0.6-14.3-12.9-22.2-27.3c9.4-6.6,18.1-14.1,26.1-22.3
	c8.9,6.5,13.2,16.4,11.3,20.2c-8.8,17.6-4.6,23.2,21.1,7.9c25.9-15.5,21-21.2-1.3-19.8c-5.5,0.3-14.9-13.4-17.5-23.8
	c3.7-4.8,7.1-9.8,10.3-14.9c15.7,6.8,28,16.7,29.6,22.2c9.5,32.8,22.9,39.6,41.1,2c18.4-37.9,3.8-44.6-27.3-31.2
	c-4.8,2-18.8-4-32.9-12.5c4.1-8.9,7.6-18.2,10.2-27.9c6.3,3.3,10.7,7.3,11.2,10c4,19.8,11.4,23.4,23.8-0.7
	c12.5-24.3,4.4-27.7-14.4-18c-2.8,1.4-10-1.3-17.4-5.5c1.8-9.4,2.9-19,3.2-28.8c17-1.9,32.6,0.4,36.7,4.4
	C499.5,289.8,514.5,289,511.4,247.3z M179.8,263.4c-0.4,0.8-0.7,1.4-1,2c-0.1,0.3-0.3,0.6-0.5,0.9l-2.5-0.5
	c-1.5-0.7-3.3-1.3-5.4-1.7c-1.7-0.3-3.3-0.4-4.9-0.3l-2.8-0.6c-4,0-7.8,1-11,2.9c0.8-0.8,1.6-1.6,2.5-2.3c2.4-1.8,5.2-3.1,8.1-3.8
	c2.7-0.6,5.7-0.7,8.6-0.1C175.7,261,178.6,262.4,179.8,263.4C179.8,263.4,179.8,263.4,179.8,263.4z M209.5,275.7
	c-0.6-1.4-1.4-2.7-2.5-3.7l-1.7-0.3l-10-1.9h0l-1.7-0.3c-1.3,0.6-2.5,1.5-3.6,2.6c-2.6,2.6-4.2,6.5-4.9,10.8
	c-1.2,8.1,2.6,16.2,11,17.2c8.5,1,13.9-5.9,14.7-14.6C211.3,282,210.8,278.6,209.5,275.7z"/>
<path class="st1" d="M240.4,235c0,5.8-0.8,9.3-6.5,13.1c-5.7,3.8-10.4,7.9-19.1,7.9c-8,0-12.2-5.3-17.8-8.5
	c-6.5-3.8-13.7-6.1-13.7-12.4c0-3.8,1.5-7.3,4.1-10.3c1.9-2.3,4.3-7,7.3-8.6c5.4-2.9,12.5-2,20-2c7.8,0,12,4.4,17.4,7.5
	C239,225.5,240.4,228.6,240.4,235z"/>
<path class="st1" d="M324.7,393.6c0,5.8-0.8,9.3-6.5,13.1c-5.7,3.8-10.4,7.9-19.1,7.9c-8,0-12.2-5.3-17.8-8.5
	c-6.5-3.8-13.7-6.1-13.7-12.4c0-3.8,1.5-7.3,4.1-10.3c1.9-2.3,4.3-7,7.3-8.6c5.4-2.9,12.5-2,20-2c7.8,0,12,4.4,17.4,7.5
	C323.3,384.1,324.7,387.2,324.7,393.6z"/>
<path class="st1" d="M157.4,219.3c0,5.8-0.8,9.3-6.5,13.1c-5.7,3.8-10.4,7.9-19.1,7.9c-8,0-12.2-5.3-17.8-8.5
	c-6.5-3.8-13.7-6.1-13.7-12.4c0-3.8,1.5-7.3,4.1-10.3c1.9-2.3,4.3-7,7.3-8.6c5.4-2.9,12.5-2,20-2c7.8,0,12,4.4,17.4,7.5
	C156.1,209.8,157.4,212.9,157.4,219.3z"/>
<path class="st1" d="M203.7,179.5c0,3.7-0.6,5.9-4.7,8.3c-4.1,2.4-7.4,5-13.6,5c-5.7,0-8.7-3.3-12.7-5.4c-4.6-2.4-9.8-3.9-9.8-7.8
	c0-2.4,1.1-4.6,2.9-6.6c1.4-1.4,3.1-4.4,5.2-5.5c3.9-1.9,8.9-1.2,14.3-1.2c5.5,0,8.5,2.8,12.5,4.8
	C202.7,173.5,203.7,175.5,203.7,179.5z"/>
<path class="st1" d="M263.3,186.3c0,3.7-0.6,5.9-4.7,8.3s-7.4,5-13.6,5c-5.7,0-8.7-3.3-12.7-5.4c-4.6-2.4-9.8-3.9-9.8-7.8
	c0-2.4,1.1-4.6,2.9-6.6c1.4-1.4,3.1-4.4,5.2-5.5c3.9-1.9,8.9-1.2,14.3-1.2c5.5,0,8.5,2.8,12.5,4.8
	C262.3,180.3,263.3,182.2,263.3,186.3z"/>
<path class="st1" d="M435.8,269.2c0,3.7-0.6,5.9-4.7,8.3c-4.1,2.4-7.4,5-13.6,5c-5.7,0-8.7-3.3-12.7-5.4c-4.6-2.4-9.8-3.9-9.8-7.8
	c0-2.4,1.1-4.6,2.9-6.6c1.4-1.4,3.1-4.4,5.2-5.5c3.9-1.9,8.9-1.2,14.3-1.2c5.5,0,8.5,2.8,12.5,4.8
	C434.8,263.2,435.8,265.2,435.8,269.2z"/>
<path class="st1" d="M415.4,324.8c0,3.7-0.6,5.9-4.7,8.3s-7.4,5-13.6,5c-5.7,0-8.7-3.3-12.7-5.4c-4.6-2.4-9.8-3.9-9.8-7.8
	c0-2.4,1.1-4.6,2.9-6.6c1.4-1.4,3.1-4.4,5.2-5.5c3.9-1.9,8.9-1.2,14.3-1.2c5.5,0,8.5,2.8,12.5,4.8
	C414.5,318.7,415.4,320.7,415.4,324.8z"/>
<path class="st1" d="M379.9,362.6c0,3.7-0.6,5.9-4.7,8.3s-7.4,5-13.6,5c-5.7,0-8.7-3.3-12.7-5.4c-4.6-2.4-9.8-3.9-9.8-7.8
	c0-2.4,1.1-4.6,2.9-6.6c1.4-1.4,3.1-4.4,5.2-5.5c3.9-1.9,8.9-1.2,14.3-1.2c5.5,0,8.5,2.8,12.5,4.8
	C378.9,356.6,379.9,358.6,379.9,362.6z"/>
<path class="st1" d="M177.8,372.7c0,3.7-0.6,5.9-4.7,8.3c-4.1,2.4-7.4,5-13.6,5c-5.7,0-8.7-3.3-12.7-5.4c-4.6-2.4-9.8-3.9-9.8-7.8
	c0-2.4,1.1-4.6,2.9-6.6c1.4-1.4,3.1-4.4,5.2-5.5c3.9-1.9,8.9-1.2,14.3-1.2c5.5,0,8.5,2.8,12.5,4.8
	C176.8,366.6,177.8,368.6,177.8,372.7z"/>
<path class="st1" d="M128.9,269.2c0,3.7-0.6,5.9-4.7,8.3s-7.4,5-13.6,5c-5.7,0-8.7-3.3-12.7-5.4c-4.6-2.4-9.8-3.9-9.8-7.8
	c0-2.4,1.1-4.6,2.9-6.6c1.4-1.4,3.1-4.4,5.2-5.5c3.9-1.9,8.9-1.2,14.3-1.2c5.5,0,8.5,2.8,12.5,4.8
	C128,263.2,128.9,265.2,128.9,269.2z"/>
<path class="st1" d="M183.2,267.3c-0.3-2.8-1.7-4.5-5.7-6.6c-3.9-2-6.9-4.8-12.5-4.8c-5.4,0-10.4-0.6-14.3,1.2c-2.2,1-3.8,4-5.2,5.5
	c-1.9,1.9-2.9,4.2-2.9,6.5c0,1.4,0.7,2.5,1.8,3.5c0.7,0.6,1.6,1.2,2.6,1.7c1.5,0.8,3.3,1.6,5.1,2.5c0.1,0,0.2,0.1,0.3,0.2
	c4,2.1,7,5.4,12.7,5.4c6.2,0,9.6-2.6,13.6-5s4.7-4.7,4.7-8.3C183.3,268.5,183.3,267.9,183.2,267.3z"/>
<path class="st1" d="M157.4,150.9c0,3.7-0.6,5.9-4.7,8.3c-4.1,2.4-7.4,5-13.6,5c-5.7,0-8.7-3.3-12.7-5.4c-4.6-2.4-9.8-3.9-9.8-7.8
	c0-2.4,1.1-4.6,2.9-6.6c1.4-1.4,3.1-4.4,5.2-5.5c3.9-1.9,8.9-1.2,14.3-1.2c5.5,0,8.5,2.8,12.5,4.8
	C156.5,144.9,157.4,146.9,157.4,150.9z"/>
<path class="st1" d="M255.9,414.6c0,3.7-0.6,5.9-4.7,8.3c-4.1,2.4-7.4,5-13.6,5c-5.7,0-8.7-3.3-12.7-5.4c-4.6-2.4-9.8-3.9-9.8-7.8
	c0-2.4,1.1-4.6,2.9-6.6c1.4-1.4,3.1-4.4,5.2-5.5c3.9-1.9,8.9-1.2,14.3-1.2c5.5,0,8.5,2.8,12.5,4.8
	C255,408.6,255.9,410.5,255.9,414.6z"/>
<path class="st1" d="M302.5,255.9c0,3.7-0.6,5.9-4.7,8.3c-2.4,1.4-4.5,2.9-7.1,3.8h0c-1.9,0.7-3.9,1.2-6.5,1.2
	c-2.6,0-4.7-0.7-6.5-1.7h0c-2.2-1.1-4-2.6-6.2-3.8c-4.6-2.4-9.8-3.9-9.8-7.8c0-2.4,1.1-4.6,2.9-6.5c1.4-1.4,3.1-4.4,5.2-5.5
	c3.9-1.8,8.9-1.2,14.3-1.2c5.5,0,8.5,2.8,12.5,4.8C301.5,249.9,302.5,251.9,302.5,255.9z"/>
<path class="st1" d="M252.6,311.5c0,3.7-0.6,5.9-4.7,8.3c-4.1,2.4-7.4,5-13.6,5c-5.7,0-8.7-3.3-12.7-5.4c-4.6-2.4-9.8-3.9-9.8-7.8
	c0-2.4,1.1-4.6,2.9-6.6c1.4-1.4,3.1-4.4,5.2-5.5c3.9-1.9,8.9-1.2,14.3-1.2c5.5,0,8.5,2.8,12.5,4.8
	C251.6,305.4,252.6,307.4,252.6,311.5z"/>
<path class="st1" d="M242.9,380.3c0,3.7-0.6,5.9-4.7,8.3c-4.1,2.4-7.4,5-13.6,5c-5.7,0-8.7-3.3-12.7-5.4c-4.6-2.4-9.8-3.9-9.8-7.8
	c0-2.4,1.1-4.6,2.9-6.6c1.4-1.4,3.1-4.4,5.2-5.5c3.9-1.9,8.9-1.2,14.3-1.2c5.5,0,8.5,2.8,12.5,4.8
	C241.9,374.3,242.9,376.3,242.9,380.3z"/>
<path class="st1" d="M379.9,276.9c0,3.7-0.6,5.9-4.7,8.3s-7.4,5-13.6,5c-5.7,0-8.7-3.3-12.7-5.4c-4.6-2.4-9.8-3.9-9.8-7.8
	c0-2.4,1.1-4.6,2.9-6.6c1.4-1.4,3.1-4.4,5.2-5.5c3.9-1.9,8.9-1.2,14.3-1.2c5.5,0,8.5,2.8,12.5,4.8
	C378.9,270.8,379.9,272.8,379.9,276.9z"/>
<path class="st1" d="M415.4,214c0,3.7-0.6,5.9-4.7,8.3s-7.4,5-13.6,5c-5.7,0-8.7-3.3-12.7-5.4c-4.6-2.4-9.8-3.9-9.8-7.8
	c0-2.4,1.1-4.6,2.9-6.6c1.4-1.4,3.1-4.4,5.2-5.5c3.9-1.9,8.9-1.2,14.3-1.2c5.5,0,8.5,2.8,12.5,4.8C414.5,208,415.4,209.9,415.4,214z
	"/>
<path class="st1" d="M351.4,145.3c0,3.7-0.6,5.9-4.7,8.3c-4.1,2.4-7.4,5-13.6,5c-5.7,0-8.7-3.3-12.7-5.4c-4.6-2.4-9.8-3.9-9.8-7.8
	c0-2.4,1.1-4.6,2.9-6.6c1.4-1.4,3.1-4.4,5.2-5.5c3.9-1.9,8.9-1.2,14.3-1.2c5.5,0,8.5,2.8,12.5,4.8
	C350.4,139.2,351.4,141.2,351.4,145.3z"/>
<path class="st1" d="M302.5,119.9c0,3.7-0.6,5.9-4.7,8.3c-4.1,2.4-7.4,5-13.6,5c-5.7,0-8.7-3.3-12.7-5.4c-4.6-2.4-9.8-3.9-9.8-7.8
	c0-2.4,1.1-4.6,2.9-6.6c1.4-1.4,3.1-4.4,5.2-5.5c3.9-1.9,8.9-1.2,14.3-1.2c5.5,0,8.5,2.8,12.5,4.8
	C301.5,113.8,302.5,115.8,302.5,119.9z"/>
<g>
	<path class="st1" d="M240.4,137.6c0,5.8-0.8,9.3-6.5,13.1c-5.7,3.8-10.4,7.9-19.1,7.9c-8,0-12.2-5.3-17.8-8.5
		c-6.5-3.8-13.7-6.1-13.7-12.4c0-3.8,1.5-7.3,4.1-10.3c1.9-2.3,4.3-7,7.3-8.6c5.4-2.9,12.5-2,20-2c7.8,0,12,4.4,17.4,7.5
		C239,128.1,240.4,131.2,240.4,137.6z"/>
</g>
<path class="st1" d="M175.7,319.1c0,5.8-0.8,9.3-6.5,13.1c-5.7,3.8-10.4,7.9-19.1,7.9c-8,0-12.2-5.3-17.8-8.5
	c-6.5-3.8-13.7-6.1-13.7-12.4c0-3.8,1.5-7.3,4.1-10.3c1.9-2.3,4.3-7,7.3-8.6c5.4-2.9,12.5-2,20-2c7.8,0,12,4.4,17.4,7.5
	C174.4,309.6,175.7,312.7,175.7,319.1z"/>
<path class="st1" d="M339.1,319.1c0,5.8-0.8,9.3-6.5,13.1s-10.4,7.9-19.1,7.9c-8,0-12.2-5.3-17.8-8.5c-6.5-3.8-13.7-6.1-13.7-12.4
	c0-3.8,1.5-7.3,4.1-10.3c1.9-2.3,4.3-7,7.3-8.6c5.4-2.9,12.5-2,20-2c7.8,0,12,4.4,17.4,7.5C337.8,309.6,339.1,312.7,339.1,319.1z"/>
<path class="st1" d="M339.1,198.4c0,5.8-0.8,9.3-6.5,13.1s-10.4,7.9-19.1,7.9c-8,0-12.2-5.3-17.8-8.5c-6.5-3.8-13.7-6.1-13.7-12.4
	c0-3.8,1.5-7.3,4.1-10.3c1.9-2.3,4.3-7,7.3-8.6c5.4-2.9,12.5-2,20-2c7.8,0,12,4.4,17.4,7.5C337.8,188.9,339.1,192,339.1,198.4z"/>
<g>
	<g>
		<ellipse class="st2" cx="188.5" cy="187.8" rx="63.7" ry="43.9"/>
		<path d="M230.8,152.8c-11.4-6.8-26.2-10.8-42.3-10.8c-1.2,0-2.5,0-3.7,0.1c-34.5,1.3-62,21.4-62,45.8c0,25.3,29.5,45.9,65.7,45.9
			c36.2,0,65.7-20.6,65.7-45.9C254.2,173.8,245.1,161.2,230.8,152.8z M188.5,229.7c-34,0-61.7-18.8-61.7-41.9
			c0-23.1,27.7-41.9,61.7-41.9c0.4,0,0.8,0,1.1,0c14.2,0.2,27.2,3.6,37.5,9.2c14.1,7.7,23.1,19.5,23.1,32.7
			C250.2,210.9,222.5,229.7,188.5,229.7z"/>
	</g>
	<g>
		<ellipse class="st3" cx="188.5" cy="187.8" rx="43.4" ry="29.9"/>
		<path d="M188.5,156.6c-24.6,0-44.7,14-44.7,31.2c0,17.2,20.1,31.2,44.7,31.2c24.7,0,44.7-14,44.7-31.2
			C233.2,170.6,213.1,156.6,188.5,156.6z M188.5,216.3c-23.1,0-42-12.8-42-28.5c0-15.7,18.8-28.5,42-28.5c23.2,0,42,12.8,42,28.5
			C230.4,203.6,211.6,216.3,188.5,216.3z"/>
	</g>
	<g>
		<circle class="st4" cx="193.1" cy="187.8" r="20.7"/>
		<path d="M193,166.3c-11.9,0-21.5,9.7-21.5,21.5s9.6,21.5,21.5,21.5c11.9,0,21.5-9.7,21.5-21.5S204.9,166.3,193,166.3z M193,207.8
			c-11,0-19.9-9-19.9-20c0-11,9-19.9,19.9-19.9c11,0,19.9,9,19.9,19.9C213,198.8,204,207.8,193,207.8z"/>
	</g>
	<g>
		<path class="st2" d="M167.5,185.3c0,6.2,2.5,11.9,6.6,16c-3.1,0.5-6.1,1.6-8.7,3.2c-6.4-4-10.6-11.1-10.6-19.2
			c0-9.2,5.4-17.1,13.3-20.7c1.8,1.8,3.9,3.4,6.2,4.5C170,173.2,167.5,179,167.5,185.3z"/>
		<path d="M174.6,200.7c-4.1-4.1-6.3-9.6-6.3-15.4c0-5.9,2.3-11.4,6.5-15.6l0.8-0.8l-1-0.5c-2.2-1.1-4.2-2.6-6-4.4l-0.4-0.4
			l-0.5,0.2c-8.3,3.8-13.7,12.2-13.7,21.4c0,8.1,4.1,15.5,11,19.9l0.4,0.3l0.4-0.3c2.5-1.6,5.4-2.7,8.4-3.1l1.5-0.2L174.6,200.7z
			 M165.4,203.6c-6.2-4.1-9.8-10.9-9.8-18.3c0-8.4,4.8-16,12.3-19.7c1.5,1.5,3.2,2.8,5,3.8c-4,4.4-6.2,10-6.2,15.9
			c0,5.8,2.1,11.2,5.8,15.5C170,201.3,167.6,202.2,165.4,203.6z"/>
	</g>
</g>
<g>
	<g>
		<ellipse class="st2" cx="329.4" cy="187.8" rx="63.7" ry="43.9"/>
		<path d="M329.4,141.9c-36.2,0-65.7,20.6-65.7,45.9s29.5,45.9,65.7,45.9c36.2,0,65.7-20.6,65.7-45.9S365.6,141.9,329.4,141.9z
			 M329.4,229.7c-34,0-61.7-18.8-61.7-41.9c0-23.1,27.7-41.9,61.7-41.9c34,0,61.7,18.8,61.7,41.9
			C391.1,210.9,363.4,229.7,329.4,229.7z"/>
	</g>
	<g>
		<ellipse class="st3" cx="329.4" cy="187.8" rx="43.4" ry="29.9"/>
		<path d="M329.4,156.6c-24.7,0-44.7,14-44.7,31.2c0,17.2,20.1,31.2,44.7,31.2c24.7,0,44.7-14,44.7-31.2
			C374.1,170.6,354,156.6,329.4,156.6z M329.4,216.3c-23.2,0-42-12.8-42-28.5c0-15.7,18.8-28.5,42-28.5c23.2,0,42,12.8,42,28.5
			C371.4,203.6,352.5,216.3,329.4,216.3z"/>
	</g>
	<g>
		<circle class="st4" cx="324.8" cy="187.8" r="20.7"/>
		<path d="M324.8,166.3c-11.9,0-21.5,9.7-21.5,21.5s9.7,21.5,21.5,21.5s21.5-9.7,21.5-21.5S336.6,166.3,324.8,166.3z M324.8,207.8
			c-11,0-19.9-9-19.9-20c0-11,9-19.9,19.9-19.9c11,0,20,9,20,19.9C344.7,198.8,335.8,207.8,324.8,207.8z"/>
	</g>
	<g>
		<path class="st2" d="M350.4,185.3c0,6.2-2.5,11.9-6.6,16c3.1,0.5,6.1,1.6,8.7,3.2c6.4-4,10.6-11.1,10.6-19.2
			c0-9.2-5.4-17.1-13.3-20.7c-1.8,1.8-3.9,3.4-6.2,4.5C347.8,173.2,350.4,179,350.4,185.3z"/>
		<path d="M350.1,163.9l-0.5-0.2l-0.4,0.4c-1.7,1.8-3.7,3.2-6,4.4l-1,0.5l0.8,0.8c4.2,4.1,6.5,9.7,6.5,15.6c0,5.8-2.2,11.3-6.3,15.4
			l-1.1,1.1l1.5,0.2c3,0.5,5.8,1.5,8.4,3.1l0.4,0.3l0.4-0.3c6.9-4.3,11-11.8,11-19.9C363.9,176.1,358.5,167.7,350.1,163.9z
			 M345.3,200.7c3.8-4.3,5.8-9.7,5.8-15.5c0-6-2.2-11.6-6.2-15.9c1.9-1,3.5-2.3,5-3.8c7.5,3.7,12.3,11.3,12.3,19.7
			c0,7.4-3.7,14.2-9.8,18.3C350.2,202.2,347.9,201.3,345.3,200.7z"/>
	</g>
</g>
<g>
	<path class="st4" d="M371.8,329.3v26.2c0,8.8-5.1,16.5-12.5,20.2c-2.9,1.5-6.1,2.3-9.5,2.4l1.5-3.3l17.3-38.4L371.8,329.3z"/>
	<path class="st4" d="M371.8,286.1v23.6l-3.2,7.1L342.4,375l-1.4,3.2H178.2l-1.4-3.2l-33.5-74.5v19.7l24.7,54.8l0.5,1.1l0.9,2.1
		h-6.6c-3.4,0-6.5-0.7-9.4-2.1c-5.2-2.4-9.4-6.7-11.6-12.1c-1.1-2.6-1.7-5.5-1.7-8.5v-69.4c0-5,1.6-9.6,4.4-13.3
		c1.3-1.8,2.8-3.4,4.6-4.7c0,0,0,0,0,0c0,0,0,0,0,0c0.9-0.7,1.8-1.2,2.7-1.8c3.3-1.8,7-2.9,11-2.9l2.8,0.6l3.8,0.7l2.4,0.5l4.1,0.8
		l2.5,0.5l1,0.2l3.9,0.8l3.1,0.6l1.3,0.2l6.1,1.2l1.7,0.3h0l10,1.9l1.7,0.3l6.7,1.3l1.3,0.2l6.2,1.2l1.1,0.2l5.6,1.1l1.1,0.2
		l2.2,0.4c3.6,0.7,7.3,1.2,11,1.6c0.3,0,0.7,0.1,1,0.1c1.7,0.2,3.4,0.3,5.2,0.4c0.3,0,0.7,0,1,0.1c2,0.1,4.1,0.2,6.1,0.2h1
		c1.7,0,3.4,0,5.1-0.1c0.3,0,0.7,0,1,0c2.3-0.1,4.6-0.3,6.9-0.5c0.3,0,0.7-0.1,1-0.1c1.7-0.2,3.4-0.4,5.1-0.7c0.3,0,0.7-0.1,1-0.2
		c1.3-0.2,2.6-0.4,3.9-0.7l11.3-2.2l1.3-0.2l6-1.2l1.1-0.2l9.5-1.8l1.2-0.2l2.5-0.5l4.4-0.8l0,0h0l0.7-0.1l3.7-0.7l1-0.2l1-0.2
		l16.3-3.1l8.6-1.7c1.2,0,2.4,0.1,3.5,0.3c3.8,0.6,7.2,2.1,10.1,4.3C368.2,272.1,371.8,278.7,371.8,286.1z"/>
	<path d="M318.5,270.3c0,0-0.1,0-0.1,0c-1.9,1.3-3,2.1-4.6,3.2l2.5-0.5l1.5-0.3l1-0.2C318.7,271.7,318.6,271,318.5,270.3z
		 M318.5,270.3c0,0-0.1,0-0.1,0c-1.9,1.3-3,2.1-4.6,3.2l2.5-0.5l1.5-0.3l1-0.2C318.7,271.7,318.6,271,318.5,270.3z M318.5,270.3
		c0,0-0.1,0-0.1,0c-1.9,1.3-3,2.1-4.6,3.2l2.5-0.5l1.5-0.3l1-0.2C318.7,271.7,318.6,271,318.5,270.3z M318.5,270.3c0,0-0.1,0-0.1,0
		c-1.9,1.3-3,2.1-4.6,3.2l2.5-0.5l1.5-0.3l1-0.2C318.7,271.7,318.6,271,318.5,270.3z M318.5,270.3c0,0-0.1,0-0.1,0
		c-1.9,1.3-3,2.1-4.6,3.2l2.5-0.5l1.5-0.3l1-0.2C318.7,271.7,318.6,271,318.5,270.3z M176.8,375l2.9,6.4h159.8l2.9-6.4H176.8z
		 M364.7,265.4c-2.1-1.6-4.5-2.9-7-3.8c-1.5-0.5-3-0.9-4.6-1.1c-1.3-0.2-2.6-0.3-4-0.3h-0.3l-2.6,0.5c0,0,0,0,0,0l-22.3,4.3l-1,0.2
		l-5.3,1l-2.4,0.5l-35.2,6.8c-1.9,0.3-3.4,0.6-4.8,0.8c-1.5,0.2-3.1,0.5-5,0.7c-2.8,0.3-5.8,0.6-8.7,0.7c-1.6,0.1-3.2,0.1-5,0.1
		c-2.7,0-5.4,0-8-0.2c-1.5-0.1-3.1-0.2-5-0.4c-3.9-0.4-7.8-1-11.7-1.7l-52.1-10.1l-16.8-3.2h-0.6c-4.3,0.1-8.5,1.2-12.2,3.3
		c-3.3,1.8-6.2,4.4-8.3,7.4c-3.3,4.4-5,9.7-5,15.2v69.4c0,3.4,0.7,6.7,1.9,9.8c1.8,4.4,4.7,8.1,8.3,10.9c4.4,3.3,9.8,5.3,15.6,5.3
		h8.1l-1.4-3.2l-0.9-2.1l-0.5-1.1h-5.2c-7.9,0-15-4.8-18-12.2c-1-2.3-1.5-4.8-1.5-7.3v-69.4c0-3.1,0.7-6.1,2.1-8.8
		c0.5-0.9,1-1.8,1.6-2.6c0,0,0,0,0,0c0.6-0.8,1.2-1.5,1.8-2.2c1.3-1.3,2.8-2.5,4.5-3.4c0.5-0.3,1.1-0.6,1.7-0.8
		c0.7-0.3,1.4-0.6,2.1-0.8c0.8-0.2,1.6-0.4,2.4-0.6c1-0.2,2-0.3,3-0.3l21.2,4.1l1.1,0.2l1.1,0.2l3.1,0.6l1.1,0.2l1.2,0.2l17,3.3
		l1.2,0.2l1.2,0.2l3.5,0.7l1.1,0.2l1.1,0.2l5.7,1.1l1.1,0.2l1.1,0.2l3.4,0.7l1.1,0.2l1.1,0.2l0.7,0.1c3.4,0.7,6.9,1.2,10.4,1.6
		c0.3,0,0.7,0.1,1,0.1c0.3,0,0.6,0.1,0.9,0.1c0,0,0.1,0,0.1,0c1.1,0.1,2.1,0.2,3.1,0.3c0.3,0,0.7,0,1,0.1c0.4,0,0.7,0,1,0.1h0
		c2.4,0.2,4.9,0.2,7.4,0.2h1c0.3,0,0.7,0,1,0c1.1,0,2.1,0,3.1-0.1c0.3,0,0.7,0,1,0h0.1c0.3,0,0.6,0,0.9,0c2.4-0.1,4.7-0.3,7-0.5
		c0.3,0,0.7-0.1,1-0.1c0.1,0,0.2,0,0.3,0c0.2,0,0.5-0.1,0.7-0.1c1.1-0.1,2.1-0.3,3.1-0.4c0.3,0,0.7-0.1,1-0.1c0.1,0,0.2,0,0.3,0
		c0.2,0,0.4-0.1,0.7-0.1c1.3-0.2,2.7-0.5,4.3-0.8l13.6-2.6l1.1-0.2l1.1-0.2l3.4-0.6l1.1-0.2l1-0.2l8.6-1.7l1-0.2l1.9-0.4l2.5-0.5
		l1.5-0.3l1-0.2l1-0.2l2.9-0.6l1-0.2l1-0.2l14-2.7l5.3-1l5.4-1c0.9,0,1.8,0.1,2.7,0.2c1.8,0.3,3.5,0.8,5.2,1.6
		c1.2,0.6,2.4,1.3,3.5,2.1c1.5,1.1,2.7,2.4,3.8,3.8c2.6,3.3,4,7.4,4,11.8v30.7l3.2-7.1l3.2-7.1v-16.5
		C375,278,371.1,270.3,364.7,265.4z M371.8,329.3l-3.2,7.1v19.1c0,7.4-4.1,14-10.8,17.4c-2.1,1.1-4.3,1.7-6.6,2l-1.5,3.3l-1.5,3.2
		h0.8c4.1,0,8-0.9,11.6-2.8c8.8-4.5,14.3-13.3,14.3-23.1v-33.3L371.8,329.3z M318.5,270.3c0,0-0.1,0-0.1,0c-1.9,1.3-3,2.1-4.6,3.2
		l2.5-0.5l1.5-0.3l1-0.2C318.7,271.7,318.6,271,318.5,270.3z M318.5,270.3c0,0-0.1,0-0.1,0c-1.9,1.3-3,2.1-4.6,3.2l2.5-0.5l1.5-0.3
		l1-0.2C318.7,271.7,318.6,271,318.5,270.3z M318.5,270.3c0,0-0.1,0-0.1,0c-1.9,1.3-3,2.1-4.6,3.2l2.5-0.5l1.5-0.3l1-0.2
		C318.7,271.7,318.6,271,318.5,270.3z M318.5,270.3c0,0-0.1,0-0.1,0c-1.9,1.3-3,2.1-4.6,3.2l2.5-0.5l1.5-0.3l1-0.2
		C318.7,271.7,318.6,271,318.5,270.3z M318.5,270.3c0,0-0.1,0-0.1,0c-1.9,1.3-3,2.1-4.6,3.2l2.5-0.5l1.5-0.3l1-0.2
		C318.7,271.7,318.6,271,318.5,270.3z"/>
</g>
<g>
	<path class="st5" d="M368.8,126.2c-7.3-16.5-36.5-19.6-65.3-6.9c-23.4,10.4-39.3,28.1-40.4,43.2c9.2-6.7,20.3-13.1,32.7-18.6
		c29.6-13.1,58.3-17.3,74.5-12.2C370.1,129.9,369.6,128,368.8,126.2z"/>
</g>
<g>
	<path class="st5" d="M143,126.2c7.3-16.5,36.5-19.6,65.3-6.9c23.4,10.4,39.3,28.1,40.4,43.2c-9.2-6.7-20.3-13.1-32.7-18.6
		c-29.6-13.1-58.3-17.3-74.5-12.2C141.7,129.9,142.2,128,143,126.2z"/>
</g>
<g>
	<g>
		<g>
			<path class="st6" d="M175.9,265.9c0.8,0.4,1.5,0.8,2.1,1.2c0.1-0.3,0.2-0.5,0.3-0.7L175.9,265.9z M173.6,295
				c-2.3,0.6-5.7,0.7-8.9,0.1c-10-1.8-14.5-9-12.6-18.1c0,0,0-0.1,0-0.1c0.9-4.1,2.6-7.2,5-9.4c2.3-2.1,5.2-3.3,8.5-3.5l-2.8-0.6
				c-4,0-7.8,1-11,2.9c-2.1,2.3-3.8,5-4.7,8.2c0,0.1,0,0.1-0.1,0.2c-0.1,0.4-0.2,0.8-0.3,1.2c-2.7,11.3,5,21.3,16.2,23.1
				c5,0.9,9.1,0.7,11.2,0.1C173.9,297.4,173.8,296.6,173.6,295z"/>
			<path class="st6" d="M178.8,265.5l-15.9-3.1l-0.2,0c-2.9,0-5.8,0.5-8.5,1.6c-1,0.4-2.1,0.9-3,1.4l-0.2,0.2
				c-0.7,0.8-1.4,1.6-2,2.5c0,0,0,0,0,0c0,0,0,0,0,0c-1.3,1.9-2.2,3.9-2.9,6.1c-0.1,0.5-0.3,0.9-0.4,1.4c-0.1,0.5-0.2,1.1-0.3,1.7
				c-0.8,4.8,0.3,9.7,3,13.7c3.2,4.8,8.4,8,14.3,9c2.5,0.4,4.7,0.6,6.6,0.6c2.2,0,3.9-0.2,5.1-0.5l0.8-0.2l-0.1-0.8
				c-0.2-1.2-0.2-2-0.4-3l-0.3-2.2l-1.1,0.3c-2.2,0.6-5.5,0.6-8.5,0.1c-4.6-0.8-8-2.8-10.1-5.9c-2-3-2.6-6.8-1.7-11.1l0-0.1
				c1-4.7,3.2-8.2,6.4-10.1c1.8-1.1,3.8-1.8,6.2-1.9l3.7-0.3l1.2-0.1l1.2,0.6l3.7,1.7c0.7,0.3,1.4,0.7,2,1.1l1,0.7l0.6-1.3
				c0.1-0.2,0.2-0.4,0.2-0.5l0.1-0.2l0.4-0.9L178.8,265.5z M155,268.2c-1.8,2.2-3.1,5-3.8,8.4c0,0.1,0,0.2,0,0.2
				c-1,4.8-0.3,9.1,2,12.5c2.3,3.5,6.3,5.8,11.4,6.7c2.8,0.5,5.9,0.5,8.2,0.1v0c0.1,0.7,0.2,1.3,0.2,2.1c-2,0.4-5.6,0.5-10-0.3
				c-5.4-0.9-10.1-3.9-13-8.2c-2.7-4-3.5-8.9-2.4-13.8c0.1-0.4,0.2-0.9,0.4-1.3c0.2-0.8,0.5-1.5,0.8-2.3c0.9-2,2-3.8,3.5-5.4
				c2.2-1.2,4.5-2,7-2.4C157.7,265.5,156.2,266.7,155,268.2z"/>
		</g>
		<g>
			<path class="st6" d="M215.4,276.8c-0.4-1.2-1-2.4-1.6-3.6l-6.7-1.3c1,1.1,1.8,2.3,2.5,3.7c1.3,2.9,1.8,6.3,1.5,9.7
				c-0.8,8.7-6.2,15.5-14.7,14.6c-8.4-1-12.2-9-11-17.2c0.6-4.3,2.3-8.2,4.9-10.8c1-1.1,2.2-2,3.6-2.6l-6.1-1.2
				c-1,0.8-2,1.7-2.8,2.7c-2.6,3.1-4.4,7-5.1,11.1c-1.6,10.5,4.9,20.6,15.8,21.8c11.3,1.3,20.2-7.3,21-18.3
				C216.7,282.6,216.3,279.6,215.4,276.8z"/>
			<path class="st6" d="M216.5,277c-0.4-1.2-0.9-2.4-1.5-3.5c-0.1-0.2-0.2-0.5-0.4-0.7l-0.2-0.4l-10.2-2l1.2,1.2l1,1
				c0.8,0.8,1.4,1.8,2,2.8c1.4,2.7,2,6.2,1.7,9.8c-0.4,4.8-2.4,9-5.3,11.4c-2.3,1.9-5.1,2.7-8.3,2.3c-3.1-0.4-5.7-1.8-7.5-4.2
				c-2.3-3-3.3-7.3-2.6-11.9c0.6-4.5,2.5-8.3,5.1-10.7c0.9-0.8,1.8-1.4,2.8-1.9l1.3-0.6h0l1.6-0.7l-9.6-1.9l-0.4,0.3
				c-0.2,0.2-0.4,0.4-0.7,0.5c-1,0.8-1.8,1.8-2.7,2.8c-2.5,3.1-4.3,7-5,11.2c-0.9,5.6,0.5,11.4,3.8,15.7c3.1,4.1,7.7,6.7,12.8,7.3
				c0.8,0.1,1.6,0.1,2.4,0.1c4.5,0,8.8-1.5,12.2-4.4c4.4-3.6,7.1-9.1,7.5-15C217.7,282.7,217.3,279.8,216.5,277z M215.5,285.5
				c-0.4,5.4-2.9,10.4-6.8,13.6c-3.6,3-8.3,4.4-13.1,3.8c-4.6-0.5-8.7-2.9-11.5-6.5c-3-3.9-4.2-9.1-3.4-14.2
				c0.7-4.2,2.5-8.1,5.2-11.1c0.6-0.7,1.3-1.3,2-1.9l3.1,0.6c-0.7,0.5-1.4,1.2-2,1.9c-2.4,2.7-4.1,6.5-4.7,10.9
				c-0.7,5.1,0.4,10,3,13.4c2.2,2.8,5.2,4.5,8.8,4.9c3.7,0.4,7.1-0.5,9.8-2.7c3.4-2.7,5.6-7.4,6.1-12.7c0.3-3.4-0.2-6.7-1.3-9.5
				c-0.4-0.9-0.8-1.7-1.2-2.5l3.7,0.7c0.4,0.8,0.8,1.6,1.1,2.5C215.3,279.4,215.7,282.4,215.5,285.5z"/>
		</g>
		<g>
			<path class="st6" d="M243.2,278.4c-0.4,1-0.8,2-1.2,3.1c-0.7,1.7-1.4,3.5-2.2,5.6c-1.5,3.9-3,7.7-4.2,11.3c-0.3,1-0.7,1.9-1,2.9
				c0,0-0.1,0-0.1,0c-0.2-1-0.4-2-0.7-3c-0.8-3.7-1.9-7.5-3.1-11.6c-0.8-2.8-1.4-5-2-7.2c-0.3-1.2-0.6-2.3-0.9-3.4l-5.6-1.1
				c0.3,1.2,0.6,2.3,0.9,3.4c1.7,6.6,3.6,13.2,5.5,19.8c0.8,2.7,1.6,5.4,2.4,8c2.4,0.1,3.6,0.2,6,0.2c1-2.3,2-4.7,3-7
				c2.4-5.8,4.8-11.7,7.1-17.5c0.4-1,0.8-2.1,1.2-3.1C246.7,278.7,245,278.5,243.2,278.4z"/>
			<path class="st6" d="M248.5,277.7c-1.5-0.1-3.2-0.2-5.1-0.4l-0.8-0.1l-0.3,0.7c0,0.1-0.1,0.2-0.1,0.2c-0.4,1-0.8,2-1.2,3.1
				c-0.6,1.6-1.3,3.3-2.1,5.3c-1.4,3.5-2.9,7.4-4.2,11c-0.8-3.6-1.9-7.3-3-11.3c-0.7-2.6-1.3-4.7-1.8-6.7c-0.3-1.2-0.6-2.3-0.9-3.4
				c0-0.2-0.1-0.3-0.1-0.5l-0.2-0.6l-7.8-1.5l0.3,1.1l0.1,0.5c0.3,1,0.5,2,0.8,3c1.8,6.8,3.7,13.7,5.6,20.3c0.8,2.7,1.6,5.4,2.4,8
				l0.2,0.7l0.7,0c2.4,0.1,3.6,0.2,6,0.2l0.7,0l0.3-0.6c1-2.3,2-4.7,3-7c2.4-5.8,4.9-11.8,7.2-17.9c0.4-0.9,0.7-1.9,1.1-2.8l0.1-0.3
				l0.4-1L248.5,277.7z M246.1,281.8c-2.3,5.9-4.7,11.7-7,17.2c-0.9,2.1-1.8,4.3-2.7,6.4c-1.7-0.1-2.8-0.1-4.6-0.2
				c-0.7-2.5-1.5-4.9-2.2-7.4c-1.8-6.3-3.6-12.8-5.4-19.3c-0.2-0.8-0.4-1.6-0.6-2.4l3.4,0.7c0.2,0.8,0.4,1.6,0.6,2.4
				c0.6,2.3,1.3,4.7,2.1,7.7c1.1,4.1,2.2,7.9,3,11.6c0.2,1,0.4,2,0.6,2.9l0.1,0.8l1.8,0l0.2-0.7c0.3-0.9,0.6-1.9,0.9-2.9
				c1.2-3.7,2.8-7.7,4.2-11.2c0.9-2.2,1.6-4.1,2.3-5.8c0.3-0.7,0.6-1.4,0.8-2.1c1.1,0.1,2.1,0.2,3.1,0.2
				C246.7,280.4,246.4,281.1,246.1,281.8z"/>
		</g>
		<g>
			<path class="st6" d="M261.7,282c0-1.1,0-2.1,0-3.2c-1.7,0.1-3.4,0.1-5.1,0.1v3.2c0,8.2,0,16.4,0,24.6c2.2,0,3.2,0,5.4,0
				C261.9,298.5,261.8,290.3,261.7,282z"/>
			<path class="st6" d="M262.7,282l0-3.2l0-1l-1,0c-1.6,0.1-3.3,0.1-5.1,0.1h-1v1l0,3.2l0,25.6h2c1.5,0,2.6,0,4.4,0l1,0L262.7,282z
				 M257.6,280c1.1,0,2.1,0,3.1-0.1l0,2.2l0.3,23.7c-1.2,0-2.2,0-3.4,0l0-23.6L257.6,280z"/>
		</g>
		<g>
			<path class="st6" d="M303.9,284.3c-0.3-3.4-1.2-6.1-2.5-8.4c-0.6-1-1.3-2-2.1-2.9l-6,1.2c1,0.8,1.9,1.7,2.6,2.8
				c1.5,2.1,2.4,4.9,2.6,8c0.8,10.3-4.8,16.9-16.3,17.5c-2.1,0.1-4.1,0.1-5.4,0c-0.3-7.2-0.6-14.5-0.9-21.7c0-1.1-0.1-2.2-0.1-3.2
				c-1.7,0.3-3.4,0.5-5.1,0.7c0,1.1,0.1,2.1,0.1,3.2c0.2,8.4,0.5,16.7,0.8,25.1c2.8,0.2,6,0.2,9.8,0.1c2.7-0.1,5.1-0.5,7.3-1
				c4.6-1.1,8.3-3.1,10.7-5.7c0.4-0.5,0.8-0.9,1.2-1.4C303.3,294.6,304.4,289.8,303.9,284.3z"/>
			<path class="st6" d="M304.9,284.2c-0.3-3.2-1.2-6.1-2.5-8.5c-0.6-1-1.2-2-2-2.9c-0.1-0.2-0.3-0.3-0.4-0.5l-0.4-0.4l-8.8,1.7
				l1.1,0.8l0.7,0.5c0.8,0.6,1.5,1.3,2.2,2.2c1.5,2,2.4,4.7,2.7,7.9c0.4,4.8-0.7,8.7-3.1,11.5c-2.6,3-6.8,4.7-12.2,5
				c-1.9,0.1-3.3,0.1-4.4,0l-0.8-21l-0.1-3.2l0-1l-1.1,0.2c-1.5,0.2-3.2,0.5-5,0.7l-0.9,0.1l0,1l0.1,3.2l0.8,25.9l0.9,0.1
				c1.7,0.1,3.5,0.2,5.4,0.2c1.5,0,3,0,4.6-0.1c2.7-0.1,5.2-0.5,7.5-1.1c4.8-1.2,8.7-3.2,11.2-6c0.4-0.4,0.8-0.9,1.2-1.5
				c2.4-3.3,3.7-7.4,3.7-12.1C305,286,305,285.1,304.9,284.2z M272.5,305.5l-0.7-24.3l-0.1-2.2c1.1-0.1,2.1-0.3,3.1-0.4l0.1,2.2
				l0.9,22.5l0.8,0.1c1.2,0.2,3,0.2,5.6,0c6.1-0.3,10.6-2.2,13.6-5.6c2.8-3.2,4-7.7,3.6-12.9c-0.3-3.2-1.1-6-2.5-8.2
				c-0.5-0.7-1-1.3-1.5-1.9l3.5-0.7c0.5,0.6,1,1.3,1.4,2c0.5,0.8,0.9,1.7,1.3,2.6c0.7,1.7,1.1,3.6,1.3,5.7c0.5,5.2-0.6,9.9-3.2,13.4
				c-0.4,0.5-0.7,0.9-1.1,1.3c-2.3,2.5-5.8,4.4-10.2,5.4c-2.2,0.5-4.6,0.9-7.2,1C278.1,305.6,275.1,305.6,272.5,305.5z"/>
		</g>
		<g>
			<path class="st6" d="M323.7,271.5c-0.1-1.1-0.3-2.1-0.4-3.2c-0.2-1.1-0.3-2.1-0.5-3.2c0-0.1,0-0.2,0-0.2
				c-1.7,0.2-2.6,0.4-4.3,0.6c-0.3,0.2-0.7,0.5-1,0.7c-2.4,1.7-3.9,2.7-6.5,4.5c0,0-0.1,0.1-0.2,0.1c0.5,1.2,0.7,1.9,1.1,3
				c0.1,0.2,0.2,0.5,0.3,0.7c0.6-0.4,1.1-0.8,1.6-1.1c1.5-1,2.7-1.9,4.6-3.2c0,0,0.1,0,0.1,0c0.1,0.7,0.2,1.5,0.3,2.2
				c1.2,9.4,2.4,18.7,3.7,28.1c0.1,0.6,0.2,1.3,0.2,1.9c1-0.1,1.8-0.2,2.5-0.3c0.8-0.1,1.7-0.2,2.8-0.4
				C326.6,291.7,325.2,281.6,323.7,271.5z"/>
			<path class="st6" d="M318.5,269.3c-0.1,0-0.2,0-0.4,0l-0.2,0l-0.1,0l0.7-0.1H318.5z M318.5,269.3c-0.1,0-0.2,0-0.4,0l-0.2,0
				l-0.1,0l0.7-0.1H318.5z M318.5,269.3c-0.1,0-0.2,0-0.4,0l-0.2,0l-0.1,0l0.7-0.1H318.5z M318.5,269.3c-0.1,0-0.2,0-0.4,0l-0.2,0
				l-0.1,0l0.7-0.1H318.5z M318.5,269.3c-0.1,0-0.2,0-0.4,0l-0.2,0l-0.1,0l0.7-0.1H318.5z M324.7,271.4l-0.5-3.2l-0.4-3.2l-0.2-1.2
				l-1,0.1c-1.7,0.2-2.6,0.4-4.3,0.6l-0.2,0l-0.2,0.1c-1.1,0.8-2,1.4-2.8,2c-1.5,1-2.8,1.9-4.7,3.2c-0.1,0-0.1,0.1-0.2,0.1l-0.7,0.4
				l0.2,0.5l0.2,0.4c0.4,1,0.7,1.7,1,2.6c0.1,0.3,0.2,0.6,0.4,0.9l0.5,1.2l1-0.7c1.4-1,2.4-1.7,3.5-2.4c0.5-0.3,0.9-0.6,1.4-1
				c0,0.2,0.1,0.5,0.1,0.7c1.2,9.3,2.4,18.7,3.7,28l0.4,2.9l1.2-0.1c0.9-0.1,1.6-0.2,2.3-0.3l3.8-0.5L324.7,271.4z M323.6,301.3
				l-0.1-0.9c-1.2-9.4-2.4-18.8-3.7-28.1c-0.1-0.7-0.2-1.4-0.3-2.2l-0.1-0.9h-0.9c-0.1,0-0.2,0-0.4,0l-0.2,0l-0.1,0h0l0,0l0,0
				c-2.1,1.5-3.3,2.3-5.1,3.6c-0.2-0.6-0.4-1.1-0.7-1.8c0.5-0.4,1-0.7,1.4-1c1.8-1.2,3.2-2.2,5.4-3.8c1.2-0.2,2-0.3,3.1-0.4l0.3,2.5
				l0.4,3.2l4.1,29.2l-1.8,0.2C324.6,301.2,324.1,301.3,323.6,301.3z M318.5,269.3c-0.1,0-0.2,0-0.4,0l-0.2,0l-0.1,0l0.7-0.1H318.5z
				 M318.5,269.3c-0.1,0-0.2,0-0.4,0l-0.2,0l-0.1,0l0.7-0.1H318.5z M318.5,269.3c-0.1,0-0.2,0-0.4,0l-0.2,0l-0.1,0l0.7-0.1H318.5z
				 M318.5,269.3c-0.1,0-0.2,0-0.4,0l-0.2,0l-0.1,0l0.7-0.1H318.5z"/>
		</g>
		<g>
			<path class="st7" d="M364.6,274.3c-0.1-0.5-0.2-1.1-0.3-1.6c-0.4-1.7-0.9-3.3-1.6-4.7c-0.8-1.7-1.7-3.1-2.8-4.3
				c-0.7-0.8-1.5-1.5-2.3-2c-2.5-1.7-5.6-2.3-9-1.7c-0.9,0.2-1.7,0.4-2.5,0.7c0,0,0,0,0,0c-2.3,0.9-4.2,2.5-5.6,4.3
				c-0.8,1.1-1.4,2.3-1.8,3.6c-0.7,2.1-0.9,4.4-0.5,6.7c0.9,5.4,5,9.2,10.5,9.4h0c0.9,0,1.9,0,2.9-0.2c3.9-0.8,6.7-2.9,8.3-5.8
				c0.1,0,0.1,0,0.2,0c0.2,4.5-1,8-3.1,10.8c-1.8,2.4-4.6,4.2-7.6,5.1c-1.8,0.5-3.1,0.9-4.3,1c0.3,1.6,0.4,2.4,0.7,4
				c1.3-0.2,3-0.6,4.9-1.2c4.1-1.3,8.1-3.8,10.6-7.2c0.2-0.3,0.5-0.7,0.7-1C364.5,286.3,365.8,280.9,364.6,274.3z M358.9,275.1
				c-0.9,2.5-3.3,4.7-6.8,5.3c-4.5,0.9-8-1.8-8.8-6.4c-0.4-2.1-0.2-4.1,0.4-5.7c0,0,0,0,0,0c0.1-0.2,0.2-0.5,0.3-0.7
				c1-2,2.7-3.4,5-3.8c1-0.2,1.8-0.2,2.7-0.1c2.4,0.4,4.3,2.1,5.6,4.7c0.7,1.4,1.3,3,1.7,4.8C359.1,274,359.1,274.6,358.9,275.1z"/>
		</g>
	</g>
</g>
<g>
	<g>
		<path class="st6" d="M221.5,355.6c-2.9,5.9-4.4,8.8-7.5,14.6c-0.9,1.6-1.7,3.2-2.5,4.7c-0.6,1.1-1.1,2.2-1.6,3.2h4.3
			c0.6-1.1,1.2-2.1,1.7-3.2c3.4-6.2,6.7-12.4,9.8-18.8C224.1,356,223.2,355.9,221.5,355.6z M207.6,375c-0.3-1.9-0.6-4-0.9-6.1
			c-0.9-6.5-1.3-9.8-2.1-16.3c-1.7-0.4-2.5-0.6-4.2-1c0.9,7.8,1.9,15.6,3.1,23.3c0.1,1.1,0.3,2.1,0.5,3.2h4
			C207.9,377.1,207.8,376.1,207.6,375z"/>
		<path class="st6" d="M229.1,356.6c-0.6,6.1-1.2,12.3-1.9,18.4c-0.1,1.1-0.2,2.1-0.3,3.2h4.3c0.1-1.1,0.2-2.1,0.3-3.2
			c0.5-6,1-12,1.5-18C231.5,356.8,230.7,356.8,229.1,356.6z"/>
		<path class="st6" d="M259.2,366.4c0-2.4-1-4.6-2.5-6c-2-1.8-4.7-2.6-9-2.7c-2.8-0.1-5.7,0-7.7,0.3c-0.3,5.7-0.7,11.3-1,17
			c-0.1,1.1-0.1,2.1-0.2,3.2h4.3c0-0.8,0.1-1.6,0.1-2.5c1.6,0.1,2.4,0.1,4,0.2c2.3,0.2,3.9,0.8,5,2.3h4.7c-0.7-1.5-1.7-2.5-3-3.2
			c-0.3-0.1-0.5-0.2-0.8-0.3v-0.1C256.6,373.4,259.3,370.6,259.2,366.4z M247.7,372.8c-1.7-0.1-2.6-0.1-4.3-0.2
			c0.2-4.6,0.3-6.9,0.5-11.5c0.7-0.2,2.1-0.3,4-0.2c4.2,0.2,7.2,2,7.2,6C255.1,370.5,252.2,372.9,247.7,372.8z"/>
		<path class="st6" d="M289.8,375c0-0.2,0-0.5-0.1-0.7c-0.9-7.3-1.3-11-2.2-18.3c-1.6,0.2-2.4,0.3-4,0.5c0.8,7.4,1.2,11.1,1.9,18.5
			c0,0,0,0.1,0,0.1c0.1,1.1,0.1,2.1,0.1,3.1h4.3C289.9,377.2,289.9,376.1,289.8,375z M269.7,376.4c0-0.5-0.1-1-0.1-1.5
			c-0.3-6.5-0.5-10.3-0.8-17.2c-1.6,0.1-2.4,0.1-4,0.2c0.2,6.9,0.3,10.6,0.5,17.1c0,0.5,0,1,0.1,1.6c0,0.6,0,1.1,0.1,1.6h4.4
			C269.8,377.6,269.7,377,269.7,376.4z"/>
		<path class="st6" d="M316.2,375c0-0.3-0.1-0.6-0.1-0.9c-1-4.5-4.3-6.4-10.1-7.3c-4.7-0.8-6.9-1.9-7.3-4.8
			c-0.3-2.1,0.9-4.9,5.1-5.8c2.8-0.5,5-0.1,6.2,0.2c0.2-1.4,0.3-2.1,0.4-3.5c-1.5-0.5-3.9-0.7-7-0.1c-5.9,1.2-9.4,5.4-8.7,10.3
			c0.6,4.4,4.3,6.5,9.9,7.4c4.4,0.7,6.5,1.9,7.2,4.5c0,0.1,0.1,0.3,0.1,0.4c0.2,1,0.1,1.9-0.2,2.8h4.4
			C316.3,377.1,316.4,376,316.2,375z"/>
	</g>
</g>
<path class="st8" d="M90.3,183l25.8,57.3h-8.9l-21.9-48.7c1-2.6,2-5.2,3.1-7.8L90.3,183z"/>
<path class="st8" d="M432.9,193.7l-21,46.6h-8.9l22.8-50.5c0.5,1.3,1,2.7,1.5,4C429.2,193.8,431.1,193.8,432.9,193.7z"/>
<path class="st9" d="M375,302.5l-3.2,7.1l-3.2,7.1L342.4,375l-2.9,6.4l-10,22.1H189.6l-10-22.1l-2.9-6.4l-33.5-74.5l-3.2-7.1
	l-3.2-7.1l-16.9-37.6h279.4L375,302.5z M168.4,376.1l-0.5-1.1l-24.7-54.8l-3.2-7.1l-3.2-7.1L111,248.7l-3.8-8.4h8.9h287h8.9
	l-3.8,8.4L375,322.2l-3.2,7.1l-3.2,7.1l-17.3,38.4l-1.5,3.3l-1.5,3.2l-10,22.1l-3.8,8.4h-150l-3.8-8.4l-8.5-19"/>
<path class="st8" d="M111,248.7H73.8c0.1-2.8,0.3-5.6,0.5-8.4h32.9L111,248.7z"/>
<path class="st10" d="M172.2,384.5l-48.6-0.6c0,0-5-5-4.6-7.8h49.8l0.8,2.1l1.3,3.2L172.2,384.5z"/>
<path class="st11" d="M346.3,384.5h62.4c-0.2-2.8-4-8.6-4-8.6l-54.6,0.2l-0.9,2.1l-1.4,3.2L346.3,384.5z"/>
<polygon class="st12" points="437.9,240.3 437.9,248.7 408.1,248.7 411.9,240.3 "/>
</svg>
