<?xml version="1.0" encoding="UTF-8" standalone="no"?>
<!-- Created with Inkscape (http://www.inkscape.org/) -->

<svg
   xmlns:dc="http://purl.org/dc/elements/1.1/"
   xmlns:cc="http://creativecommons.org/ns#"
   xmlns:rdf="http://www.w3.org/1999/02/22-rdf-syntax-ns#"
   xmlns:svg="http://www.w3.org/2000/svg"
   xmlns="http://www.w3.org/2000/svg"
   xmlns:sodipodi="http://sodipodi.sourceforge.net/DTD/sodipodi-0.dtd"
   xmlns:inkscape="http://www.inkscape.org/namespaces/inkscape"
   version="1.1"
   id="svg498"
   width="600"
   height="374"
   viewBox="0 0 600 374"
   sodipodi:docname="lavez vous les mains !.svg"
   inkscape:version="0.92.4 (5da689c313, 2019-01-14)">
  <metadata
     id="metadata504">
    <rdf:RDF>
      <cc:Work
         rdf:about="">
        <dc:format>image/svg+xml</dc:format>
        <dc:type
           rdf:resource="http://purl.org/dc/dcmitype/StillImage" />
        <dc:title></dc:title>
      </cc:Work>
    </rdf:RDF>
  </metadata>
  <defs
     id="defs502" />
  <sodipodi:namedview
     pagecolor="#ffffff"
     bordercolor="#666666"
     borderopacity="1"
     objecttolerance="10"
     gridtolerance="10"
     guidetolerance="10"
     inkscape:pageopacity="0"
     inkscape:pageshadow="2"
     inkscape:window-width="1366"
     inkscape:window-height="705"
     id="namedview500"
     showgrid="false"
     inkscape:zoom="0.67646549"
     inkscape:cx="562.09603"
     inkscape:cy="341.70449"
     inkscape:window-x="-8"
     inkscape:window-y="-8"
     inkscape:window-maximized="1"
     inkscape:current-layer="svg498" />
  <g
     id="g557">
    <text
       xml:space="preserve"
       style="font-style:normal;font-weight:normal;font-size:83.5362854px;line-height:1.25;font-family:sans-serif;letter-spacing:0px;word-spacing:0px;fill:#000000;fill-opacity:1;stroke:none;stroke-width:2.08840704"
       x="33.347824"
       y="64.085495"
       id="text530"
       transform="scale(0.78282714,1.2774212)"><tspan
         sodipodi:role="line"
         id="tspan528"
         x="33.347824"
         y="64.085495"
         style="font-style:normal;font-variant:normal;font-weight:bold;font-stretch:normal;font-family:Calibri;-inkscape-font-specification:'Calibri Bold';stroke-width:2.08840704">WASH YOUR HANDS</tspan></text>
    <path
       style="fill:#0b8cf2;stroke-width:0.90686977"
       d="m 262.15187,360.7496 c -1.28136,-0.15065 -10.08781,-0.90603 -19.56989,-1.67861 -16.75927,-1.36553 -33.56238,-4.36416 -47.06092,-8.39837 -3.07526,-0.91909 -10.61154,-3.11572 -16.74727,-4.88141 -6.13574,-1.76569 -14.09815,-4.61352 -17.69423,-6.3285 l -6.53833,-3.11816 4.66329,-1.94896 c 5.081,-2.12356 6.9617,-4.73168 6.9617,-9.65438 0,-5.74527 -6.72189,-10.78867 -13.27058,-9.95686 -6.20513,0.78818 -10.2911,6.03155 -9.33082,11.97387 0.55766,3.45081 0.71652,3.50133 -7.97253,-2.53576 -3.1437,-2.18422 -5.72804,-4.26159 -5.74298,-4.61638 -0.0149,-0.35479 1.12606,-0.88 2.53556,-1.16714 11.62143,-2.36747 17.86932,-10.07616 16.3992,-20.23342 -0.82526,-5.70191 -5.05853,-10.84841 -11.44725,-13.91675 -2.77925,-1.3348 -5.97395,-2.42691 -7.09933,-2.42691 -1.54164,0 -2.1883,-0.673 -2.62259,-2.7294 -0.61845,-2.92834 -5.21464,-7.5569 -8.77809,-8.83993 -3.55277,-1.27917 -10.67519,-0.89686 -14.15737,0.75993 -1.78369,0.84866 -4.18654,2.88057 -5.339666,4.51534 l -2.096606,2.97233 -0.952271,-2.37194 c -3.359833,-8.3687 -3.388339,-25.14533 -0.06393,-37.64521 4.126283,-15.51513 10.151643,-26.66652 20.415823,-37.78443 5.7043,-6.1788 16.57735,-15.07054 18.42861,-15.07054 0.63745,0 2.5478,1.20224 4.2452,2.67163 5.22279,4.52125 13.1606,5.39941 19.71179,2.18073 l 2.47834,-1.21763 v 5.34656 c 0,5.01393 0.22028,5.55517 3.54066,8.69958 8.87,8.39992 22.55912,3.56908 22.54904,-7.95746 -0.008,-9.07762 -8.85898,-14.91397 -18.06329,-11.91088 -2.06805,0.67473 -3.8832,1.11022 -4.03365,0.96773 -0.15047,-0.14248 0.17681,-1.48255 0.72727,-2.97792 0.70966,-1.92785 0.71239,-3.70255 0.009,-6.10006 -0.54529,-1.85967 -0.99378,-3.87368 -0.99663,-4.47557 -0.01,-2.0836 14.645,-7.65744 31.67939,-12.04895 19.77613,-5.09832 32.10127,-6.87387 52.65232,-7.58505 20.59543,-0.71272 25.00103,-1.50494 32.15053,-5.78138 18.51434,-27.92369 79.18359,-75.13413 32.24504,-25.49619 -4.56091,4.81954 -12.00743,13.41664 -16.54783,19.10464 -4.5404,5.68801 -9.19585,10.83421 -10.34543,11.43602 -1.14959,0.6018 -6.73428,2.37159 -12.41041,3.93284 -13.01124,3.57882 -37.64142,13.20643 -43.91952,17.16756 -2.62595,1.65682 -7.69417,5.39518 -11.26273,8.30747 -3.56856,2.91229 -9.07469,7.2063 -12.23583,9.54224 -5.48688,4.05453 -10.64416,11.18982 -9.12659,12.62697 0.9949,0.94217 3.27556,-1.32252 6.8414,-6.79347 2.17439,-3.3361 3.77899,-4.9399 4.63217,-4.62986 1.76447,0.64121 1.75093,0.69 -1.89225,6.81956 -3.18175,5.35324 -9.51908,11.74547 -17.07121,17.21911 -4.37165,3.16848 -4.69331,4.02277 -2.41311,6.40883 2.19595,2.29791 0.87259,3.01776 -1.46981,0.7995 -2.08743,-1.97681 -4.27465,-2.3787 -5.2031,-0.95605 -0.31677,0.48538 -1.42176,0.88251 -2.45552,0.88251 -1.60994,0 -12.92083,7.36572 -12.92083,8.41412 0,0.20259 0.83715,1.66862 1.86032,3.25784 3.44852,5.35632 1.74444,10.32957 -5.05811,14.7618 -6.60826,4.30566 -8.36931,3.34629 -2.59149,-1.41177 5.94086,-4.89231 8.1294,-8.40995 6.75045,-10.85 -2.20868,-3.90825 -7.52425,-3.32678 -15.77963,1.72615 -6.76389,4.14003 -11.36646,10.00145 -9.33199,11.88437 0.7254,0.67138 2.78666,1.4098 4.58057,1.64095 1.7939,0.23115 3.41783,0.45665 3.60872,0.50112 0.1909,0.0445 -0.21262,0.71952 -0.89672,1.50011 -1.05635,1.20538 -0.97893,1.60268 0.51375,2.63631 2.53742,1.75708 6.99821,2.36098 14.70552,1.99082 11.67582,-0.56077 23.37285,-7.38384 33.44607,-19.50969 6.78964,-8.17316 19.10233,-18.73656 26.23315,-22.50615 11.57806,-6.12054 26.35795,-11.89182 35.45536,-13.84466 6.91302,-1.48394 11.69377,-3.18612 17.661,-6.28821 10.02366,-5.21084 10.59482,-6.45102 5.41703,-11.76234 -3.917,-4.01802 -6.60986,-4.40716 -6.60986,-0.95518 0,5.3337 -6.66092,10.38462 -12.1807,9.23651 -1.52588,-0.31737 -3.99153,-1.54697 -5.4792,-2.73242 -9.23091,-7.35566 1.15729,-21.12999 11.94968,-15.8448 1.42138,0.69608 3.12932,1.88747 3.79543,2.64754 2.21479,2.52724 3.49935,1.53893 4.08486,-3.1428 0.72749,-5.81697 3.13457,-10.14768 7.50002,-13.49368 2.95501,-2.26494 4.42496,-2.71372 9.71935,-2.96739 7.56476,-0.36245 11.44542,1.31946 15.48033,6.70931 2.1345,2.85128 2.73568,4.63447 2.79569,8.29256 0.042,2.56311 -0.26631,5.55374 -0.68526,6.64585 -0.6753,1.76038 -0.46386,1.98528 1.8638,1.98235 3.51312,-0.004 6.92043,-2.08947 15.28485,-9.35338 3.85525,-3.348 13.4658,-11.64712 21.35679,-18.44246 130.12935,-97.842328 2.06531,-31.00487 -21.16662,27.19703 -0.69211,3.26525 -3.49104,4.89277 -10.17468,5.91633 -24.43645,3.74234 -50.91819,17.20776 -67.7699,34.45962 -5.86901,6.00836 -18.30991,22.76519 -18.30991,24.66187 0,0.58117 -1.07162,2.26272 -2.38137,3.73678 -1.30976,1.47406 -3.46132,4.70844 -4.78125,7.1875 -1.31994,2.47906 -3.60316,5.95449 -5.07383,7.72317 -1.47066,1.76868 -2.67394,3.58038 -2.67394,4.02597 0,0.4456 1.25806,1.69101 2.7957,2.76759 5.03324,3.52402 3.23318,7.80746 -7.48933,17.82167 -3.56904,3.33327 -6.48917,6.42862 -6.48917,6.87855 0,1.65239 5.60749,3.03503 9.99781,2.46516 6.61027,-0.85802 11.73282,-3.63819 19.48296,-10.57401 6.96781,-6.23568 7.06715,-6.38768 9.31005,-14.24555 1.24691,-4.36843 3.28892,-11.51678 4.5378,-15.88522 3.31985,-11.61244 9.381,-27.22889 10.73401,-27.65599 0.86752,-0.27385 1.01061,0.44369 0.55107,2.76346 -0.34139,1.72333 -0.26771,3.33995 0.16375,3.59248 0.43145,0.25252 5.33732,-1.70217 10.90191,-4.34375 10.30819,-4.89342 16.32779,-6.17607 16.32779,-3.47911 0,0.72807 -0.77172,1.32377 -1.71495,1.32377 -2.94238,0 -12.50795,5.05137 -17.62421,9.30696 -5.07838,4.22409 -12.60594,15.1921 -12.25236,17.85225 0.11131,0.83735 -0.9084,3.70666 -2.26599,6.37626 -1.3576,2.6696 -2.47246,6.15846 -2.47746,7.75303 -0.005,1.59457 -0.5868,3.77879 -1.29288,4.85382 -2.90075,4.41655 -12.69472,47.77408 -12.69472,56.19909 0,2.09107 -0.44657,2.5393 -2.86483,2.87542 -2.5464,0.35393 -2.80089,0.1934 -2.28953,-1.44423 1.15271,-3.69158 3.29974,-18.32337 2.8009,-19.08776 -0.88422,-1.35486 -6.9892,2.02465 -7.56204,4.1861 -0.29614,1.11738 -0.38711,7.90704 -0.20216,15.08815 0.38521,14.95668 1.20452,17.11617 7.08018,18.66143 7.56979,1.99079 10.84367,1.31278 16.96834,-3.51411 4.75711,-3.7491 6.2824,-5.71868 9.73898,-12.5758 4.23892,-8.40911 10.86192,-25.36786 13.50687,-34.58549 l 1.51356,-5.27471 3.71938,-0.16317 c 2.04565,-0.0897 5.08228,-0.44182 6.74805,-0.78241 3.78609,-0.77411 4.06999,0.78776 0.46595,2.56337 -5.32499,2.62346 -7.42194,6.4409 -17.00581,30.95871 -2.07938,5.31955 -4.83359,11.37332 -6.12046,13.45283 -1.82248,2.94502 -2.12752,4.1565 -1.37973,5.4797 2.245,3.97252 12.21837,2.84868 17.59879,-1.98309 3.5087,-3.15092 13.39575,-18.60924 20.51099,-32.06876 2.61021,-4.9376 5.28225,-9.2914 5.93785,-9.67511 0.65561,-0.38372 2.3039,-0.58721 3.66288,-0.45222 1.35898,0.135 2.74688,-0.17749 3.08423,-0.6944 0.84047,-1.28784 3.29906,-1.18874 3.29906,0.13298 0,0.59006 -1.86005,2.87356 -4.13346,5.07445 -4.28329,4.14668 -19.16402,27.55123 -19.16402,30.14135 0,3.29432 7.96782,3.44663 14.67684,0.28056 5.18046,-2.44471 18.42039,-14.90332 23.62575,-22.23152 4.22265,-5.94472 7.44249,-9.04259 9.39863,-9.04259 2.07878,0 2.1633,1.61414 0.22194,4.23893 -2.88994,3.90731 -0.69291,3.99895 3.71089,0.1548 9.19263,-8.02442 14.63769,-23.64275 25.73719,-73.82338 1.16884,-5.28429 2.32322,-6.47616 6.01888,-6.21432 2.38504,0.16898 3.08539,-0.47002 6.56347,-5.98842 3.75488,-5.95761 4.0179,-6.17373 7.38609,-6.06908 3.31163,0.1029 4.46195,-0.76567 22.20674,-16.76773 26.7974,-24.16559 32.44783,-28.90233 34.11483,-28.5983 3.5541,0.64818 1.67837,3.38066 -8.0114,11.67061 -5.53217,4.73299 -10.43365,9.35411 -10.89218,10.26916 -0.68091,1.35885 0.39387,2.88752 5.86532,8.34228 8.39075,8.36514 12.36308,14.2164 16.3123,24.02808 6.37673,15.84268 6.94264,31.51459 1.62881,45.10611 -6.34057,16.21765 -15.71577,30.0436 -28.50348,42.03513 -7.21217,6.76313 -11.77847,10.14759 -19.54332,14.48514 -16.1937,9.04605 -36.32711,16.84466 -60.66069,23.49673 -10.86469,2.97008 -29.04836,5.86805 -44.26522,7.05463 -14.63958,1.14157 -32.87006,1.49418 -39.13977,0.75702 z m -39.36868,-27.92265 c 1.59902,-1.89424 2.90703,-13.11518 1.58483,-13.59566 -1.17754,-0.42792 -12.31398,3.64716 -13.90657,5.08874 -1.28281,1.16117 1.81853,6.26991 4.90779,8.08445 3.00475,1.76489 6.1304,1.94301 7.41395,0.42247 z m 154.90563,-0.44262 c 4.31088,-2.05108 7.47377,-6.66511 7.47377,-10.90276 0,-2.7106 -0.71573,-4.0749 -3.69229,-7.03808 -3.66593,-3.64946 -3.73243,-3.67295 -9.31993,-3.2902 -4.60378,0.31536 -6.13222,0.84327 -8.40087,2.90159 -3.37394,3.06114 -5.05969,7.53343 -4.29486,11.39429 0.55324,2.79268 4.23131,6.88172 7.06996,7.85989 2.88214,0.99316 8.02933,0.56682 11.16422,-0.92473 z m -9.31353,-4.90819 c -3.522,-1.65407 -3.73123,-6.83147 -0.37705,-9.33005 4.7441,-3.53394 10.64105,-1.43732 10.64105,3.78335 0,4.73766 -5.57346,7.74958 -10.264,5.5467 z m -180.39058,-7.44561 c -0.29596,-1.43505 0.0547,-3.13657 0.85797,-4.16332 1.30261,-1.66497 1.41801,-1.60152 2.80514,1.54243 2.39863,5.43651 4.771,5.83139 15.11846,2.51654 10.41835,-3.33757 21.27466,-7.89923 28.15645,-11.83092 4.82331,-2.75565 7.13074,-6.30244 6.01452,-9.24503 -0.75502,-1.99033 -7.83498,-1.23849 -13.89233,1.47526 -6.06266,2.71613 -7.72238,4.54472 -7.82002,8.61561 l -0.0596,2.48493 -1.26904,-2.64754 c -0.69797,-1.45614 -1.50035,-3.35152 -1.78306,-4.21195 -0.90863,-2.76538 -3.38284,-2.75154 -9.27797,0.0519 -5.41555,2.57537 -19.83596,7.24886 -22.36691,7.24886 -0.6444,0 -1.93628,0.52949 -2.87087,1.17666 -1.64345,1.13803 -1.64355,1.26115 -0.004,3.75068 4.02733,6.11287 7.32878,7.78455 6.39068,3.2359 z m 224.66891,-4.42363 c 8.30148,-4.05303 12.94761,-11.08649 13.00673,-19.69005 0.0543,-7.90108 -3.35064,-13.30533 -10.69137,-16.96919 -4.54618,-2.26906 -5.80476,-2.50596 -11.38777,-2.14343 -6.66889,0.43303 -9.09963,1.58269 -9.09963,4.30383 0,1.55422 0.53489,1.63537 7.27193,1.1033 8.51892,-0.6728 11.61501,0.41083 15.71378,5.49981 2.11808,2.62978 2.58575,4.11755 2.61089,8.30579 0.0256,4.27162 -0.42445,5.71452 -2.76506,8.86409 -5.41968,7.2928 -16.53568,10.15204 -23.60361,6.07127 -3.17914,-1.83553 -7.61502,-5.66454 -7.61502,-6.57324 0,-0.27958 1.44052,-1.70609 3.20116,-3.17003 12.26354,-10.1969 4.13497,-27.49472 -12.31327,-26.20298 -6.54389,0.5139 -7.97639,2.08581 -11.25301,12.348 -3.04822,9.54688 -2.95495,11.66146 0.66562,15.09015 2.66491,2.52368 3.54622,2.79962 9.91436,3.10415 6.30501,0.30151 6.98944,0.51102 6.98944,2.13946 0,2.34752 6.27396,7.97377 10.33717,9.26998 4.71134,1.50298 14.61289,0.79963 19.01766,-1.35091 z m -38.42009,-15.95339 c -5.57479,-1.56463 -7.67772,-5.91727 -5.70757,-11.81354 1.05322,-3.15212 1.98218,-4.11099 5.65405,-5.83615 3.8527,-1.81012 4.79911,-1.93766 7.68529,-1.03561 1.81033,0.5658 3.92184,1.88096 4.69225,2.92258 1.7257,2.33322 1.79095,3.35256 0.17706,2.76607 -1.5567,-0.56571 -3.81455,1.88917 -5.11389,5.56015 -0.87543,2.47332 -0.76606,3.01565 0.82028,4.06789 1.4375,0.9535 1.57598,1.40827 0.64516,2.11875 -1.6688,1.27376 -6.39167,1.94056 -8.85263,1.24986 z m -192.09614,8.70361 c 8.65684,-0.9465 9.06032,-1.37386 5.0077,-5.30418 -4.79782,-4.65301 -4.3264,-7.1398 2.31863,-12.23113 6.60926,-5.06391 6.88079,-5.85005 1.75493,-5.08092 -10.4638,1.5701 -12.17813,1.62698 -14.44288,0.47915 -1.84302,-0.93408 -2.92964,-0.96229 -5.24099,-0.1361 -3.08149,1.10149 -4.0808,0.90461 -3.09277,-0.60933 0.80077,-1.227 7.43113,-2.87252 9.11246,-2.26152 0.73533,0.2672 2.46141,0.081 3.83576,-0.41386 2.46622,-0.88796 2.49099,-0.97924 1.90002,-7.00096 -0.36141,-3.68255 -0.13504,-8.42873 0.57102,-11.97242 0.64339,-3.22914 0.99329,-6.03831 0.77757,-6.24261 -0.37213,-0.35241 -12.60748,3.89474 -17.50149,6.07513 -1.8198,0.81076 -2.52595,2.12202 -3.43607,6.38035 -0.63003,2.94792 -2.84831,9.0976 -4.92948,13.66594 -4.59483,10.08601 -4.75452,13.24102 -0.94582,18.68638 4.22411,6.03927 7.72028,7.91143 13.4657,7.21072 2.56272,-0.31255 7.44329,-0.87264 10.84571,-1.24464 z m 21.07184,-5.91522 c 1.15323,-0.26048 2.09657,-0.92695 2.09632,-1.48106 -6.2e-4,-1.38347 -8.86879,-8.50883 -10.59001,-8.50883 -1.85972,0 -8.04752,5.59525 -8.04752,7.27687 0,3.6765 7.11151,4.8429 16.54121,2.71302 z m 38.44085,-8.66612 c 0,-0.72807 -0.60428,-1.32377 -1.34285,-1.32377 -1.55687,0 -2.60783,1.2596 -1.73815,2.08319 1.11377,1.05474 3.081,0.56985 3.081,-0.75942 z m -34.36001,-3.1469 c 2.07549,-1.00272 6.06946,-3.92898 8.87549,-6.5028 4.83418,-4.43413 5.08652,-4.88256 4.80933,-8.54639 -0.25728,-3.40065 -0.57895,-3.89832 -2.66866,-4.12891 -1.95577,-0.21581 -3.58006,1.0332 -9.18143,7.0601 -6.89629,7.4202 -8.93902,10.64867 -8.07962,12.76955 0.64901,1.60167 1.8378,1.47764 6.24489,-0.65155 z m -1.52302,-17.37151 c 7.99678,-8.83387 17.87044,-22.60891 22.61426,-31.54982 4.39495,-8.2834 9.87107,-15.53066 17.80141,-23.55896 9.13827,-9.25112 7.51869,-10.08349 -6.42366,-3.30134 -13.63807,6.63415 -19.63124,10.58741 -28.95621,19.1003 -14.42574,13.16947 -21.45068,25.14624 -21.68236,36.96613 -0.15103,7.70521 0.88627,9.18316 6.44522,9.18316 3.84783,0 4.26032,-0.27655 10.20134,-6.83947 z m 192.95809,-0.69819 c 5.58443,-2.71692 8.36851,-5.90118 9.89968,-11.32269 1.26782,-4.48897 0.24018,-10.15755 -2.58046,-14.23425 -3.38244,-4.88869 -14.35538,-7.2358 -21.18819,-4.53217 -6.16791,2.44053 -9.22472,7.83415 -10.67611,18.8375 -0.66165,5.01617 -0.63303,5.1007 2.68889,7.94281 7.25009,6.2029 13.85293,7.2025 21.85619,3.3088 z m -11.68534,-3.09579 c -9.95056,-2.14846 -11.68031,-15.89899 -2.65395,-21.09734 6.649,-3.82921 14.56974,-2.68075 17.85696,2.58915 5.78874,9.28022 -3.81164,20.96774 -15.20301,18.50819 z m -13.06,-0.0609 c 0,-0.97076 -0.41936,-1.51959 -0.9319,-1.2196 -0.51255,0.29998 -0.9319,1.33968 -0.9319,2.31044 0,0.97076 0.41935,1.51959 0.9319,1.21961 0.51254,-0.29999 0.9319,-1.33968 0.9319,-2.31045 z M 136.18132,220.00794 c 3.80506,-1.25616 6.68742,-5.75152 6.68742,-10.42981 0,-3.04537 -0.61371,-4.30374 -3.55559,-7.29045 -3.04607,-3.09248 -4.21457,-3.66372 -8.15412,-3.98625 -8.59343,-0.70357 -14.43286,5.33304 -12.60624,13.03191 1.85455,7.81651 9.23167,11.44663 17.62853,8.6746 z m -9.48475,-7.38116 c -2.73887,-2.40379 -2.86519,-2.90377 -1.55698,-6.16227 1.68207,-4.18975 9.16788,-2.25612 10.7066,2.76557 0.407,1.32831 -0.008,2.51159 -1.31688,3.75068 -2.52287,2.38917 -4.82577,2.2851 -7.83274,-0.35398 z m 142.82551,-22.94584 c 5.2998,-2.59539 6.01189,-10.18914 1.28561,-13.7098 -4.34299,-3.23515 -10.57481,-1.81171 -12.98006,2.96486 -1.82938,3.63296 -1.17197,6.90238 1.99003,9.89681 2.55892,2.42331 5.89291,2.71468 9.70442,0.84813 z m 34.35365,-5.45784 c 8.40359,-3.82184 10.4057,-10.30898 5.81288,-18.83456 -1.96278,-3.64346 -8.2987,-7.07841 -13.05646,-7.07841 -10.43617,0 -18.50528,10.87943 -14.84832,20.0197 1.05289,2.6316 4.41323,6.45567 5.67283,6.45567 0.41278,0 1.60626,-1.58852 2.65219,-3.53005 2.96287,-5.49991 4.98751,-4.57618 2.48,1.13149 -0.68618,1.5619 -1.058,3.37198 -0.82628,4.02241 0.57694,1.61937 5.82997,0.67127 12.11316,-2.18625 z m -153.1282,144.01077 c -2.77481,-2.62774 -2.88307,-4.32981 -0.4236,-6.65895 5.10237,-4.83196 13.61794,1.24282 9.19929,6.56252 -2.39158,2.87927 -5.79761,2.9167 -8.77569,0.0964 z m -29.08802,-17.24433 c -4.16554,-2.40517 -6.74005,-6.70867 -6.74427,-11.27361 -0.004,-3.53334 0.13507,-3.73456 2.2259,-3.23761 4.23051,1.00552 10.55485,-3.94655 9.71277,-7.60528 -0.40813,-1.77329 4.07344,-1.37676 8.41521,0.74457 9.48952,4.63647 10.1696,17.35531 1.16381,21.76557 -3.94978,1.93428 -11.07027,1.74454 -14.77342,-0.39364 z M 106.52466,296.8526 c 0,-0.49197 0.49945,-1.65184 1.10988,-2.57751 0.92698,-1.40566 0.69662,-2.24777 -1.39784,-5.10991 -2.99511,-4.09289 -3.20652,-7.98903 -0.60356,-11.12279 3.49157,-4.20356 9.38007,-3.98088 14.63704,0.55354 2.81452,2.42767 2.64054,3.72101 -0.67552,5.02177 -3.8035,1.49198 -9.92972,7.98711 -10.71108,11.35609 -0.59106,2.54843 -2.35892,3.95648 -2.35892,1.87881 z M 257.2594,276.06202 c -1.4095,-0.72415 -2.56273,-1.71023 -2.56273,-2.1913 0,-0.48106 0.94355,-0.31707 2.09678,0.36445 3.58214,2.11693 7.03966,2.46635 10.01018,1.01164 3.09774,-1.51701 5.59913,-5.41147 5.59913,-8.71737 0,-3.51054 -4.23956,-7.52845 -8.6482,-8.19605 -3.34998,-0.5073 -3.56168,-0.66831 -1.72479,-1.31181 4.89391,-1.71443 12.23679,4.02169 12.23679,9.55916 0,8.43763 -9.13069,13.52788 -17.00716,9.48128 z m 71.67386,-22.93636 c -3.67618,-1.95594 -2.62423,-2.40993 1.78422,-0.77002 4.96655,1.84753 10.16756,0.29244 13.17449,-3.93912 2.75414,-3.87582 2.69682,-6.06134 -0.19162,-7.30766 -1.75718,-0.75819 -2.07867,-1.28029 -1.32086,-2.14501 0.55089,-0.6286 0.72902,-1.95623 0.39587,-2.95028 -0.92464,-2.7589 0.88123,-2.15652 3.57994,1.19415 2.38031,2.95536 2.3959,3.07035 1.01403,7.477 -2.43498,7.76497 -11.71815,12.01525 -18.43607,8.44094 z m -93.82517,-2.61432 c -0.64834,-0.7398 -0.96355,-1.54893 -0.70048,-1.79806 0.65804,-0.62316 5.37867,1.48524 5.37867,2.40231 0,1.25958 -3.43342,0.81612 -4.67819,-0.60425 z m 88.70052,-2.664 c -1.33765,-2.78023 -1.37939,-5.7286 -0.12531,-8.85227 1.31571,-3.27717 2.08864,-2.20383 0.84529,1.17381 -0.70195,1.90691 -0.71075,3.71378 -0.0294,6.05044 1.15687,3.96781 0.81875,4.76497 -0.69052,1.62802 z m 5.28681,-14.79467 3.10845,-3.0577 3.8808,1.44373 c 3.1766,1.18175 3.50032,1.4949 1.78403,1.72573 -1.15323,0.1551 -2.09678,0.84158 -2.09678,1.52548 0,1.00609 -0.44475,1.05157 -2.32975,0.23822 -1.77267,-0.76488 -2.94253,-0.74372 -4.89247,0.0885 -2.52663,1.07834 -2.51894,1.05068 0.54572,-1.96396 z m -144.22508,-8.03741 c -0.69498,-0.79302 -0.98719,-1.70365 -0.64933,-2.02359 0.87032,-0.82421 2.73197,1.13858 2.28481,2.40895 -0.25703,0.73022 -0.76212,0.6112 -1.63548,-0.38536 z m -14.38488,-25.2911 c -4.89865,-3.64906 -2.20263,-10.82026 4.06787,-10.82026 6.27049,0 8.9665,7.1712 4.06787,10.82026 -1.35048,1.00599 -3.18102,1.82908 -4.06787,1.82908 -0.88685,0 -2.71739,-0.82309 -4.06787,-1.82908 z M 143.8992,183.99017 c -2.34163,-2.07147 -2.89426,-3.26212 -2.89426,-6.2356 0,-4.79858 1.31182,-6.96092 5.14251,-8.47666 6.82035,-2.6987 13.49548,1.69254 13.49548,8.87801 0,3.18796 -0.47761,4.20573 -2.86721,6.10988 -4.05282,3.2295 -9.03484,3.12286 -12.87652,-0.27563 z m 200.7786,0.59896 c -3.40651,-4.60572 -0.13014,-11.27629 5.53856,-11.27629 5.60642,0 9.00742,6.5459 5.35842,10.31335 -0.89695,0.92606 -1.27437,1.17936 -0.83871,0.56288 0.43567,-0.61647 0.79212,-2.59713 0.79212,-4.40146 0,-5.37181 -4.31101,-7.19183 -8.91375,-3.76318 -4.34123,3.23384 -2.65851,8.3264 3.1815,9.6284 l 3.21612,0.71703 -3.44178,0.0903 c -2.56807,0.0674 -3.81005,-0.40757 -4.89248,-1.87106 z"
       id="path516"
       inkscape:connector-curvature="0"
       sodipodi:nodetypes="scsscccscssccssscsccccccscccssccccccssccscssscsscsscscsscscsscsccssssssssccccsssscccsccssscccscsscccscccssssccccsccccscssscsccssccsccsscssssccscccscscsssssssssccsssssscscscssccccscccccscssccccscscssscscsscsscscsccccccssccsccscscccsscccsscsccsscsssscssccccsscssssscccssccssssssssssssccscsccccssscscscssscscsccscccscsscsccccscsccscsscscsccscssccscccscccccssscccccsccscsccssscccsccsscccc" />
    <path
       style="fill:#000000;stroke-width:0.90686977"
       d="m 234.22618,356.65807 c -6.64051,-2.19174 -10.28219,-5.89139 -10.28219,-10.44586 0,-4.98479 -1.4161,-6.70929 -6.44822,-7.85249 -5.8218,-1.32262 -8.9443,-3.56769 -10.45135,-7.5145 -0.63665,-1.66729 -1.77126,-3.25447 -2.52138,-3.52706 -0.75012,-0.27259 -4.6409,-0.0707 -8.6462,0.44864 -9.81384,1.27248 -10.76717,0.7802 -21.08438,-10.88767 -1.76078,-1.9913 -2.834,-2.36431 -6.80256,-2.36431 -6.21472,0 -9.38229,-1.68411 -13.9548,-7.41939 -6.41817,-8.0503 -6.48226,-11.36201 -0.47985,-24.79231 3.13604,-7.01682 5.59698,-16.7015 4.62314,-18.19369 -0.28009,-0.42918 -1.28845,-0.78033 -2.2408,-0.78033 -5.95923,0 -18.66025,-9.79533 -18.66025,-14.39123 0,-4.81364 8.04652,-12.26855 18.85179,-17.46572 2.93658,-1.41246 8.69329,-5.04858 12.79271,-8.08027 4.0994,-3.03169 10.06759,-7.29925 13.26263,-9.48347 5.37439,-3.67407 6.0022,-4.4667 8.38797,-10.59015 5.20207,-13.3519 4.67206,-12.7789 27.6504,-29.89357 8.53061,-6.35375 12.69399,-8.74968 21.43369,-12.33457 17.10048,-7.01436 22.63333,-8.59509 29.48458,-10.8523 7.0746,-2.33079 15.38131,-1.38898 15.40759,-8.45185 0.0142,-3.81049 7.66032,-10.14504 13.13537,-16.50615 4.87868,-5.66825 13.73612,-11.22324 17.66403,-16.43327 31.44337,-28.272672 8.94957,0.21164 -1.38128,11.1366 -4.56091,4.81955 -12.00743,13.41665 -16.54783,19.10465 -4.5404,5.688 -9.19585,10.83421 -10.34543,11.43602 -1.14959,0.6018 -6.73428,2.37158 -12.41041,3.93284 -13.01124,3.57882 -37.64142,13.20643 -43.91952,17.16755 -2.62595,1.65682 -7.69417,5.39519 -11.26273,8.30748 -3.56856,2.91229 -9.07469,7.20629 -12.23583,9.54223 -5.48688,4.05453 -10.64416,11.18982 -9.12659,12.62697 0.9949,0.94217 3.27556,-1.32252 6.8414,-6.79347 2.17439,-3.3361 3.77899,-4.9399 4.63217,-4.62986 1.76447,0.64121 1.75093,0.69 -1.89225,6.81956 -3.18175,5.35324 -9.51908,11.74547 -17.07121,17.21911 -4.37165,3.16848 -4.69331,4.02277 -2.41311,6.40883 2.19595,2.29791 0.87259,3.01776 -1.46981,0.7995 -2.08743,-1.97681 -4.27465,-2.3787 -5.2031,-0.95605 -0.31677,0.48538 -1.42176,0.88251 -2.45552,0.88251 -1.60994,0 -12.92083,7.36572 -12.92083,8.41412 0,0.20259 0.83715,1.66862 1.86032,3.25784 3.44852,5.35632 1.74444,10.32957 -5.05811,14.7618 -6.60826,4.30566 -8.36931,3.34629 -2.59149,-1.41177 5.94086,-4.89231 8.1294,-8.40995 6.75045,-10.85 -2.20868,-3.90825 -7.52425,-3.32678 -15.77963,1.72615 -6.76389,4.14003 -11.36646,10.00145 -9.33199,11.88437 0.7254,0.67138 2.78666,1.4098 4.58057,1.64095 1.7939,0.23115 3.41783,0.45665 3.60872,0.50112 0.1909,0.0445 -0.21262,0.71952 -0.89672,1.50011 -1.05635,1.20538 -0.97893,1.60268 0.51375,2.63631 2.53742,1.75708 6.99821,2.36098 14.70552,1.99082 11.67582,-0.56077 23.37285,-7.38384 33.44607,-19.50969 6.78964,-8.17316 19.10233,-18.73656 26.23315,-22.50615 11.57806,-6.12054 26.35795,-11.89182 35.45536,-13.84466 12.68879,-2.72376 25.23613,-9.03033 26.77993,-13.46018 1.42305,-4.08339 5.50458,-10.85675 6.5421,-10.85675 1.19001,0 1.06466,1.34024 -0.44546,4.76293 -1.94888,4.41713 -0.79778,5.42952 4.69747,4.13139 2.48675,-0.58744 6.25051,-2.02197 8.36391,-3.18786 2.1134,-1.1659 5.67791,-2.38634 7.92115,-2.7121 5.7821,-0.83968 7.77765,-1.98188 16.25021,-9.30119 4.13166,-3.56928 9.48783,-11.72328 17.37474,-18.51862 5.22966,-11.6369 36.5573,-36.68135 53.92901,-48.59653 29.68611,-20.361571 20.6806,-3.89714 7.30994,6.99656 -47.65575,38.61031 -77.08728,64.4675 -77.93581,68.47085 -0.69211,3.26525 -3.49104,4.89277 -10.17468,5.91632 -24.43645,3.74234 -50.91819,17.20776 -67.7699,34.45962 -5.86901,6.00836 -18.30991,22.76519 -18.30991,24.66187 0,0.58117 -1.07162,2.26272 -2.38137,3.73678 -1.30976,1.47406 -3.46132,4.70844 -4.78125,7.1875 -1.31994,2.47906 -3.60316,5.95449 -5.07383,7.72317 -1.47066,1.76868 -2.67394,3.58038 -2.67394,4.02597 0,0.4456 1.25806,1.69101 2.7957,2.76759 5.03324,3.52402 3.23318,7.80746 -7.48933,17.82167 -3.56904,3.33327 -6.48917,6.42862 -6.48917,6.87855 0,1.65239 5.60749,3.03503 9.99781,2.46516 6.61027,-0.85802 11.73282,-3.63819 19.48296,-10.57401 6.96781,-6.23568 7.06715,-6.38768 9.31005,-14.24555 1.24691,-4.36843 3.28892,-11.51678 4.5378,-15.88522 3.31985,-11.61244 9.381,-27.22889 10.73401,-27.65599 0.86752,-0.27385 1.01061,0.44369 0.55107,2.76346 -0.34139,1.72333 -0.26771,3.33995 0.16375,3.59248 0.43145,0.25252 5.33732,-1.70217 10.90191,-4.34375 10.30819,-4.89342 16.32779,-6.17607 16.32779,-3.47911 0,0.72807 -0.77172,1.32377 -1.71495,1.32377 -2.94238,0 -12.50795,5.05137 -17.62421,9.30696 -5.02686,4.18123 -12.34542,14.79065 -12.34542,17.89664 0,0.95922 -1.04428,3.86842 -2.32064,6.46487 -1.27636,2.59645 -2.32475,6.02546 -2.32975,7.62003 -0.005,1.59457 -0.5868,3.77879 -1.29288,4.85382 -2.90075,4.41655 -12.69472,47.77408 -12.69472,56.19909 0,2.09107 -0.44657,2.5393 -2.86483,2.87542 -2.5464,0.35393 -2.80089,0.1934 -2.28953,-1.44423 1.15271,-3.69158 3.29974,-18.32337 2.8009,-19.08776 -0.88422,-1.35486 -6.9892,2.02465 -7.56204,4.1861 -0.29614,1.11738 -0.38711,7.90704 -0.20216,15.08815 0.38521,14.95668 1.20452,17.11617 7.08018,18.66143 7.56979,1.99079 10.84367,1.31278 16.96834,-3.51411 4.75711,-3.7491 6.2824,-5.71868 9.73898,-12.5758 4.23892,-8.40911 10.86192,-25.36786 13.50687,-34.58549 l 1.51356,-5.27471 3.71938,-0.16317 c 2.04565,-0.0897 5.08228,-0.44182 6.74805,-0.78241 3.78609,-0.77411 4.06999,0.78776 0.46595,2.56337 -5.32499,2.62346 -7.42194,6.4409 -17.00581,30.95871 -2.07938,5.31955 -4.83359,11.37332 -6.12046,13.45283 -1.82248,2.94502 -2.12752,4.1565 -1.37973,5.4797 2.245,3.97252 12.21837,2.84868 17.59879,-1.98309 3.5087,-3.15092 13.39575,-18.60924 20.51099,-32.06876 2.61021,-4.9376 5.28225,-9.2914 5.93785,-9.67511 0.65561,-0.38372 2.3039,-0.58721 3.66288,-0.45222 1.35898,0.135 2.74688,-0.17749 3.08423,-0.6944 0.84047,-1.28784 3.29906,-1.18874 3.29906,0.13298 0,0.59006 -1.86005,2.87356 -4.13346,5.07445 -4.28329,4.14668 -19.16402,27.55123 -19.16402,30.14135 0,3.29432 7.96782,3.44663 14.67684,0.28056 5.18046,-2.44471 18.42039,-14.90332 23.62575,-22.23152 4.22265,-5.94472 7.44249,-9.04259 9.39863,-9.04259 2.07878,0 2.1633,1.61414 0.22194,4.23893 -2.88994,3.90731 -0.69291,3.99895 3.71089,0.1548 9.19263,-8.02442 14.63769,-23.64275 25.73719,-73.82338 1.16884,-5.28429 2.32322,-6.47616 6.01888,-6.21432 2.38504,0.16898 3.08539,-0.47002 6.56347,-5.98842 3.75488,-5.95761 4.0179,-6.17373 7.38609,-6.06908 3.31163,0.1029 4.46195,-0.76567 22.20674,-16.76773 26.7974,-24.16558 32.44783,-28.90232 34.11483,-28.59829 3.50378,0.639 1.68142,3.34843 -7.54794,11.22206 -5.27453,4.49973 -10.21908,9.03437 -10.9879,10.07698 -1.59771,2.1667 -15.26382,14.57357 -30.28673,27.496 -5.63799,4.84971 -10.40278,9.14989 -10.58844,9.55598 -0.18564,0.40608 -2.38725,3.27088 -4.89247,6.36621 -2.50521,3.09534 -4.55493,5.82322 -4.55493,6.06195 0,0.23873 -0.9979,1.82663 -2.21757,3.52867 -1.26655,1.76744 -2.67979,5.66363 -3.29534,9.08493 -2.07561,11.53663 -4.0962,19.24689 -5.61716,21.43431 -1.75487,2.52383 -5.90848,15.23117 -6.05774,18.53276 -0.17156,3.79488 -6.10457,12.96498 -11.5784,17.89567 -2.88647,2.60006 -8.39328,6.46434 -12.23736,8.5873 -3.84409,2.12297 -9.08602,5.69777 -11.64874,7.94401 -13.33755,11.69046 -23.2793,16.40186 -32.72444,15.50812 -4.63549,-0.43863 -5.93758,-0.26747 -6.97557,0.91695 -3.25592,3.71524 -12.70553,7.39377 -18.9935,7.39377 -1.33108,0 -4.10272,-0.81289 -6.15919,-1.80642 l -3.73904,-1.80642 -4.72909,3.28749 c -6.0942,4.23647 -11.60326,4.74468 -20.30377,1.87303 z m -11.44299,-23.83112 c 1.59902,-1.89424 2.90703,-13.11518 1.58483,-13.59566 -1.17754,-0.42792 -12.31398,3.64716 -13.90657,5.08874 -1.28281,1.16117 1.81853,6.26991 4.90779,8.08445 3.00475,1.76489 6.1304,1.94301 7.41395,0.42247 z m -34.79848,-12.79642 c -0.29596,-1.43505 0.0547,-3.13657 0.85797,-4.16332 1.30261,-1.66497 1.41801,-1.60152 2.80514,1.54243 2.39863,5.43651 4.771,5.83139 15.11846,2.51654 10.41835,-3.33757 21.27466,-7.89923 28.15645,-11.83092 4.82331,-2.75565 7.13074,-6.30244 6.01452,-9.24503 -0.75502,-1.99033 -7.83498,-1.23849 -13.89233,1.47526 -6.06266,2.71613 -7.72238,4.54472 -7.82002,8.61561 l -0.0596,2.48493 -1.26904,-2.64754 c -0.69797,-1.45614 -1.50035,-3.35152 -1.78306,-4.21195 -0.90863,-2.76538 -3.38284,-2.75154 -9.27797,0.0519 -5.41555,2.57537 -19.83596,7.24886 -22.36691,7.24886 -0.6444,0 -1.93628,0.52949 -2.87087,1.17666 -1.64345,1.13803 -1.64355,1.26115 -0.004,3.75068 4.02733,6.11287 7.32878,7.78455 6.39068,3.2359 z m -5.84732,-11.67341 c 8.65684,-0.9465 9.06032,-1.37386 5.0077,-5.30418 -4.79782,-4.65301 -4.3264,-7.1398 2.31863,-12.23113 6.60926,-5.06391 6.88079,-5.85005 1.75493,-5.08092 -10.4638,1.5701 -12.17813,1.62698 -14.44288,0.47915 -1.84302,-0.93408 -2.92964,-0.96229 -5.24099,-0.1361 -3.08149,1.10149 -4.0808,0.90461 -3.09277,-0.60933 0.80077,-1.227 7.43113,-2.87252 9.11246,-2.26152 0.73533,0.2672 2.46141,0.081 3.83576,-0.41386 2.46622,-0.88796 2.49099,-0.97924 1.90002,-7.00096 -0.36141,-3.68255 -0.13504,-8.42873 0.57102,-11.97242 0.64339,-3.22914 0.99329,-6.03831 0.77757,-6.24261 -0.37213,-0.35241 -12.60748,3.89474 -17.50149,6.07513 -1.8198,0.81076 -2.52595,2.12202 -3.43607,6.38035 -0.63003,2.94792 -2.84831,9.0976 -4.92948,13.66594 -4.59483,10.08601 -4.75452,13.24102 -0.94582,18.68638 4.22411,6.03927 7.72028,7.91143 13.4657,7.21072 2.56272,-0.31255 7.44329,-0.87264 10.84571,-1.24464 z m 21.07184,-5.91522 c 1.15323,-0.26048 2.09657,-0.92695 2.09632,-1.48106 -6.2e-4,-1.38347 -8.86879,-8.50883 -10.59001,-8.50883 -1.85972,0 -8.04752,5.59525 -8.04752,7.27687 0,3.6765 7.11151,4.8429 16.54121,2.71302 z m 38.44085,-8.66612 c 0,-0.72807 -0.60428,-1.32377 -1.34285,-1.32377 -1.55687,0 -2.60783,1.2596 -1.73815,2.08319 1.11377,1.05474 3.081,0.56985 3.081,-0.75942 z m -34.36001,-3.1469 c 2.07549,-1.00272 6.06946,-3.92898 8.87549,-6.5028 4.83418,-4.43413 5.08652,-4.88256 4.80933,-8.54639 -0.25728,-3.40065 -0.57895,-3.89832 -2.66866,-4.12891 -1.95577,-0.21581 -3.58006,1.0332 -9.18143,7.0601 -6.89629,7.4202 -8.93902,10.64867 -8.07962,12.76955 0.64901,1.60167 1.8378,1.47764 6.24489,-0.65155 z m -1.52302,-17.37151 c 7.99678,-8.83387 17.87044,-22.60891 22.61426,-31.54982 4.39495,-8.2834 9.87107,-15.53066 17.80141,-23.55896 9.13827,-9.25112 7.51869,-10.08349 -6.42366,-3.30134 -13.63807,6.63415 -19.63124,10.58741 -28.95621,19.1003 -14.42574,13.16947 -21.45068,25.14624 -21.68236,36.96613 -0.15103,7.70521 0.88627,9.18316 6.44522,9.18316 3.84783,0 4.26032,-0.27655 10.20134,-6.83947 z m 29.34104,-22.74603 c -0.64834,-0.7398 -0.96355,-1.54893 -0.70048,-1.79806 0.65804,-0.62316 5.37867,1.48524 5.37867,2.40231 0,1.25958 -3.43342,0.81612 -4.67819,-0.60425 z m -50.23775,-25.49608 c -0.69498,-0.79302 -0.98719,-1.70365 -0.64933,-2.02359 0.87032,-0.82421 2.73197,1.13858 2.28481,2.40895 -0.25703,0.73022 -0.76212,0.6112 -1.63548,-0.38536 z"
       id="path512"
       inkscape:connector-curvature="0"
       sodipodi:nodetypes="cssccccssscsssssssssssccscssscsscsscscsscscsscsccssssssscccsscscccsscccscsscccscccssssscccsccccscssscsccssccsccsscssssccscccscscsccscssssssscsscscsccsscccscccccscssccccsccscscccsscccsscsccsscsssscssccccsscsssssccscccsc" />
    <path
       inkscape:connector-curvature="0"
       id="path532"
       d="m 190.79086,278.46381 c -1.1192,-1.12884 -1.17957,-1.48355 -1.15778,-6.80334 0.0266,-6.48373 0.76098,-9.58138 3.66968,-15.47793 5.47791,-11.10486 18.69092,-24.7524 32.17751,-33.23573 8.34122,-5.24679 25.161,-13.18285 26.08512,-12.30772 0.15264,0.14455 -0.95227,1.67004 -2.45533,3.38999 -1.50307,1.71994 -4.72687,5.41033 -7.16399,8.20085 -5.12683,5.87025 -10.51162,13.29569 -12.90329,17.79323 -5.22773,9.83074 -15.41322,24.08751 -24.0434,33.65385 -4.85726,5.38417 -5.83147,5.97773 -9.81127,5.97773 -2.82855,0 -3.35887,-0.14363 -4.39725,-1.19093 z"
       style="fill:#ffd42a;stroke-width:0.47397375" />
    <path
       inkscape:connector-curvature="0"
       id="path539"
       d="m 296.33243,148.76963 c 5.12667,-7.21577 13.56755,-16.49191 23.8923,-26.25651 2.46988,-2.33588 4.51808,-4.22113 4.55154,-4.18944 0.10575,0.10014 -4.15583,5.38406 -7.7342,9.58961 -5.67155,6.66561 -12.67793,14.26561 -16.26454,17.64256 -1.87433,1.76477 -4.50858,3.93126 -4.95921,4.07862 -0.0719,0.0235 0.15947,-0.36567 0.51411,-0.86484 z"
       style="fill:#ffffff;stroke-width:0.11849344" />
  </g>
</svg>
